<svg width="109" height="130" viewBox="0 0 109 130" fill="none" xmlns="http://www.w3.org/2000/svg">
    <path
        d="M108.29 48.34C108.655 51.6336 105.935 54.3283 102.621 54.3283H87.8233C84.5096 54.3283 81.8887 51.6108 81.1721 48.3755C80.0472 43.2967 77.4958 38.5974 73.7598 34.8613C68.5968 29.6984 61.5944 26.7979 54.2929 26.7979C46.9913 26.7979 39.9889 29.6984 34.8259 34.8613C31.0899 38.5974 28.5385 43.2967 27.4136 48.3755C26.697 51.6108 24.0761 54.3283 20.7624 54.3283L5.96455 54.3283C2.65084 54.3283 -0.0697601 51.6336 0.295395 48.34C1.64866 36.1342 7.10993 24.6794 15.8769 15.9124C26.0655 5.72386 39.8841 0 54.2929 0C68.7016 0 82.5202 5.72386 92.7088 15.9124C101.476 24.6794 106.937 36.1342 108.29 48.34Z"
        fill="black" />
    <path
        d="M108.29 80.6893C108.655 77.3957 105.935 74.7014 102.621 74.7014H87.8233C84.5096 74.7014 81.8885 77.4187 81.172 80.6541C80.8259 82.2171 80.3432 83.7507 79.7276 85.2368C78.3441 88.577 76.3162 91.6119 73.7598 94.1684C71.2034 96.7248 68.1684 98.7527 64.8283 100.136C61.4881 101.52 57.9082 102.232 54.2928 102.232C50.6775 102.232 47.0976 101.52 43.7574 100.136C40.4173 98.7527 37.3823 96.7248 34.8259 94.1684C32.2695 91.6119 30.2416 88.577 28.858 85.2368C28.2425 83.7507 27.7598 82.2171 27.4137 80.6541C26.6972 77.4187 24.0761 74.7014 20.7624 74.7014H5.96455C2.65084 74.7014 -0.0696929 77.3957 0.295533 80.6893C0.858746 85.7682 2.13686 90.7524 4.10004 95.492C6.8303 102.083 10.8321 108.072 15.8769 113.117C20.9218 118.162 26.9109 122.164 33.5023 124.894C40.0937 127.624 47.1584 129.03 54.2928 129.03C61.4273 129.03 68.492 127.624 75.0834 124.894C81.6748 122.164 87.6639 118.162 92.7087 113.117C97.7536 108.072 101.755 102.083 104.486 95.492C106.449 90.7524 107.727 85.7682 108.29 80.6893Z"
        fill="black" />
</svg>