<svg width="375" height="812" fill="none" xmlns="http://www.w3.org/2000/svg"><style>@media (prefers-color-scheme:dark){#prefix__light{display:none}}@media (prefers-color-scheme:light){#prefix__dark{display:none}}</style><g id="prefix__light"><rect width="374" height="812" rx="10" fill="#fff"/><path d="M239.096 267.947c3.784 0 6.892-3.078 6.454-6.836a58.95 58.95 0 00-100.232-34.846 58.948 58.948 0 00-16.868 34.846c-.439 3.758 2.67 6.836 6.454 6.836h15.373c3.784 0 6.774-3.107 7.634-6.792A29.875 29.875 0 01187 238.076a29.871 29.871 0 0129.089 23.079c.86 3.685 3.85 6.792 7.634 6.792h15.373zM239.096 290.053c3.784 0 6.892 3.077 6.454 6.836a58.94 58.94 0 01-16.868 34.846A58.954 58.954 0 01187 349a58.954 58.954 0 01-41.682-17.265 58.938 58.938 0 01-16.868-34.846c-.439-3.759 2.67-6.836 6.454-6.836h15.373c3.784 0 6.774 3.106 7.634 6.791a29.869 29.869 0 0050.211 14.331 29.869 29.869 0 007.967-14.331c.86-3.685 3.85-6.791 7.634-6.791h15.373zM112.412 401.422c4.799 0 8.578-2.162 10.16-5.678.264-.615.405-1.178.405-1.775 0-1.407-.985-2.356-2.479-2.356-1.125 0-1.793.475-2.338 1.67-1.142 2.549-3.146 3.762-5.818 3.762-4.061 0-6.61-3.34-6.61-8.754 0-5.344 2.584-8.701 6.592-8.701 2.531 0 4.606 1.301 5.766 3.885.58 1.23 1.336 1.757 2.531 1.757 1.406 0 2.338-.896 2.338-2.285 0-.633-.176-1.318-.527-1.986-1.741-3.656-5.414-5.766-10.161-5.766-7.294 0-11.953 4.94-11.953 13.114 0 8.191 4.571 13.113 12.094 13.113zm16.611-.053c1.512 0 2.567-.914 2.567-2.672v-8.455c0-2.478 1.424-4.183 3.849-4.183 2.338 0 3.534 1.476 3.534 3.902v8.736c0 1.758 1.072 2.672 2.566 2.672 1.512 0 2.566-.914 2.566-2.672v-9.826c0-4.359-2.39-7.066-6.574-7.066-2.865 0-4.922 1.336-5.924 3.709h-.105v-7.629c0-1.653-.932-2.637-2.514-2.637-1.582 0-2.531.984-2.531 2.637v20.812c0 1.758 1.072 2.672 2.566 2.672zm23.942-.07c2.355 0 4.711-1.178 5.765-3.182h.106v.967c.105 1.512 1.072 2.285 2.461 2.285 1.459 0 2.496-.879 2.496-2.584v-10.74c0-3.797-3.147-6.293-7.981-6.293-3.902 0-6.925 1.389-7.804 3.639a2.716 2.716 0 00-.264 1.16c0 1.16.897 1.969 2.145 1.969.826 0 1.476-.317 2.039-.95 1.142-1.476 2.092-1.986 3.656-1.986 1.934 0 3.164 1.02 3.164 2.777v1.248l-4.746.282c-4.711.281-7.348 2.267-7.348 5.695 0 3.393 2.725 5.713 6.311 5.713zm1.687-3.709c-1.722 0-2.882-.879-2.882-2.285 0-1.336 1.089-2.198 3.005-2.338l3.973-.246v1.371c0 2.039-1.846 3.498-4.096 3.498zm15.03 10.125c1.511 0 2.566-.914 2.566-2.672v-7.207h.106c1.001 2.127 3.111 3.463 5.853 3.463 4.711 0 7.629-3.656 7.629-9.721 0-6.082-2.936-9.721-7.717-9.721-2.724 0-4.816 1.372-5.836 3.586h-.105v-1.019c0-1.74-1.055-2.654-2.532-2.654-1.476 0-2.531.914-2.531 2.636v20.637c0 1.758 1.073 2.672 2.567 2.672zm6.714-10.547c-2.513 0-4.166-2.18-4.166-5.59 0-3.375 1.653-5.607 4.166-5.607 2.567 0 4.184 2.197 4.184 5.607 0 3.428-1.617 5.59-4.184 5.59zm23.836 4.254c4.799 0 8.579-2.162 10.161-5.678.263-.615.404-1.178.404-1.775 0-1.407-.985-2.356-2.479-2.356-1.125 0-1.793.475-2.338 1.67-1.142 2.549-3.146 3.762-5.818 3.762-4.06 0-6.609-3.34-6.609-8.754 0-5.344 2.584-8.701 6.592-8.701 2.531 0 4.605 1.301 5.765 3.885.58 1.23 1.336 1.757 2.531 1.757 1.407 0 2.338-.896 2.338-2.285 0-.633-.175-1.318-.527-1.986-1.74-3.656-5.414-5.766-10.16-5.766-7.295 0-11.953 4.94-11.953 13.114 0 8.191 4.57 13.113 12.093 13.113zm16.612-.053c1.511 0 2.566-.914 2.566-2.672v-8.455c0-2.478 1.424-4.183 3.85-4.183 2.338 0 3.533 1.476 3.533 3.902v8.736c0 1.758 1.072 2.672 2.566 2.672 1.512 0 2.567-.914 2.567-2.672v-9.826c0-4.359-2.391-7.066-6.574-7.066-2.866 0-4.922 1.336-5.924 3.709h-.106v-7.629c0-1.653-.931-2.637-2.513-2.637-1.582 0-2.532.984-2.532 2.637v20.812c0 1.758 1.073 2.672 2.567 2.672zm23.941-.07c2.356 0 4.711-1.178 5.766-3.182h.105v.967c.106 1.512 1.073 2.285 2.461 2.285 1.459 0 2.496-.879 2.496-2.584v-10.74c0-3.797-3.146-6.293-7.98-6.293-3.903 0-6.926 1.389-7.805 3.639a2.716 2.716 0 00-.264 1.16c0 1.16.897 1.969 2.145 1.969.826 0 1.477-.317 2.039-.95 1.143-1.476 2.092-1.986 3.656-1.986 1.934 0 3.164 1.02 3.164 2.777v1.248l-4.746.282c-4.711.281-7.347 2.267-7.347 5.695 0 3.393 2.724 5.713 6.31 5.713zm1.688-3.709c-1.723 0-2.883-.879-2.883-2.285 0-1.336 1.09-2.198 3.006-2.338l3.972-.246v1.371c0 2.039-1.845 3.498-4.095 3.498zm15.029 10.125c1.512 0 2.566-.914 2.566-2.672v-7.207h.106c1.002 2.127 3.111 3.463 5.853 3.463 4.711 0 7.629-3.656 7.629-9.721 0-6.082-2.935-9.721-7.717-9.721-2.724 0-4.816 1.372-5.835 3.586h-.106v-1.019c0-1.74-1.055-2.654-2.531-2.654-1.477 0-2.531.914-2.531 2.636v20.637c0 1.758 1.072 2.672 2.566 2.672zm6.715-10.547c-2.514 0-4.166-2.18-4.166-5.59 0-3.375 1.652-5.607 4.166-5.607 2.566 0 4.183 2.197 4.183 5.607 0 3.428-1.617 5.59-4.183 5.59zM100.12 467h5.827c.73 0 1.204-.413 1.204-1.099 0-.685-.483-1.098-1.204-1.098h-4.5v-9.273c0-.879-.492-1.388-1.327-1.388s-1.327.509-1.327 1.388v10.081c0 .879.492 1.389 1.327 1.389zm12.41.202c2.848 0 4.667-1.819 4.667-4.922 0-3.058-1.845-4.904-4.667-4.904-2.821 0-4.667 1.854-4.667 4.904 0 3.094 1.82 4.922 4.667 4.922zm0-1.96c-1.265 0-2.065-1.063-2.065-2.953 0-1.872.817-2.953 2.065-2.953s2.057 1.081 2.057 2.953c0 1.89-.8 2.953-2.057 2.953zm10.204 5.3c3.033.018 4.808-1.459 4.808-3.911v-7.945c0-.871-.536-1.301-1.274-1.301-.739 0-1.292.43-1.292 1.301v.518h-.053c-.492-1.063-1.521-1.775-2.874-1.775-2.426 0-3.867 1.749-3.867 4.702 0 2.874 1.476 4.667 3.823 4.667 1.362 0 2.461-.677 2.9-1.688h.053v1.503c0 1.178-.826 1.951-2.232 1.943-.853-.009-1.521-.369-2.215-1.029-.29-.263-.554-.369-.888-.369-.642 0-1.046.404-1.046.941 0 .237.053.474.194.712.606.993 2.039 1.722 3.963 1.731zm.141-5.651c-1.274 0-2.065-1.011-2.065-2.734 0-1.705.799-2.777 2.065-2.777 1.283 0 2.109 1.09 2.109 2.786 0 1.705-.826 2.725-2.109 2.725zm7.664-8.482c.773 0 1.371-.589 1.371-1.327 0-.747-.598-1.327-1.371-1.327s-1.371.58-1.371 1.327c0 .738.598 1.327 1.371 1.327zm0 10.776c.791 0 1.283-.501 1.283-1.336v-7.12c0-.834-.492-1.344-1.283-1.344-.8 0-1.283.51-1.283 1.344v7.12c0 .835.483 1.336 1.283 1.336zm4.28 0c.756 0 1.284-.457 1.284-1.336v-4.254c0-1.222.729-2.066 1.88-2.066 1.152 0 1.732.703 1.732 1.934v4.386c0 .879.527 1.336 1.283 1.336.747 0 1.283-.457 1.283-1.336v-4.922c0-2.206-1.177-3.525-3.269-3.525-1.45 0-2.4.642-2.901 1.811h-.052v-.527c0-.809-.51-1.301-1.284-1.301-.773 0-1.239.492-1.239 1.292v7.172c0 .879.536 1.336 1.283 1.336zm13.342-2.593c0 1.661.87 2.513 2.584 2.513h.088c1.081 0 1.819-.386 1.819-1.142 0-.598-.342-.861-.975-.932l-.167-.017c-.554-.044-.782-.326-.782-.993v-4.509h.905c.606 0 .984-.378.984-.967s-.378-.967-.984-.967h-.905v-1.046c0-.826-.484-1.336-1.284-1.336-.799 0-1.283.51-1.283 1.336v1.046h-.492c-.607 0-.993.369-.993.967s.386.967.993.967h.492v5.08zm9.897 2.61c2.847 0 4.667-1.819 4.667-4.922 0-3.058-1.846-4.904-4.667-4.904-2.822 0-4.667 1.854-4.667 4.904 0 3.094 1.819 4.922 4.667 4.922zm0-1.96c-1.266 0-2.066-1.063-2.066-2.953 0-1.872.818-2.953 2.066-2.953 1.248 0 2.056 1.081 2.056 2.953 0 1.89-.8 2.953-2.056 2.953zm11.162 5.247c2.065 0 3.155-.896 4.034-3.331l2.892-7.857c.087-.246.14-.545.14-.756 0-.677-.51-1.16-1.248-1.16-.659 0-1.028.307-1.239 1.019l-2.048 6.539h-.044l-2.048-6.521c-.211-.747-.562-1.037-1.239-1.037-.756 0-1.327.501-1.327 1.195 0 .211.053.492.149.756l3.006 7.928-.132.334c-.307.659-.791.852-1.239.852-.176 0-.273-.009-.448-.009-.58 0-.941.326-.941.844 0 .774.607 1.204 1.732 1.204zm12.234-3.287c2.848 0 4.667-1.819 4.667-4.922 0-3.058-1.846-4.904-4.667-4.904-2.821 0-4.667 1.854-4.667 4.904 0 3.094 1.819 4.922 4.667 4.922zm0-1.96c-1.266 0-2.065-1.063-2.065-2.953 0-1.872.817-2.953 2.065-2.953s2.057 1.081 2.057 2.953c0 1.89-.8 2.953-2.057 2.953zm9.343 1.934c1.424 0 2.355-.686 2.821-1.872h.053v.58c0 .852.501 1.301 1.239 1.301.738 0 1.239-.449 1.239-1.301v-7.155c0-.878-.527-1.344-1.283-1.344-.747 0-1.283.466-1.283 1.344v4.246c0 1.248-.712 2.065-1.854 2.065-1.134 0-1.758-.668-1.758-1.925v-4.386c0-.878-.528-1.344-1.283-1.344-.748 0-1.284.466-1.284 1.344v4.922c0 2.198 1.354 3.525 3.393 3.525zm8.306.009c.782 0 1.283-.484 1.283-1.336v-4.184c0-1.116.413-1.775 1.582-1.793.501-.009.87-.123 1.116-.334.246-.211.369-.518.369-.923 0-.439-.123-.756-.369-.949-.185-.158-.457-.237-.8-.237-.94 0-1.714.694-1.96 1.863h-.053v-.615c0-.818-.492-1.292-1.212-1.292-.739 0-1.24.474-1.24 1.292v7.172c0 .852.51 1.336 1.284 1.336zm9.905-.018c.703 0 1.098-.352 1.345-1.195l.668-1.978h4.579l.668 2.004c.237.826.632 1.169 1.379 1.169.774 0 1.328-.519 1.328-1.248 0-.264-.044-.501-.167-.844l-3.481-9.439c-.378-1.037-.993-1.494-2.03-1.494-1.002 0-1.626.474-1.995 1.503l-3.463 9.43c-.114.325-.176.624-.176.844 0 .765.519 1.248 1.345 1.248zm2.593-5.229l1.643-5.195h.062l1.678 5.195h-3.383zm12.717 5.264c1.802 0 3.411-.896 3.973-2.18.114-.254.167-.465.167-.668 0-.632-.483-1.028-1.081-1.028-.545 0-.826.22-1.169.756-.396.668-.949 1.107-1.846 1.107-1.283 0-2.083-1.054-2.083-2.909 0-1.819.8-2.891 2.101-2.891.817 0 1.389.378 1.854 1.204.264.466.572.668 1.081.668.607 0 1.099-.369 1.099-1.002 0-.185-.053-.413-.141-.633-.509-1.336-2.083-2.25-3.972-2.25-2.83 0-4.623 1.898-4.623 4.913 0 3.05 1.801 4.913 4.64 4.913zm9.809 0c1.802 0 3.41-.896 3.973-2.18.114-.254.167-.465.167-.668 0-.632-.484-1.028-1.081-1.028-.545 0-.827.22-1.169.756-.396.668-.95 1.107-1.846 1.107-1.283 0-2.083-1.054-2.083-2.909 0-1.819.8-2.891 2.1-2.891.818 0 1.389.378 1.855 1.204.264.466.571.668 1.081.668.606 0 1.099-.369 1.099-1.002 0-.185-.053-.413-.141-.633-.51-1.336-2.083-2.25-3.973-2.25-2.83 0-4.623 1.898-4.623 4.913 0 3.05 1.802 4.913 4.641 4.913zm9.835 0c2.848 0 4.667-1.819 4.667-4.922 0-3.058-1.846-4.904-4.667-4.904-2.821 0-4.667 1.854-4.667 4.904 0 3.094 1.819 4.922 4.667 4.922zm0-1.96c-1.266 0-2.066-1.063-2.066-2.953 0-1.872.818-2.953 2.066-2.953 1.248 0 2.057 1.081 2.057 2.953 0 1.89-.8 2.953-2.057 2.953zm9.343 1.934c1.424 0 2.355-.686 2.821-1.872h.053v.58c0 .852.501 1.301 1.239 1.301.738 0 1.239-.449 1.239-1.301v-7.155c0-.878-.527-1.344-1.283-1.344-.747 0-1.283.466-1.283 1.344v4.246c0 1.248-.712 2.065-1.855 2.065-1.133 0-1.757-.668-1.757-1.925v-4.386c0-.878-.528-1.344-1.284-1.344-.747 0-1.283.466-1.283 1.344v4.922c0 2.198 1.354 3.525 3.393 3.525zm8.305.009c.756 0 1.284-.457 1.284-1.336v-4.254c0-1.222.729-2.066 1.88-2.066 1.152 0 1.732.703 1.732 1.934v4.386c0 .879.527 1.336 1.283 1.336.747 0 1.283-.457 1.283-1.336v-4.922c0-2.206-1.177-3.525-3.269-3.525-1.45 0-2.4.642-2.901 1.811h-.052v-.527c0-.809-.51-1.301-1.284-1.301-.773 0-1.239.492-1.239 1.292v7.172c0 .879.536 1.336 1.283 1.336zm9.774-2.593c0 1.661.87 2.513 2.584 2.513h.088c1.081 0 1.819-.386 1.819-1.142 0-.598-.343-.861-.976-.932l-.167-.017c-.553-.044-.782-.326-.782-.993v-4.509h.905c.607 0 .985-.378.985-.967s-.378-.967-.985-.967h-.905v-1.046c0-.826-.483-1.336-1.283-1.336-.8 0-1.283.51-1.283 1.336v1.046h-.492c-.607 0-.994.369-.994.967s.387.967.994.967h.492v5.08z" fill="#000"/><rect x="65" y="486" width="68" height="66" rx="20" fill="#000"/><path d="M115.983 519.337c0-1.475-.119-2.551-.376-3.668H98.849v6.657h9.836c-.198 1.655-1.269 4.146-3.649 5.82l-.033.223 5.298 4.126.367.036c3.372-3.129 5.315-7.733 5.315-13.194z" fill="#fff"/><path d="M98.849 536.876c4.819 0 8.864-1.594 11.819-4.345l-5.632-4.385c-1.507 1.057-3.53 1.794-6.187 1.794-4.72 0-8.726-3.129-10.154-7.454l-.21.018-5.51 4.285-.071.201c2.935 5.86 8.964 9.886 15.945 9.886z" fill="#fff"/><path d="M88.695 522.486a11.092 11.092 0 01-.595-3.548c0-1.236.218-2.431.575-3.548l-.01-.237-5.579-4.354-.182.087A18.025 18.025 0 0081 518.938c0 2.89.694 5.621 1.904 8.052l5.79-4.504z" fill="#fff"/><path d="M98.849 507.936c3.351 0 5.612 1.455 6.901 2.671l5.037-4.943c-3.093-2.89-7.119-4.664-11.938-4.664-6.981 0-13.01 4.026-15.945 9.886l5.77 4.504c1.449-4.325 5.455-7.454 10.175-7.454z" fill="#fff"/><rect x="153" y="486" width="68" height="66" rx="20" fill="#000"/><path d="M187.472 500a19.484 19.484 0 00-13.769 5.703A19.47 19.47 0 00168 519.472c0 8.606 5.588 15.908 13.319 18.498.973.156 1.285-.448 1.285-.974v-3.29c-5.394 1.168-6.543-2.61-6.543-2.61-.895-2.258-2.161-2.862-2.161-2.862-1.772-1.207.136-1.168.136-1.168 1.947.136 2.979 2.005 2.979 2.005 1.694 2.96 4.557 2.084 5.667 1.616.175-1.265.681-2.122 1.226-2.609-4.322-.487-8.859-2.161-8.859-9.58 0-2.161.74-3.894 2.005-5.277-.194-.487-.876-2.512.195-5.14 0 0 1.636-.526 5.355 1.986a18.32 18.32 0 014.868-.643c1.655 0 3.329.214 4.868.643 3.719-2.512 5.354-1.986 5.354-1.986 1.071 2.628.39 4.653.195 5.14 1.266 1.383 2.006 3.116 2.006 5.277 0 7.438-4.557 9.074-8.899 9.561.701.603 1.344 1.791 1.344 3.602v5.335c0 .526.311 1.149 1.304.974 7.731-2.609 13.299-9.892 13.299-18.498A19.468 19.468 0 00187.472 500z" fill="#fff"/><rect x="241" y="486" width="68" height="66" rx="20" fill="#000"/><path d="M290.833 513.629v12.892a5.148 5.148 0 01-4.854 5.138l-.292.008h-21.375a5.144 5.144 0 01-5.138-4.855l-.007-.291v-12.892l15.282 8.006a1.187 1.187 0 001.102 0l15.282-8.006zm-26.521-7.296h21.375a5.148 5.148 0 015.121 4.63L275 519.244l-15.808-8.281a5.145 5.145 0 014.826-4.622l.294-.008h21.375-21.375z" fill="#fff"/><path d="M65.993 600h2.54c2.748 0 4.366-1.708 4.366-4.615s-1.618-4.545-4.367-4.545h-2.539c-.603 0-.958.368-.958.997v7.16c0 .635.355 1.003.958 1.003zm.959-1.587v-5.992h1.352c1.688 0 2.64 1.054 2.64 2.971 0 1.98-.926 3.021-2.64 3.021h-1.352zm10.15 1.733c2.056 0 3.37-1.314 3.37-3.555 0-2.209-1.333-3.542-3.37-3.542-2.038 0-3.371 1.34-3.371 3.542 0 2.235 1.314 3.555 3.37 3.555zm0-1.416c-.915 0-1.492-.768-1.492-2.132 0-1.352.59-2.133 1.492-2.133.9 0 1.485.781 1.485 2.133 0 1.364-.578 2.132-1.485 2.132zm5.255 1.403c.546 0 .927-.33.927-.965v-3.072c0-.882.527-1.492 1.359-1.492.831 0 1.25.508 1.25 1.397v3.167c0 .635.38.965.927.965.54 0 .927-.33.927-.965v-3.554c0-1.593-.851-2.546-2.362-2.546-1.047 0-1.733.464-2.095 1.308h-.038v-.381c0-.584-.368-.939-.926-.939-.559 0-.895.355-.895.933v5.179c0 .635.387.965.926.965zm7.09-5.56c.432 0 .66-.197.756-.629l.514-2.145c.026-.121.045-.241.045-.362 0-.457-.311-.736-.8-.736-.476 0-.787.228-.857.761l-.324 2.324c0 .019-.006.05-.006.101-.026.387.228.686.673.686zm3.359 3.688c0 1.199.628 1.815 1.866 1.815h.063c.781 0 1.314-.279 1.314-.825 0-.432-.247-.622-.704-.673l-.12-.013c-.4-.031-.566-.234-.566-.717v-3.256h.654c.438 0 .71-.273.71-.698 0-.426-.272-.699-.71-.699h-.654v-.755c0-.597-.349-.965-.927-.965-.577 0-.926.368-.926.965v.755h-.356c-.438 0-.717.267-.717.699 0 .431.28.698.717.698h.356v3.669zm7.674 1.872c.546 0 .927-.33.927-.965v-3.053c0-.895.514-1.511 1.39-1.511.844 0 1.276.534 1.276 1.41v3.154c0 .635.387.965.927.965.545 0 .926-.33.926-.965v-3.548c0-1.574-.863-2.552-2.374-2.552-1.034 0-1.777.483-2.139 1.34h-.038v-2.755c0-.597-.336-.952-.908-.952-.571 0-.914.355-.914.952v7.515c0 .635.387.965.927.965zm8.645-.025c.851 0 1.702-.425 2.083-1.149h.038v.349c.038.546.387.825.888.825.527 0 .902-.317.902-.933v-3.878c0-1.371-1.137-2.273-2.882-2.273-1.409 0-2.501.502-2.819 1.314a.992.992 0 00-.095.419c0 .419.324.711.775.711a.934.934 0 00.736-.343c.413-.533.755-.717 1.32-.717.699 0 1.143.368 1.143 1.003v.451l-1.714.101c-1.701.102-2.653.819-2.653 2.057 0 1.225.984 2.063 2.278 2.063zm.61-1.339c-.622 0-1.041-.318-1.041-.826 0-.482.393-.793 1.085-.844l1.435-.089v.495c0 .737-.667 1.264-1.479 1.264zm7.319 1.364c.673 0 1.06-.292 1.295-.945l1.771-4.787c.057-.158.101-.349.101-.52 0-.47-.387-.825-.901-.825-.432 0-.743.235-.87.723l-1.377 4.583h-.038l-1.378-4.564c-.139-.501-.438-.742-.888-.742-.527 0-.927.33-.927.831 0 .191.044.387.101.552l1.771 4.749c.248.66.629.945 1.34.945zm6.95.013c1.314 0 2.368-.495 2.819-1.333a.96.96 0 00.127-.451c0-.425-.324-.679-.724-.679-.241 0-.406.07-.603.273-.501.59-.946.819-1.625.819-.939 0-1.549-.66-1.549-1.67v-.082h3.885c.514 0 .806-.292.806-.806 0-1.847-1.295-3.168-3.224-3.168-2.013 0-3.289 1.39-3.289 3.58 0 2.203 1.251 3.517 3.377 3.517zm-1.536-4.259c.064-.87.654-1.467 1.467-1.467.812 0 1.383.578 1.421 1.467h-2.888zm10.22 4.221c.851 0 1.701-.425 2.082-1.149h.038v.349c.038.546.387.825.889.825.527 0 .901-.317.901-.933v-3.878c0-1.371-1.136-2.273-2.882-2.273-1.409 0-2.501.502-2.818 1.314a.977.977 0 00-.095.419c0 .419.323.711.774.711a.934.934 0 00.736-.343c.413-.533.756-.717 1.321-.717.698 0 1.142.368 1.142 1.003v.451l-1.714.101c-1.701.102-2.653.819-2.653 2.057 0 1.225.984 2.063 2.279 2.063zm.609-1.339c-.622 0-1.041-.318-1.041-.826 0-.482.394-.793 1.086-.844l1.434-.089v.495c0 .737-.666 1.264-1.479 1.264zm5.428 1.364c.546 0 .926-.33.926-.965v-3.072c0-.882.527-1.492 1.359-1.492.831 0 1.25.508 1.25 1.397v3.167c0 .635.381.965.927.965.54 0 .927-.33.927-.965v-3.554c0-1.593-.851-2.546-2.362-2.546-1.047 0-1.732.464-2.094 1.308h-.038v-.381c0-.584-.369-.939-.927-.939-.559 0-.895.355-.895.933v5.179c0 .635.387.965.927.965zm9.908-.012c.508 0 .794-.254.971-.864l.483-1.428h3.307l.482 1.447c.172.597.457.845.997.845.559 0 .959-.375.959-.902 0-.19-.032-.362-.121-.609l-2.514-6.818c-.273-.749-.717-1.079-1.466-1.079-.724 0-1.174.343-1.441 1.086l-2.501 6.811a1.986 1.986 0 00-.127.609c0 .552.375.902.971.902zm1.873-3.777l1.187-3.752h.044l1.213 3.752h-2.444zm9.185 3.802c1.301 0 2.463-.647 2.869-1.574.083-.184.121-.337.121-.483 0-.457-.349-.742-.781-.742-.394 0-.597.158-.844.546-.286.482-.686.799-1.333.799-.927 0-1.505-.761-1.505-2.101 0-1.314.578-2.088 1.517-2.088.591 0 1.003.273 1.34.87.19.336.412.482.78.482.438 0 .794-.267.794-.724 0-.133-.038-.298-.102-.457-.368-.965-1.504-1.625-2.869-1.625-2.044 0-3.339 1.371-3.339 3.549 0 2.202 1.302 3.548 3.352 3.548zm7.084 0c1.301 0 2.463-.647 2.869-1.574.083-.184.121-.337.121-.483 0-.457-.349-.742-.781-.742-.394 0-.597.158-.844.546-.286.482-.686.799-1.333.799-.927 0-1.505-.761-1.505-2.101 0-1.314.578-2.088 1.517-2.088.591 0 1.003.273 1.34.87.19.336.412.482.78.482.438 0 .794-.267.794-.724 0-.133-.038-.298-.102-.457-.368-.965-1.504-1.625-2.869-1.625-2.044 0-3.339 1.371-3.339 3.549 0 2.202 1.302 3.548 3.352 3.548zm7.103 0c2.057 0 3.371-1.314 3.371-3.555 0-2.209-1.333-3.542-3.371-3.542-2.038 0-3.371 1.34-3.371 3.542 0 2.235 1.314 3.555 3.371 3.555zm0-1.416c-.914 0-1.492-.768-1.492-2.132 0-1.352.591-2.133 1.492-2.133s1.485.781 1.485 2.133c0 1.364-.577 2.132-1.485 2.132zm6.747 1.397c1.029 0 1.702-.495 2.038-1.352h.038v.419c0 .616.362.939.895.939s.895-.323.895-.939v-5.167c0-.635-.381-.971-.927-.971-.539 0-.926.336-.926.971v3.066c0 .901-.514 1.491-1.34 1.491-.819 0-1.269-.482-1.269-1.39v-3.167c0-.635-.381-.971-.927-.971-.54 0-.927.336-.927.971v3.555c0 1.586.978 2.545 2.45 2.545zm5.999.006c.546 0 .927-.33.927-.965v-3.072c0-.882.527-1.492 1.358-1.492.832 0 1.251.508 1.251 1.397v3.167c0 .635.381.965.926.965.54 0 .927-.33.927-.965v-3.554c0-1.593-.85-2.546-2.361-2.546-1.048 0-1.733.464-2.095 1.308h-.038v-.381c0-.584-.368-.939-.927-.939-.558 0-.895.355-.895.933v5.179c0 .635.387.965.927.965zm7.059-1.872c0 1.199.628 1.815 1.866 1.815h.063c.781 0 1.314-.279 1.314-.825 0-.432-.247-.622-.704-.673l-.121-.013c-.4-.031-.565-.234-.565-.717v-3.256h.654c.438 0 .711-.273.711-.698 0-.426-.273-.699-.711-.699h-.654v-.755c0-.597-.349-.965-.927-.965-.577 0-.926.368-.926.965v.755h-.356c-.438 0-.717.267-.717.699 0 .431.279.698.717.698h.356v3.669zm9.274-.927c.45 0 .698-.248.793-.673.083-.533.273-.806 1.117-1.295.895-.527 1.359-1.18 1.359-2.139 0-1.479-1.213-2.469-3.016-2.469-1.364 0-2.38.539-2.786 1.377a1.572 1.572 0 00-.191.756c0 .482.311.793.813.793.387 0 .673-.178.831-.584.204-.565.623-.87 1.245-.87.698 0 1.18.432 1.18 1.054 0 .584-.247.902-1.066 1.39-.749.438-1.136.933-1.136 1.682v.089c0 .521.317.889.857.889zm.012 2.825c.578 0 1.041-.438 1.041-.997 0-.558-.463-.996-1.041-.996-.571 0-1.034.438-1.034.996 0 .559.463.997 1.034.997z" fill="#000"/><path d="M222.151 600.152c1.733 0 3.098-.78 3.669-2.05.096-.222.146-.425.146-.641 0-.508-.355-.851-.895-.851-.406 0-.647.172-.844.603-.413.921-1.136 1.359-2.101 1.359-1.466 0-2.387-1.206-2.387-3.161 0-1.93.933-3.142 2.381-3.142.914 0 1.663.469 2.082 1.402.209.445.482.635.914.635.508 0 .844-.324.844-.825 0-.229-.064-.476-.19-.717-.629-1.321-1.956-2.082-3.669-2.082-2.635 0-4.317 1.783-4.317 4.735 0 2.958 1.651 4.735 4.367 4.735zm5.954-.019c.565 0 .927-.349.927-.965v-3.021c0-.806.299-1.282 1.143-1.295.362-.006.628-.089.806-.241.178-.153.267-.375.267-.667 0-.317-.089-.546-.267-.685-.133-.114-.33-.172-.578-.172-.679 0-1.237.502-1.415 1.346h-.038v-.444c0-.591-.356-.933-.876-.933-.533 0-.895.342-.895.933v5.179c0 .616.368.965.926.965zm6.71.013c1.314 0 2.368-.495 2.818-1.333a.948.948 0 00.127-.451c0-.425-.323-.679-.723-.679-.242 0-.407.07-.603.273-.502.59-.946.819-1.625.819-.94 0-1.549-.66-1.549-1.67v-.082h3.885c.514 0 .806-.292.806-.806 0-1.847-1.295-3.168-3.225-3.168-2.012 0-3.288 1.39-3.288 3.58 0 2.203 1.25 3.517 3.377 3.517zm-1.536-4.259c.063-.87.654-1.467 1.466-1.467.813 0 1.384.578 1.422 1.467h-2.888zm7.642 4.221c.851 0 1.702-.425 2.082-1.149h.039v.349c.038.546.387.825.888.825.527 0 .902-.317.902-.933v-3.878c0-1.371-1.137-2.273-2.882-2.273-1.409 0-2.501.502-2.819 1.314a.992.992 0 00-.095.419c0 .419.324.711.775.711a.934.934 0 00.736-.343c.412-.533.755-.717 1.32-.717.698 0 1.143.368 1.143 1.003v.451l-1.714.101c-1.701.102-2.653.819-2.653 2.057 0 1.225.983 2.063 2.278 2.063zm.61-1.339c-.622 0-1.041-.318-1.041-.826 0-.482.393-.793 1.085-.844l1.435-.089v.495c0 .737-.667 1.264-1.479 1.264zm4.995-.508c0 1.199.629 1.815 1.867 1.815h.063c.781 0 1.314-.279 1.314-.825 0-.432-.248-.622-.705-.673l-.12-.013c-.4-.031-.565-.234-.565-.717v-3.256h.654c.438 0 .711-.273.711-.698 0-.426-.273-.699-.711-.699h-.654v-.755c0-.597-.349-.965-.927-.965-.578 0-.927.368-.927.965v.755h-.355c-.438 0-.717.267-.717.699 0 .431.279.698.717.698h.355v3.669zm7.154 1.885c1.314 0 2.368-.495 2.819-1.333a.958.958 0 00.126-.451c0-.425-.323-.679-.723-.679-.241 0-.406.07-.603.273-.502.59-.946.819-1.625.819-.94 0-1.549-.66-1.549-1.67v-.082h3.885c.514 0 .806-.292.806-.806 0-1.847-1.295-3.168-3.225-3.168-2.012 0-3.288 1.39-3.288 3.58 0 2.203 1.251 3.517 3.377 3.517zm-1.536-4.259c.064-.87.654-1.467 1.466-1.467.813 0 1.384.578 1.422 1.467h-2.888zm8.976 4.234c.507 0 .793-.254.971-.864l.482-1.428h3.307l.483 1.447c.171.597.457.845.996.845.559 0 .959-.375.959-.902 0-.19-.032-.362-.121-.609l-2.513-6.818c-.273-.749-.718-1.079-1.467-1.079-.723 0-1.174.343-1.441 1.086l-2.501 6.811a1.986 1.986 0 00-.127.609c0 .552.375.902.972.902zm1.872-3.777l1.187-3.752h.045l1.212 3.752h-2.444zm9.185 3.802c1.302 0 2.463-.647 2.869-1.574.083-.184.121-.337.121-.483 0-.457-.349-.742-.781-.742-.393 0-.596.158-.844.546-.286.482-.686.799-1.333.799-.927 0-1.504-.761-1.504-2.101 0-1.314.577-2.088 1.517-2.088.59 0 1.003.273 1.339.87.19.336.413.482.781.482.438 0 .793-.267.793-.724 0-.133-.038-.298-.101-.457-.368-.965-1.505-1.625-2.869-1.625-2.044 0-3.339 1.371-3.339 3.549 0 2.202 1.301 3.548 3.351 3.548zm7.084 0c1.301 0 2.463-.647 2.869-1.574.083-.184.121-.337.121-.483 0-.457-.349-.742-.781-.742-.393 0-.596.158-.844.546-.286.482-.686.799-1.333.799-.927 0-1.504-.761-1.504-2.101 0-1.314.577-2.088 1.517-2.088.59 0 1.003.273 1.339.87.19.336.413.482.781.482.438 0 .793-.267.793-.724 0-.133-.038-.298-.101-.457-.368-.965-1.505-1.625-2.869-1.625-2.044 0-3.339 1.371-3.339 3.549 0 2.202 1.301 3.548 3.351 3.548zm7.103 0c2.057 0 3.371-1.314 3.371-3.555 0-2.209-1.333-3.542-3.371-3.542-2.037 0-3.37 1.34-3.37 3.542 0 2.235 1.314 3.555 3.37 3.555zm0-1.416c-.914 0-1.491-.768-1.491-2.132 0-1.352.59-2.133 1.491-2.133.902 0 1.486.781 1.486 2.133 0 1.364-.578 2.132-1.486 2.132zm6.748 1.397c1.028 0 1.701-.495 2.037-1.352h.039v.419c0 .616.361.939.895.939.533 0 .895-.323.895-.939v-5.167c0-.635-.381-.971-.927-.971-.54 0-.927.336-.927.971v3.066c0 .901-.514 1.491-1.339 1.491-.819 0-1.27-.482-1.27-1.39v-3.167c0-.635-.381-.971-.927-.971-.539 0-.926.336-.926.971v3.555c0 1.586.977 2.545 2.45 2.545zm5.998.006c.546 0 .927-.33.927-.965v-3.072c0-.882.527-1.492 1.359-1.492.831 0 1.25.508 1.25 1.397v3.167c0 .635.381.965.927.965.539 0 .927-.33.927-.965v-3.554c0-1.593-.851-2.546-2.362-2.546-1.047 0-1.733.464-2.095 1.308h-.038v-.381c0-.584-.368-.939-.926-.939-.559 0-.895.355-.895.933v5.179c0 .635.387.965.926.965zm7.059-1.872c0 1.199.628 1.815 1.866 1.815h.064c.78 0 1.314-.279 1.314-.825 0-.432-.248-.622-.705-.673l-.121-.013c-.399-.031-.565-.234-.565-.717v-3.256h.654c.438 0 .711-.273.711-.698 0-.426-.273-.699-.711-.699h-.654v-.755c0-.597-.349-.965-.926-.965-.578 0-.927.368-.927.965v.755h-.356c-.438 0-.717.267-.717.699 0 .431.279.698.717.698h.356v3.669z" fill="#4285F4"/><path d="M64 574h246v-4H64v4z" fill="#000" mask="url(#prefix__path-11-inside-1_405_128)"/></g><g id="prefix__dark"><rect width="375" height="812" rx="10" fill="#35363A"/><path d="M240.096 267.947c3.784 0 6.892-3.078 6.454-6.836a58.95 58.95 0 00-100.232-34.846 58.948 58.948 0 00-16.868 34.846c-.439 3.758 2.67 6.836 6.454 6.836h15.373c3.784 0 6.774-3.107 7.634-6.792A29.875 29.875 0 01188 238.076a29.871 29.871 0 0129.089 23.079c.86 3.685 3.85 6.792 7.634 6.792h15.373zM240.096 290.053c3.784 0 6.892 3.077 6.454 6.836a58.94 58.94 0 01-16.868 34.846A58.954 58.954 0 01188 349a58.954 58.954 0 01-41.682-17.265 58.938 58.938 0 01-16.868-34.846c-.439-3.759 2.67-6.836 6.454-6.836h15.373c3.784 0 6.774 3.106 7.634 6.791a29.869 29.869 0 0050.211 14.331 29.869 29.869 0 007.967-14.331c.86-3.685 3.85-6.791 7.634-6.791h15.373zM113.412 401.422c4.799 0 8.578-2.162 10.16-5.678.264-.615.405-1.178.405-1.775 0-1.407-.985-2.356-2.479-2.356-1.125 0-1.793.475-2.338 1.67-1.142 2.549-3.146 3.762-5.818 3.762-4.061 0-6.61-3.34-6.61-8.754 0-5.344 2.584-8.701 6.592-8.701 2.531 0 4.606 1.301 5.766 3.885.58 1.23 1.336 1.757 2.531 1.757 1.406 0 2.338-.896 2.338-2.285 0-.633-.176-1.318-.527-1.986-1.741-3.656-5.414-5.766-10.161-5.766-7.294 0-11.953 4.94-11.953 13.114 0 8.191 4.571 13.113 12.094 13.113zm16.611-.053c1.512 0 2.567-.914 2.567-2.672v-8.455c0-2.478 1.424-4.183 3.849-4.183 2.338 0 3.534 1.476 3.534 3.902v8.736c0 1.758 1.072 2.672 2.566 2.672 1.512 0 2.566-.914 2.566-2.672v-9.826c0-4.359-2.39-7.066-6.574-7.066-2.865 0-4.922 1.336-5.924 3.709h-.105v-7.629c0-1.653-.932-2.637-2.514-2.637-1.582 0-2.531.984-2.531 2.637v20.812c0 1.758 1.072 2.672 2.566 2.672zm23.942-.07c2.355 0 4.711-1.178 5.765-3.182h.106v.967c.105 1.512 1.072 2.285 2.461 2.285 1.459 0 2.496-.879 2.496-2.584v-10.74c0-3.797-3.147-6.293-7.981-6.293-3.902 0-6.925 1.389-7.804 3.639a2.716 2.716 0 00-.264 1.16c0 1.16.897 1.969 2.145 1.969.826 0 1.476-.317 2.039-.95 1.142-1.476 2.092-1.986 3.656-1.986 1.934 0 3.164 1.02 3.164 2.777v1.248l-4.746.282c-4.711.281-7.348 2.267-7.348 5.695 0 3.393 2.725 5.713 6.311 5.713zm1.687-3.709c-1.722 0-2.882-.879-2.882-2.285 0-1.336 1.089-2.198 3.005-2.338l3.973-.246v1.371c0 2.039-1.846 3.498-4.096 3.498zm15.03 10.125c1.511 0 2.566-.914 2.566-2.672v-7.207h.106c1.001 2.127 3.111 3.463 5.853 3.463 4.711 0 7.629-3.656 7.629-9.721 0-6.082-2.936-9.721-7.717-9.721-2.724 0-4.816 1.372-5.836 3.586h-.105v-1.019c0-1.74-1.055-2.654-2.532-2.654-1.476 0-2.531.914-2.531 2.636v20.637c0 1.758 1.073 2.672 2.567 2.672zm6.714-10.547c-2.513 0-4.166-2.18-4.166-5.59 0-3.375 1.653-5.607 4.166-5.607 2.567 0 4.184 2.197 4.184 5.607 0 3.428-1.617 5.59-4.184 5.59zm23.836 4.254c4.799 0 8.579-2.162 10.161-5.678.263-.615.404-1.178.404-1.775 0-1.407-.985-2.356-2.479-2.356-1.125 0-1.793.475-2.338 1.67-1.142 2.549-3.146 3.762-5.818 3.762-4.06 0-6.609-3.34-6.609-8.754 0-5.344 2.584-8.701 6.592-8.701 2.531 0 4.605 1.301 5.765 3.885.58 1.23 1.336 1.757 2.531 1.757 1.407 0 2.338-.896 2.338-2.285 0-.633-.175-1.318-.527-1.986-1.74-3.656-5.414-5.766-10.16-5.766-7.295 0-11.953 4.94-11.953 13.114 0 8.191 4.57 13.113 12.093 13.113zm16.612-.053c1.511 0 2.566-.914 2.566-2.672v-8.455c0-2.478 1.424-4.183 3.85-4.183 2.338 0 3.533 1.476 3.533 3.902v8.736c0 1.758 1.072 2.672 2.566 2.672 1.512 0 2.567-.914 2.567-2.672v-9.826c0-4.359-2.391-7.066-6.574-7.066-2.866 0-4.922 1.336-5.924 3.709h-.106v-7.629c0-1.653-.931-2.637-2.513-2.637-1.582 0-2.532.984-2.532 2.637v20.812c0 1.758 1.073 2.672 2.567 2.672zm23.941-.07c2.356 0 4.711-1.178 5.766-3.182h.105v.967c.106 1.512 1.073 2.285 2.461 2.285 1.459 0 2.496-.879 2.496-2.584v-10.74c0-3.797-3.146-6.293-7.98-6.293-3.903 0-6.926 1.389-7.805 3.639a2.716 2.716 0 00-.264 1.16c0 1.16.897 1.969 2.145 1.969.826 0 1.477-.317 2.039-.95 1.143-1.476 2.092-1.986 3.656-1.986 1.934 0 3.164 1.02 3.164 2.777v1.248l-4.746.282c-4.711.281-7.347 2.267-7.347 5.695 0 3.393 2.724 5.713 6.31 5.713zm1.688-3.709c-1.723 0-2.883-.879-2.883-2.285 0-1.336 1.09-2.198 3.006-2.338l3.972-.246v1.371c0 2.039-1.845 3.498-4.095 3.498zm15.029 10.125c1.512 0 2.566-.914 2.566-2.672v-7.207h.106c1.002 2.127 3.111 3.463 5.853 3.463 4.711 0 7.629-3.656 7.629-9.721 0-6.082-2.935-9.721-7.717-9.721-2.724 0-4.816 1.372-5.835 3.586h-.106v-1.019c0-1.74-1.055-2.654-2.531-2.654-1.477 0-2.531.914-2.531 2.636v20.637c0 1.758 1.072 2.672 2.566 2.672zm6.715-10.547c-2.514 0-4.166-2.18-4.166-5.59 0-3.375 1.652-5.607 4.166-5.607 2.566 0 4.183 2.197 4.183 5.607 0 3.428-1.617 5.59-4.183 5.59zM101.12 467h5.827c.73 0 1.204-.413 1.204-1.099 0-.685-.483-1.098-1.204-1.098h-4.5v-9.273c0-.879-.492-1.388-1.327-1.388s-1.327.509-1.327 1.388v10.081c0 .879.492 1.389 1.327 1.389zm12.41.202c2.848 0 4.667-1.819 4.667-4.922 0-3.058-1.845-4.904-4.667-4.904-2.821 0-4.667 1.854-4.667 4.904 0 3.094 1.82 4.922 4.667 4.922zm0-1.96c-1.265 0-2.065-1.063-2.065-2.953 0-1.872.817-2.953 2.065-2.953s2.057 1.081 2.057 2.953c0 1.89-.8 2.953-2.057 2.953zm10.204 5.3c3.033.018 4.808-1.459 4.808-3.911v-7.945c0-.871-.536-1.301-1.274-1.301-.739 0-1.292.43-1.292 1.301v.518h-.053c-.492-1.063-1.521-1.775-2.874-1.775-2.426 0-3.867 1.749-3.867 4.702 0 2.874 1.476 4.667 3.823 4.667 1.362 0 2.461-.677 2.9-1.688h.053v1.503c0 1.178-.826 1.951-2.232 1.943-.853-.009-1.521-.369-2.215-1.029-.29-.263-.554-.369-.888-.369-.642 0-1.046.404-1.046.941 0 .237.053.474.194.712.606.993 2.039 1.722 3.963 1.731zm.141-5.651c-1.274 0-2.065-1.011-2.065-2.734 0-1.705.799-2.777 2.065-2.777 1.283 0 2.109 1.09 2.109 2.786 0 1.705-.826 2.725-2.109 2.725zm7.664-8.482c.773 0 1.371-.589 1.371-1.327 0-.747-.598-1.327-1.371-1.327s-1.371.58-1.371 1.327c0 .738.598 1.327 1.371 1.327zm0 10.776c.791 0 1.283-.501 1.283-1.336v-7.12c0-.834-.492-1.344-1.283-1.344-.8 0-1.283.51-1.283 1.344v7.12c0 .835.483 1.336 1.283 1.336zm4.28 0c.756 0 1.284-.457 1.284-1.336v-4.254c0-1.222.729-2.066 1.88-2.066 1.152 0 1.732.703 1.732 1.934v4.386c0 .879.527 1.336 1.283 1.336.747 0 1.283-.457 1.283-1.336v-4.922c0-2.206-1.177-3.525-3.269-3.525-1.45 0-2.4.642-2.901 1.811h-.052v-.527c0-.809-.51-1.301-1.284-1.301-.773 0-1.239.492-1.239 1.292v7.172c0 .879.536 1.336 1.283 1.336zm13.342-2.593c0 1.661.87 2.513 2.584 2.513h.088c1.081 0 1.819-.386 1.819-1.142 0-.598-.342-.861-.975-.932l-.167-.017c-.554-.044-.782-.326-.782-.993v-4.509h.905c.606 0 .984-.378.984-.967s-.378-.967-.984-.967h-.905v-1.046c0-.826-.484-1.336-1.284-1.336-.799 0-1.283.51-1.283 1.336v1.046h-.492c-.607 0-.993.369-.993.967s.386.967.993.967h.492v5.08zm9.897 2.61c2.847 0 4.667-1.819 4.667-4.922 0-3.058-1.846-4.904-4.667-4.904-2.822 0-4.667 1.854-4.667 4.904 0 3.094 1.819 4.922 4.667 4.922zm0-1.96c-1.266 0-2.066-1.063-2.066-2.953 0-1.872.818-2.953 2.066-2.953 1.248 0 2.056 1.081 2.056 2.953 0 1.89-.8 2.953-2.056 2.953zm11.162 5.247c2.065 0 3.155-.896 4.034-3.331l2.892-7.857c.087-.246.14-.545.14-.756 0-.677-.51-1.16-1.248-1.16-.659 0-1.028.307-1.239 1.019l-2.048 6.539h-.044l-2.048-6.521c-.211-.747-.562-1.037-1.239-1.037-.756 0-1.327.501-1.327 1.195 0 .211.053.492.149.756l3.006 7.928-.132.334c-.307.659-.791.852-1.239.852-.176 0-.273-.009-.448-.009-.58 0-.941.326-.941.844 0 .774.607 1.204 1.732 1.204zm12.234-3.287c2.848 0 4.667-1.819 4.667-4.922 0-3.058-1.846-4.904-4.667-4.904-2.821 0-4.667 1.854-4.667 4.904 0 3.094 1.819 4.922 4.667 4.922zm0-1.96c-1.266 0-2.065-1.063-2.065-2.953 0-1.872.817-2.953 2.065-2.953s2.057 1.081 2.057 2.953c0 1.89-.8 2.953-2.057 2.953zm9.343 1.934c1.424 0 2.355-.686 2.821-1.872h.053v.58c0 .852.501 1.301 1.239 1.301.738 0 1.239-.449 1.239-1.301v-7.155c0-.878-.527-1.344-1.283-1.344-.747 0-1.283.466-1.283 1.344v4.246c0 1.248-.712 2.065-1.854 2.065-1.134 0-1.758-.668-1.758-1.925v-4.386c0-.878-.528-1.344-1.283-1.344-.748 0-1.284.466-1.284 1.344v4.922c0 2.198 1.354 3.525 3.393 3.525zm8.306.009c.782 0 1.283-.484 1.283-1.336v-4.184c0-1.116.413-1.775 1.582-1.793.501-.009.87-.123 1.116-.334.246-.211.369-.518.369-.923 0-.439-.123-.756-.369-.949-.185-.158-.457-.237-.8-.237-.94 0-1.714.694-1.96 1.863h-.053v-.615c0-.818-.492-1.292-1.212-1.292-.739 0-1.24.474-1.24 1.292v7.172c0 .852.51 1.336 1.284 1.336zm9.905-.018c.703 0 1.098-.352 1.345-1.195l.668-1.978h4.579l.668 2.004c.237.826.632 1.169 1.379 1.169.774 0 1.328-.519 1.328-1.248 0-.264-.044-.501-.167-.844l-3.481-9.439c-.378-1.037-.993-1.494-2.03-1.494-1.002 0-1.626.474-1.995 1.503l-3.463 9.43c-.114.325-.176.624-.176.844 0 .765.519 1.248 1.345 1.248zm2.593-5.229l1.643-5.195h.062l1.678 5.195h-3.383zm12.717 5.264c1.802 0 3.411-.896 3.973-2.18.114-.254.167-.465.167-.668 0-.632-.483-1.028-1.081-1.028-.545 0-.826.22-1.169.756-.396.668-.949 1.107-1.846 1.107-1.283 0-2.083-1.054-2.083-2.909 0-1.819.8-2.891 2.101-2.891.817 0 1.389.378 1.854 1.204.264.466.572.668 1.081.668.607 0 1.099-.369 1.099-1.002 0-.185-.053-.413-.141-.633-.509-1.336-2.083-2.25-3.972-2.25-2.83 0-4.623 1.898-4.623 4.913 0 3.05 1.801 4.913 4.64 4.913zm9.809 0c1.802 0 3.41-.896 3.973-2.18.114-.254.167-.465.167-.668 0-.632-.484-1.028-1.081-1.028-.545 0-.827.22-1.169.756-.396.668-.95 1.107-1.846 1.107-1.283 0-2.083-1.054-2.083-2.909 0-1.819.8-2.891 2.1-2.891.818 0 1.389.378 1.855 1.204.264.466.571.668 1.081.668.606 0 1.099-.369 1.099-1.002 0-.185-.053-.413-.141-.633-.51-1.336-2.083-2.25-3.973-2.25-2.83 0-4.623 1.898-4.623 4.913 0 3.05 1.802 4.913 4.641 4.913zm9.835 0c2.848 0 4.667-1.819 4.667-4.922 0-3.058-1.846-4.904-4.667-4.904-2.821 0-4.667 1.854-4.667 4.904 0 3.094 1.819 4.922 4.667 4.922zm0-1.96c-1.266 0-2.066-1.063-2.066-2.953 0-1.872.818-2.953 2.066-2.953 1.248 0 2.057 1.081 2.057 2.953 0 1.89-.8 2.953-2.057 2.953zm9.343 1.934c1.424 0 2.355-.686 2.821-1.872h.053v.58c0 .852.501 1.301 1.239 1.301.738 0 1.239-.449 1.239-1.301v-7.155c0-.878-.527-1.344-1.283-1.344-.747 0-1.283.466-1.283 1.344v4.246c0 1.248-.712 2.065-1.855 2.065-1.133 0-1.757-.668-1.757-1.925v-4.386c0-.878-.528-1.344-1.284-1.344-.747 0-1.283.466-1.283 1.344v4.922c0 2.198 1.354 3.525 3.393 3.525zm8.305.009c.756 0 1.284-.457 1.284-1.336v-4.254c0-1.222.729-2.066 1.88-2.066 1.152 0 1.732.703 1.732 1.934v4.386c0 .879.527 1.336 1.283 1.336.747 0 1.283-.457 1.283-1.336v-4.922c0-2.206-1.177-3.525-3.269-3.525-1.45 0-2.4.642-2.901 1.811h-.052v-.527c0-.809-.51-1.301-1.284-1.301-.773 0-1.239.492-1.239 1.292v7.172c0 .879.536 1.336 1.283 1.336zm9.774-2.593c0 1.661.87 2.513 2.584 2.513h.088c1.081 0 1.819-.386 1.819-1.142 0-.598-.343-.861-.976-.932l-.167-.017c-.553-.044-.782-.326-.782-.993v-4.509h.905c.607 0 .985-.378.985-.967s-.378-.967-.985-.967h-.905v-1.046c0-.826-.483-1.336-1.283-1.336-.8 0-1.283.51-1.283 1.336v1.046h-.492c-.607 0-.994.369-.994.967s.387.967.994.967h.492v5.08z" fill="#fff"/><rect x="66" y="486" width="68" height="66" rx="20" fill="#000"/><path d="M116.983 519.337c0-1.475-.119-2.551-.376-3.668H99.849v6.657h9.836c-.198 1.655-1.269 4.146-3.649 5.82l-.033.223 5.298 4.126.367.036c3.372-3.129 5.315-7.733 5.315-13.194z" fill="#fff"/><path d="M99.849 536.876c4.819 0 8.864-1.594 11.819-4.345l-5.632-4.385c-1.507 1.057-3.53 1.794-6.187 1.794-4.72 0-8.726-3.129-10.154-7.454l-.21.018-5.51 4.285-.071.201c2.935 5.86 8.964 9.886 15.945 9.886z" fill="#fff"/><path d="M89.695 522.486a11.092 11.092 0 01-.595-3.548c0-1.236.218-2.431.575-3.548l-.01-.237-5.579-4.354-.182.087A18.025 18.025 0 0082 518.938c0 2.89.694 5.621 1.904 8.052l5.79-4.504z" fill="#fff"/><path d="M99.849 507.936c3.351 0 5.612 1.455 6.901 2.671l5.037-4.943c-3.093-2.89-7.119-4.664-11.938-4.664-6.981 0-13.01 4.026-15.945 9.886l5.77 4.504c1.449-4.325 5.455-7.454 10.175-7.454z" fill="#fff"/><rect x="154" y="486" width="68" height="66" rx="20" fill="#000"/><path d="M188.472 500a19.484 19.484 0 00-13.769 5.703A19.47 19.47 0 00169 519.472c0 8.606 5.588 15.908 13.319 18.498.973.156 1.285-.448 1.285-.974v-3.29c-5.394 1.168-6.543-2.61-6.543-2.61-.895-2.258-2.161-2.862-2.161-2.862-1.772-1.207.136-1.168.136-1.168 1.947.136 2.979 2.005 2.979 2.005 1.694 2.96 4.557 2.084 5.667 1.616.175-1.265.681-2.122 1.226-2.609-4.322-.487-8.859-2.161-8.859-9.58 0-2.161.74-3.894 2.005-5.277-.194-.487-.876-2.512.195-5.14 0 0 1.636-.526 5.355 1.986a18.32 18.32 0 014.868-.643c1.655 0 3.329.214 4.868.643 3.719-2.512 5.354-1.986 5.354-1.986 1.071 2.628.39 4.653.195 5.14 1.266 1.383 2.006 3.116 2.006 5.277 0 7.438-4.557 9.074-8.899 9.561.701.603 1.344 1.791 1.344 3.602v5.335c0 .526.311 1.149 1.304.974 7.731-2.609 13.299-9.892 13.299-18.498A19.468 19.468 0 00188.472 500z" fill="#fff"/><rect x="242" y="486" width="68" height="66" rx="20" fill="#000"/><path d="M291.833 513.629v12.892a5.147 5.147 0 01-4.854 5.138l-.291.008h-21.375a5.147 5.147 0 01-5.138-4.855l-.008-.291v-12.892l15.282 8.006a1.187 1.187 0 001.102 0l15.282-8.006zm-26.52-7.296h21.375a5.148 5.148 0 015.12 4.63L276 519.244l-15.808-8.281a5.145 5.145 0 014.826-4.622l.295-.008h21.375-21.375zM66.993 600h2.54c2.748 0 4.366-1.708 4.366-4.615s-1.618-4.545-4.367-4.545h-2.539c-.603 0-.958.368-.958.997v7.16c0 .635.355 1.003.958 1.003zm.959-1.587v-5.992h1.352c1.688 0 2.64 1.054 2.64 2.971 0 1.98-.926 3.021-2.64 3.021h-1.352zm10.15 1.733c2.056 0 3.37-1.314 3.37-3.555 0-2.209-1.333-3.542-3.37-3.542-2.038 0-3.371 1.34-3.371 3.542 0 2.235 1.314 3.555 3.37 3.555zm0-1.416c-.915 0-1.492-.768-1.492-2.132 0-1.352.59-2.133 1.492-2.133.9 0 1.485.781 1.485 2.133 0 1.364-.578 2.132-1.485 2.132zm5.255 1.403c.546 0 .927-.33.927-.965v-3.072c0-.882.527-1.492 1.359-1.492.831 0 1.25.508 1.25 1.397v3.167c0 .635.38.965.927.965.54 0 .927-.33.927-.965v-3.554c0-1.593-.851-2.546-2.362-2.546-1.047 0-1.733.464-2.095 1.308h-.038v-.381c0-.584-.368-.939-.926-.939-.559 0-.895.355-.895.933v5.179c0 .635.387.965.926.965zm7.09-5.56c.432 0 .66-.197.756-.629l.514-2.145c.026-.121.045-.241.045-.362 0-.457-.311-.736-.8-.736-.476 0-.787.228-.857.761l-.324 2.324c0 .019-.006.05-.006.101-.026.387.228.686.673.686zm3.359 3.688c0 1.199.628 1.815 1.866 1.815h.063c.781 0 1.314-.279 1.314-.825 0-.432-.247-.622-.704-.673l-.12-.013c-.4-.031-.566-.234-.566-.717v-3.256h.654c.438 0 .71-.273.71-.698 0-.426-.272-.699-.71-.699h-.654v-.755c0-.597-.349-.965-.927-.965-.577 0-.926.368-.926.965v.755h-.356c-.438 0-.717.267-.717.699 0 .431.28.698.717.698h.356v3.669zm7.674 1.872c.546 0 .927-.33.927-.965v-3.053c0-.895.514-1.511 1.39-1.511.844 0 1.276.534 1.276 1.41v3.154c0 .635.387.965.927.965.545 0 .926-.33.926-.965v-3.548c0-1.574-.863-2.552-2.374-2.552-1.034 0-1.777.483-2.139 1.34h-.038v-2.755c0-.597-.336-.952-.908-.952-.571 0-.914.355-.914.952v7.515c0 .635.387.965.927.965zm8.645-.025c.851 0 1.702-.425 2.083-1.149h.038v.349c.038.546.387.825.888.825.527 0 .902-.317.902-.933v-3.878c0-1.371-1.137-2.273-2.882-2.273-1.409 0-2.501.502-2.819 1.314a.992.992 0 00-.095.419c0 .419.324.711.775.711a.934.934 0 00.736-.343c.413-.533.755-.717 1.32-.717.699 0 1.143.368 1.143 1.003v.451l-1.714.101c-1.701.102-2.653.819-2.653 2.057 0 1.225.984 2.063 2.278 2.063zm.61-1.339c-.622 0-1.041-.318-1.041-.826 0-.482.393-.793 1.085-.844l1.435-.089v.495c0 .737-.667 1.264-1.479 1.264zm7.319 1.364c.673 0 1.06-.292 1.295-.945l1.771-4.787c.057-.158.101-.349.101-.52 0-.47-.387-.825-.901-.825-.432 0-.743.235-.87.723l-1.377 4.583h-.038l-1.378-4.564c-.139-.501-.438-.742-.888-.742-.527 0-.927.33-.927.831 0 .191.044.387.101.552l1.771 4.749c.248.66.629.945 1.34.945zm6.95.013c1.314 0 2.368-.495 2.819-1.333a.96.96 0 00.127-.451c0-.425-.324-.679-.724-.679-.241 0-.406.07-.603.273-.501.59-.946.819-1.625.819-.939 0-1.549-.66-1.549-1.67v-.082h3.885c.514 0 .806-.292.806-.806 0-1.847-1.295-3.168-3.224-3.168-2.013 0-3.289 1.39-3.289 3.58 0 2.203 1.251 3.517 3.377 3.517zm-1.536-4.259c.064-.87.654-1.467 1.467-1.467.812 0 1.383.578 1.421 1.467h-2.888zm10.22 4.221c.851 0 1.701-.425 2.082-1.149h.038v.349c.038.546.387.825.889.825.527 0 .901-.317.901-.933v-3.878c0-1.371-1.136-2.273-2.882-2.273-1.409 0-2.501.502-2.818 1.314a.977.977 0 00-.095.419c0 .419.323.711.774.711a.934.934 0 00.736-.343c.413-.533.756-.717 1.321-.717.698 0 1.142.368 1.142 1.003v.451l-1.714.101c-1.701.102-2.653.819-2.653 2.057 0 1.225.984 2.063 2.279 2.063zm.609-1.339c-.622 0-1.041-.318-1.041-.826 0-.482.394-.793 1.086-.844l1.434-.089v.495c0 .737-.666 1.264-1.479 1.264zm5.428 1.364c.546 0 .926-.33.926-.965v-3.072c0-.882.527-1.492 1.359-1.492.831 0 1.25.508 1.25 1.397v3.167c0 .635.381.965.927.965.54 0 .927-.33.927-.965v-3.554c0-1.593-.851-2.546-2.362-2.546-1.047 0-1.732.464-2.094 1.308h-.038v-.381c0-.584-.369-.939-.927-.939-.559 0-.895.355-.895.933v5.179c0 .635.387.965.927.965zm9.908-.012c.508 0 .794-.254.971-.864l.483-1.428h3.307l.482 1.447c.172.597.457.845.997.845.559 0 .959-.375.959-.902 0-.19-.032-.362-.121-.609l-2.514-6.818c-.273-.749-.717-1.079-1.466-1.079-.724 0-1.174.343-1.441 1.086l-2.501 6.811a1.986 1.986 0 00-.127.609c0 .552.375.902.971.902zm1.873-3.777l1.187-3.752h.044l1.213 3.752h-2.444zm9.185 3.802c1.301 0 2.463-.647 2.869-1.574.083-.184.121-.337.121-.483 0-.457-.349-.742-.781-.742-.394 0-.597.158-.844.546-.286.482-.686.799-1.333.799-.927 0-1.505-.761-1.505-2.101 0-1.314.578-2.088 1.517-2.088.591 0 1.003.273 1.34.87.19.336.412.482.78.482.438 0 .794-.267.794-.724 0-.133-.038-.298-.102-.457-.368-.965-1.504-1.625-2.869-1.625-2.044 0-3.339 1.371-3.339 3.549 0 2.202 1.302 3.548 3.352 3.548zm7.084 0c1.301 0 2.463-.647 2.869-1.574.083-.184.121-.337.121-.483 0-.457-.349-.742-.781-.742-.394 0-.597.158-.844.546-.286.482-.686.799-1.333.799-.927 0-1.505-.761-1.505-2.101 0-1.314.578-2.088 1.517-2.088.591 0 1.003.273 1.34.87.19.336.412.482.78.482.438 0 .794-.267.794-.724 0-.133-.038-.298-.102-.457-.368-.965-1.504-1.625-2.869-1.625-2.044 0-3.339 1.371-3.339 3.549 0 2.202 1.302 3.548 3.352 3.548zm7.103 0c2.057 0 3.371-1.314 3.371-3.555 0-2.209-1.333-3.542-3.371-3.542-2.038 0-3.371 1.34-3.371 3.542 0 2.235 1.314 3.555 3.371 3.555zm0-1.416c-.914 0-1.492-.768-1.492-2.132 0-1.352.591-2.133 1.492-2.133s1.485.781 1.485 2.133c0 1.364-.577 2.132-1.485 2.132zm6.747 1.397c1.029 0 1.702-.495 2.038-1.352h.038v.419c0 .616.362.939.895.939s.895-.323.895-.939v-5.167c0-.635-.381-.971-.927-.971-.539 0-.926.336-.926.971v3.066c0 .901-.514 1.491-1.34 1.491-.819 0-1.269-.482-1.269-1.39v-3.167c0-.635-.381-.971-.927-.971-.54 0-.927.336-.927.971v3.555c0 1.586.978 2.545 2.45 2.545zm5.999.006c.546 0 .927-.33.927-.965v-3.072c0-.882.527-1.492 1.358-1.492.832 0 1.251.508 1.251 1.397v3.167c0 .635.381.965.926.965.54 0 .927-.33.927-.965v-3.554c0-1.593-.85-2.546-2.361-2.546-1.048 0-1.733.464-2.095 1.308h-.038v-.381c0-.584-.368-.939-.927-.939-.558 0-.895.355-.895.933v5.179c0 .635.387.965.927.965zm7.059-1.872c0 1.199.628 1.815 1.866 1.815h.063c.781 0 1.314-.279 1.314-.825 0-.432-.247-.622-.704-.673l-.121-.013c-.4-.031-.565-.234-.565-.717v-3.256h.654c.438 0 .711-.273.711-.698 0-.426-.273-.699-.711-.699h-.654v-.755c0-.597-.349-.965-.927-.965-.577 0-.926.368-.926.965v.755h-.356c-.438 0-.717.267-.717.699 0 .431.279.698.717.698h.356v3.669zm9.274-.927c.45 0 .698-.248.793-.673.083-.533.273-.806 1.117-1.295.895-.527 1.359-1.18 1.359-2.139 0-1.479-1.213-2.469-3.016-2.469-1.364 0-2.38.539-2.786 1.377a1.572 1.572 0 00-.191.756c0 .482.311.793.813.793.387 0 .673-.178.831-.584.204-.565.623-.87 1.245-.87.698 0 1.18.432 1.18 1.054 0 .584-.247.902-1.066 1.39-.749.438-1.136.933-1.136 1.682v.089c0 .521.317.889.857.889zm.012 2.825c.578 0 1.041-.438 1.041-.997 0-.558-.463-.996-1.041-.996-.571 0-1.034.438-1.034.996 0 .559.463.997 1.034.997z" fill="#fff"/><path d="M223.151 600.152c1.733 0 3.098-.78 3.669-2.05.096-.222.146-.425.146-.641 0-.508-.355-.851-.895-.851-.406 0-.647.172-.844.603-.413.921-1.136 1.359-2.101 1.359-1.466 0-2.387-1.206-2.387-3.161 0-1.93.933-3.142 2.381-3.142.914 0 1.663.469 2.082 1.402.209.445.482.635.914.635.508 0 .844-.324.844-.825 0-.229-.064-.476-.19-.717-.629-1.321-1.956-2.082-3.669-2.082-2.635 0-4.317 1.783-4.317 4.735 0 2.958 1.651 4.735 4.367 4.735zm5.954-.019c.565 0 .927-.349.927-.965v-3.021c0-.806.299-1.282 1.143-1.295.362-.006.628-.089.806-.241.178-.153.267-.375.267-.667 0-.317-.089-.546-.267-.685-.133-.114-.33-.172-.578-.172-.679 0-1.237.502-1.415 1.346h-.038v-.444c0-.591-.356-.933-.876-.933-.533 0-.895.342-.895.933v5.179c0 .616.368.965.926.965zm6.71.013c1.314 0 2.368-.495 2.818-1.333a.948.948 0 00.127-.451c0-.425-.323-.679-.723-.679-.242 0-.407.07-.603.273-.502.59-.946.819-1.625.819-.94 0-1.549-.66-1.549-1.67v-.082h3.885c.514 0 .806-.292.806-.806 0-1.847-1.295-3.168-3.225-3.168-2.012 0-3.288 1.39-3.288 3.58 0 2.203 1.25 3.517 3.377 3.517zm-1.536-4.259c.063-.87.654-1.467 1.466-1.467.813 0 1.384.578 1.422 1.467h-2.888zm7.642 4.221c.851 0 1.702-.425 2.082-1.149h.039v.349c.038.546.387.825.888.825.527 0 .902-.317.902-.933v-3.878c0-1.371-1.137-2.273-2.882-2.273-1.409 0-2.501.502-2.819 1.314a.992.992 0 00-.095.419c0 .419.324.711.775.711a.934.934 0 00.736-.343c.412-.533.755-.717 1.32-.717.698 0 1.143.368 1.143 1.003v.451l-1.714.101c-1.701.102-2.653.819-2.653 2.057 0 1.225.983 2.063 2.278 2.063zm.61-1.339c-.622 0-1.041-.318-1.041-.826 0-.482.393-.793 1.085-.844l1.435-.089v.495c0 .737-.667 1.264-1.479 1.264zm4.995-.508c0 1.199.629 1.815 1.867 1.815h.063c.781 0 1.314-.279 1.314-.825 0-.432-.248-.622-.705-.673l-.12-.013c-.4-.031-.565-.234-.565-.717v-3.256h.654c.438 0 .711-.273.711-.698 0-.426-.273-.699-.711-.699h-.654v-.755c0-.597-.349-.965-.927-.965-.578 0-.927.368-.927.965v.755h-.355c-.438 0-.717.267-.717.699 0 .431.279.698.717.698h.355v3.669zm7.154 1.885c1.314 0 2.368-.495 2.819-1.333a.958.958 0 00.126-.451c0-.425-.323-.679-.723-.679-.241 0-.406.07-.603.273-.502.59-.946.819-1.625.819-.94 0-1.549-.66-1.549-1.67v-.082h3.885c.514 0 .806-.292.806-.806 0-1.847-1.295-3.168-3.225-3.168-2.012 0-3.288 1.39-3.288 3.58 0 2.203 1.251 3.517 3.377 3.517zm-1.536-4.259c.064-.87.654-1.467 1.466-1.467.813 0 1.384.578 1.422 1.467h-2.888zm8.976 4.234c.507 0 .793-.254.971-.864l.482-1.428h3.307l.483 1.447c.171.597.457.845.996.845.559 0 .959-.375.959-.902 0-.19-.032-.362-.121-.609l-2.513-6.818c-.273-.749-.718-1.079-1.467-1.079-.723 0-1.174.343-1.441 1.086l-2.501 6.811a1.986 1.986 0 00-.127.609c0 .552.375.902.972.902zm1.872-3.777l1.187-3.752h.045l1.212 3.752h-2.444zm9.185 3.802c1.302 0 2.463-.647 2.869-1.574.083-.184.121-.337.121-.483 0-.457-.349-.742-.781-.742-.393 0-.596.158-.844.546-.286.482-.686.799-1.333.799-.927 0-1.504-.761-1.504-2.101 0-1.314.577-2.088 1.517-2.088.59 0 1.003.273 1.339.87.19.336.413.482.781.482.438 0 .793-.267.793-.724 0-.133-.038-.298-.101-.457-.368-.965-1.505-1.625-2.869-1.625-2.044 0-3.339 1.371-3.339 3.549 0 2.202 1.301 3.548 3.351 3.548zm7.084 0c1.301 0 2.463-.647 2.869-1.574.083-.184.121-.337.121-.483 0-.457-.349-.742-.781-.742-.393 0-.596.158-.844.546-.286.482-.686.799-1.333.799-.927 0-1.504-.761-1.504-2.101 0-1.314.577-2.088 1.517-2.088.59 0 1.003.273 1.339.87.19.336.413.482.781.482.438 0 .793-.267.793-.724 0-.133-.038-.298-.101-.457-.368-.965-1.505-1.625-2.869-1.625-2.044 0-3.339 1.371-3.339 3.549 0 2.202 1.301 3.548 3.351 3.548zm7.103 0c2.057 0 3.371-1.314 3.371-3.555 0-2.209-1.333-3.542-3.371-3.542-2.037 0-3.37 1.34-3.37 3.542 0 2.235 1.314 3.555 3.37 3.555zm0-1.416c-.914 0-1.491-.768-1.491-2.132 0-1.352.59-2.133 1.491-2.133.902 0 1.486.781 1.486 2.133 0 1.364-.578 2.132-1.486 2.132zm6.748 1.397c1.028 0 1.701-.495 2.037-1.352h.039v.419c0 .616.361.939.895.939.533 0 .895-.323.895-.939v-5.167c0-.635-.381-.971-.927-.971-.54 0-.927.336-.927.971v3.066c0 .901-.514 1.491-1.339 1.491-.819 0-1.27-.482-1.27-1.39v-3.167c0-.635-.381-.971-.927-.971-.539 0-.926.336-.926.971v3.555c0 1.586.977 2.545 2.45 2.545zm5.998.006c.546 0 .927-.33.927-.965v-3.072c0-.882.527-1.492 1.359-1.492.831 0 1.25.508 1.25 1.397v3.167c0 .635.381.965.927.965.539 0 .927-.33.927-.965v-3.554c0-1.593-.851-2.546-2.362-2.546-1.047 0-1.733.464-2.095 1.308h-.038v-.381c0-.584-.368-.939-.926-.939-.559 0-.895.355-.895.933v5.179c0 .635.387.965.926.965zm7.059-1.872c0 1.199.628 1.815 1.866 1.815h.064c.78 0 1.314-.279 1.314-.825 0-.432-.248-.622-.705-.673l-.121-.013c-.399-.031-.565-.234-.565-.717v-3.256h.654c.438 0 .711-.273.711-.698 0-.426-.273-.699-.711-.699h-.654v-.755c0-.597-.349-.965-.926-.965-.578 0-.927.368-.927.965v.755h-.356c-.438 0-.717.267-.717.699 0 .431.279.698.717.698h.356v3.669z" fill="#4285F4"/><path d="M65 574h246v-4H65v4z" fill="#fff" mask="url(#prefix__path-11-inside-1_411_797)"/></g></svg>