<svg width="375" height="812" viewBox="0 0 375 812" fill="none" xmlns="http://www.w3.org/2000/svg">
    <style>
        @media (prefers-color-scheme: dark) {
            #light {
                display: none;
            }
        }

        @media (prefers-color-scheme: light) {
            #dark {
                display: none;
            }

        }
    </style>
    <g id="light">
        <rect width="375" height="812" fill="white" />
        <path
            d="M244.593 274.947C245.698 274.947 246.597 274.051 246.56 272.947C246.057 258.04 239.951 243.848 229.432 233.265C218.443 222.211 203.54 216 188 216C172.46 216 157.557 222.211 146.568 233.265C136.049 243.848 129.943 258.04 129.44 272.947C129.403 274.051 130.302 274.947 131.407 274.947L156.308 274.947C157.413 274.947 158.301 274.051 158.375 272.949C158.854 265.756 161.907 258.954 167.005 253.825C172.573 248.223 180.125 245.076 188 245.076C195.875 245.076 203.427 248.223 208.995 253.825C214.093 258.954 217.146 265.756 217.625 272.949C217.699 274.051 218.587 274.947 219.692 274.947H244.593Z"
            fill="black" />
        <path
            d="M244.593 297.053C245.698 297.053 246.597 297.948 246.56 299.052C246.322 306.111 244.824 313.075 242.133 319.611C239.189 326.763 234.873 333.261 229.432 338.735C223.991 344.208 217.532 348.55 210.423 351.513C203.314 354.475 195.695 356 188 356C180.306 356 172.686 354.475 165.577 351.513C158.469 348.55 152.009 344.208 146.568 338.735C141.127 333.261 136.811 326.763 133.867 319.611C131.176 313.075 129.679 306.111 129.44 299.052C129.403 297.948 130.302 297.053 131.407 297.053H156.308C157.413 297.053 158.301 297.949 158.375 299.051C158.591 302.29 159.33 305.476 160.569 308.484C162.061 312.108 164.248 315.401 167.005 318.175C169.762 320.948 173.035 323.149 176.638 324.65C180.24 326.151 184.101 326.924 188 326.924C191.899 326.924 195.76 326.151 199.363 324.65C202.965 323.149 206.238 320.948 208.995 318.175C211.752 315.401 213.94 312.108 215.432 308.484C216.67 305.476 217.409 302.29 217.625 299.051C217.699 297.949 218.587 297.053 219.692 297.053H244.593Z"
            fill="black" />
        <path
            d="M113.412 408.422C118.211 408.422 121.99 406.26 123.572 402.744C123.836 402.129 123.977 401.566 123.977 400.969C123.977 399.562 122.992 398.613 121.498 398.613C120.373 398.613 119.705 399.088 119.16 400.283C118.018 402.832 116.014 404.045 113.342 404.045C109.281 404.045 106.732 400.705 106.732 395.291C106.732 389.947 109.316 386.59 113.324 386.59C115.855 386.59 117.93 387.891 119.09 390.475C119.67 391.705 120.426 392.232 121.621 392.232C123.027 392.232 123.959 391.336 123.959 389.947C123.959 389.314 123.783 388.629 123.432 387.961C121.691 384.305 118.018 382.195 113.271 382.195C105.977 382.195 101.318 387.135 101.318 395.309C101.318 403.5 105.889 408.422 113.412 408.422ZM130.023 408.369C131.535 408.369 132.59 407.455 132.59 405.697V397.242C132.59 394.764 134.014 393.059 136.439 393.059C138.777 393.059 139.973 394.535 139.973 396.961V405.697C139.973 407.455 141.045 408.369 142.539 408.369C144.051 408.369 145.105 407.455 145.105 405.697V395.871C145.105 391.512 142.715 388.805 138.531 388.805C135.666 388.805 133.609 390.141 132.607 392.514H132.502V384.885C132.502 383.232 131.57 382.248 129.988 382.248C128.406 382.248 127.457 383.232 127.457 384.885V405.697C127.457 407.455 128.529 408.369 130.023 408.369ZM153.965 408.299C156.32 408.299 158.676 407.121 159.73 405.117H159.836V406.084C159.941 407.596 160.908 408.369 162.297 408.369C163.756 408.369 164.793 407.49 164.793 405.785V395.045C164.793 391.248 161.646 388.752 156.812 388.752C152.91 388.752 149.887 390.141 149.008 392.391C148.832 392.777 148.744 393.146 148.744 393.551C148.744 394.711 149.641 395.52 150.889 395.52C151.715 395.52 152.365 395.203 152.928 394.57C154.07 393.094 155.02 392.584 156.584 392.584C158.518 392.584 159.748 393.604 159.748 395.361V396.609L155.002 396.891C150.291 397.172 147.654 399.158 147.654 402.586C147.654 405.979 150.379 408.299 153.965 408.299ZM155.652 404.59C153.93 404.59 152.77 403.711 152.77 402.305C152.77 400.969 153.859 400.107 155.775 399.967L159.748 399.721V401.092C159.748 403.131 157.902 404.59 155.652 404.59ZM170.682 414.715C172.193 414.715 173.248 413.801 173.248 412.043V404.836H173.354C174.355 406.963 176.465 408.299 179.207 408.299C183.918 408.299 186.836 404.643 186.836 398.578C186.836 392.496 183.9 388.857 179.119 388.857C176.395 388.857 174.303 390.229 173.283 392.443H173.178V391.424C173.178 389.684 172.123 388.77 170.646 388.77C169.17 388.77 168.115 389.684 168.115 391.406V412.043C168.115 413.801 169.188 414.715 170.682 414.715ZM177.396 404.168C174.883 404.168 173.23 401.988 173.23 398.578C173.23 395.203 174.883 392.971 177.396 392.971C179.963 392.971 181.58 395.168 181.58 398.578C181.58 402.006 179.963 404.168 177.396 404.168ZM201.232 408.422C206.031 408.422 209.811 406.26 211.393 402.744C211.656 402.129 211.797 401.566 211.797 400.969C211.797 399.562 210.812 398.613 209.318 398.613C208.193 398.613 207.525 399.088 206.98 400.283C205.838 402.832 203.834 404.045 201.162 404.045C197.102 404.045 194.553 400.705 194.553 395.291C194.553 389.947 197.137 386.59 201.145 386.59C203.676 386.59 205.75 387.891 206.91 390.475C207.49 391.705 208.246 392.232 209.441 392.232C210.848 392.232 211.779 391.336 211.779 389.947C211.779 389.314 211.604 388.629 211.252 387.961C209.512 384.305 205.838 382.195 201.092 382.195C193.797 382.195 189.139 387.135 189.139 395.309C189.139 403.5 193.709 408.422 201.232 408.422ZM217.844 408.369C219.355 408.369 220.41 407.455 220.41 405.697V397.242C220.41 394.764 221.834 393.059 224.26 393.059C226.598 393.059 227.793 394.535 227.793 396.961V405.697C227.793 407.455 228.865 408.369 230.359 408.369C231.871 408.369 232.926 407.455 232.926 405.697V395.871C232.926 391.512 230.535 388.805 226.352 388.805C223.486 388.805 221.43 390.141 220.428 392.514H220.322V384.885C220.322 383.232 219.391 382.248 217.809 382.248C216.227 382.248 215.277 383.232 215.277 384.885V405.697C215.277 407.455 216.35 408.369 217.844 408.369ZM241.785 408.299C244.141 408.299 246.496 407.121 247.551 405.117H247.656V406.084C247.762 407.596 248.729 408.369 250.117 408.369C251.576 408.369 252.613 407.49 252.613 405.785V395.045C252.613 391.248 249.467 388.752 244.633 388.752C240.73 388.752 237.707 390.141 236.828 392.391C236.652 392.777 236.564 393.146 236.564 393.551C236.564 394.711 237.461 395.52 238.709 395.52C239.535 395.52 240.186 395.203 240.748 394.57C241.891 393.094 242.84 392.584 244.404 392.584C246.338 392.584 247.568 393.604 247.568 395.361V396.609L242.822 396.891C238.111 397.172 235.475 399.158 235.475 402.586C235.475 405.979 238.199 408.299 241.785 408.299ZM243.473 404.59C241.75 404.59 240.59 403.711 240.59 402.305C240.59 400.969 241.68 400.107 243.596 399.967L247.568 399.721V401.092C247.568 403.131 245.723 404.59 243.473 404.59ZM258.502 414.715C260.014 414.715 261.068 413.801 261.068 412.043V404.836H261.174C262.176 406.963 264.285 408.299 267.027 408.299C271.738 408.299 274.656 404.643 274.656 398.578C274.656 392.496 271.721 388.857 266.939 388.857C264.215 388.857 262.123 390.229 261.104 392.443H260.998V391.424C260.998 389.684 259.943 388.77 258.467 388.77C256.99 388.77 255.936 389.684 255.936 391.406V412.043C255.936 413.801 257.008 414.715 258.502 414.715ZM265.217 404.168C262.703 404.168 261.051 401.988 261.051 398.578C261.051 395.203 262.703 392.971 265.217 392.971C267.783 392.971 269.4 395.168 269.4 398.578C269.4 402.006 267.783 404.168 265.217 404.168Z"
            fill="black" />
        <rect x="64" y="529" width="68" height="66" rx="9" fill="black" />
        <path
            d="M114.983 562.337C114.983 560.862 114.864 559.786 114.607 558.669H97.8486V565.326H107.685C107.487 566.981 106.416 569.472 104.036 571.146L104.003 571.369L109.301 575.494L109.668 575.531C113.04 572.402 114.983 567.798 114.983 562.337Z"
            fill="#4285F4" />
        <path
            d="M97.8486 579.876C102.668 579.876 106.713 578.282 109.668 575.531L104.036 571.146C102.529 572.203 100.506 572.94 97.8486 572.94C93.1287 572.94 89.1227 569.811 87.6947 565.486L87.4854 565.504L81.9759 569.789L81.9038 569.99C84.8389 575.85 90.8678 579.876 97.8486 579.876Z"
            fill="#34A853" />
        <path
            d="M87.6947 565.486C87.3179 564.37 87.0998 563.174 87.0998 561.938C87.0998 560.702 87.3179 559.507 87.6748 558.39L87.6649 558.153L82.0863 553.799L81.9038 553.886C80.6941 556.317 80 559.048 80 561.938C80 564.828 80.6941 567.559 81.9038 569.99L87.6947 565.486Z"
            fill="#FBBC05" />
        <path
            d="M97.8486 550.936C101.2 550.936 103.461 552.391 104.75 553.607L109.787 548.664C106.694 545.774 102.668 544 97.8486 544C90.8678 544 84.8389 548.026 81.9038 553.886L87.6748 558.39C89.1227 554.065 93.1287 550.936 97.8486 550.936Z"
            fill="#EB4335" />
        <rect x="152" y="529" width="68" height="66" rx="9" fill="black" />
        <path fill-rule="evenodd" clip-rule="evenodd"
            d="M170 563.101C170 572.05 176.5 579.491 185 581V568H180.5V563H185V559C185 554.5 187.899 552 192 552C193.299 552 194.701 552.2 196 552.399V557H193.7C191.5 557 191 558.099 191 559.5V563H195.8L195 568H191V581C199.5 579.491 206 572.051 206 563.101C206 553.145 197.9 545 188 545C178.1 545 170 553.145 170 563.101Z"
            fill="#4285F4" />
        <rect x="240" y="529" width="68" height="66" rx="9" fill="black" />
        <path
            d="M289.833 556.629V569.521C289.833 570.835 289.331 572.1 288.428 573.055C287.525 574.011 286.291 574.584 284.979 574.659L284.687 574.667H263.312C261.998 574.667 260.733 574.164 259.778 573.261C258.823 572.359 258.249 571.124 258.175 569.812L258.167 569.521V556.629L273.449 564.635C273.619 564.724 273.808 564.77 274 564.77C274.192 564.77 274.381 564.724 274.551 564.635L289.833 556.629ZM263.312 549.333H284.687C285.963 549.333 287.193 549.807 288.139 550.662C289.085 551.518 289.68 552.694 289.808 553.963L274 562.244L258.192 553.963C258.315 552.744 258.868 551.609 259.753 550.762C260.637 549.915 261.795 549.411 263.018 549.341L263.312 549.333H284.687H263.312Z"
            fill="white" />
        <line x1="84.9868" y1="633.5" x2="307.013" y2="633.5" stroke="black" stroke-linecap="round" />
        <path
            d="M77.7241 661H80.2632C83.0117 661 84.6304 659.292 84.6304 656.385C84.6304 653.478 83.0117 651.84 80.2632 651.84H77.7241C77.1211 651.84 76.7656 652.208 76.7656 652.837V659.997C76.7656 660.632 77.1211 661 77.7241 661ZM78.6826 659.413V653.421H80.0347C81.7231 653.421 82.6753 654.475 82.6753 656.392C82.6753 658.372 81.7485 659.413 80.0347 659.413H78.6826ZM88.8325 661.146C90.8892 661.146 92.2031 659.832 92.2031 657.591C92.2031 655.382 90.8701 654.049 88.8325 654.049C86.7949 654.049 85.4619 655.389 85.4619 657.591C85.4619 659.826 86.7759 661.146 88.8325 661.146ZM88.8325 659.73C87.9185 659.73 87.3408 658.962 87.3408 657.598C87.3408 656.246 87.9312 655.465 88.8325 655.465C89.7339 655.465 90.3179 656.246 90.3179 657.598C90.3179 658.962 89.7402 659.73 88.8325 659.73ZM94.0884 661.133C94.6343 661.133 95.0151 660.803 95.0151 660.168V657.096C95.0151 656.214 95.542 655.604 96.3735 655.604C97.2051 655.604 97.624 656.112 97.624 657.001V660.168C97.624 660.803 98.0049 661.133 98.5508 661.133C99.0903 661.133 99.4775 660.803 99.4775 660.168V656.614C99.4775 655.021 98.627 654.068 97.1162 654.068C96.0688 654.068 95.3833 654.532 95.0215 655.376H94.9834V654.995C94.9834 654.411 94.6152 654.056 94.0566 654.056C93.498 654.056 93.1616 654.411 93.1616 654.989V660.168C93.1616 660.803 93.5488 661.133 94.0884 661.133ZM101.179 655.573C101.61 655.573 101.839 655.376 101.934 654.944L102.448 652.799C102.474 652.678 102.493 652.558 102.493 652.437C102.493 651.98 102.182 651.701 101.693 651.701C101.217 651.701 100.906 651.929 100.836 652.462L100.512 654.786C100.512 654.805 100.506 654.836 100.506 654.887C100.48 655.274 100.734 655.573 101.179 655.573ZM104.537 659.261C104.537 660.46 105.165 661.076 106.403 661.076H106.466C107.247 661.076 107.78 660.797 107.78 660.251C107.78 659.819 107.533 659.629 107.076 659.578L106.955 659.565C106.555 659.534 106.39 659.331 106.39 658.848V655.592H107.044C107.482 655.592 107.755 655.319 107.755 654.894C107.755 654.468 107.482 654.195 107.044 654.195H106.39V653.44C106.39 652.843 106.041 652.475 105.463 652.475C104.886 652.475 104.537 652.843 104.537 653.44V654.195H104.181C103.743 654.195 103.464 654.462 103.464 654.894C103.464 655.325 103.743 655.592 104.181 655.592H104.537V659.261ZM112.211 661.133C112.757 661.133 113.138 660.803 113.138 660.168V657.115C113.138 656.22 113.652 655.604 114.528 655.604C115.372 655.604 115.804 656.138 115.804 657.014V660.168C115.804 660.803 116.191 661.133 116.73 661.133C117.276 661.133 117.657 660.803 117.657 660.168V656.62C117.657 655.046 116.794 654.068 115.283 654.068C114.249 654.068 113.506 654.551 113.144 655.408H113.106V652.653C113.106 652.056 112.77 651.701 112.198 651.701C111.627 651.701 111.284 652.056 111.284 652.653V660.168C111.284 660.803 111.671 661.133 112.211 661.133ZM120.856 661.108C121.707 661.108 122.558 660.683 122.938 659.959H122.977V660.308C123.015 660.854 123.364 661.133 123.865 661.133C124.392 661.133 124.767 660.816 124.767 660.2V656.322C124.767 654.951 123.63 654.049 121.885 654.049C120.476 654.049 119.384 654.551 119.066 655.363C119.003 655.503 118.971 655.636 118.971 655.782C118.971 656.201 119.295 656.493 119.746 656.493C120.044 656.493 120.279 656.379 120.482 656.15C120.895 655.617 121.237 655.433 121.802 655.433C122.5 655.433 122.945 655.801 122.945 656.436V656.887L121.231 656.988C119.53 657.09 118.578 657.807 118.578 659.045C118.578 660.27 119.562 661.108 120.856 661.108ZM121.466 659.769C120.844 659.769 120.425 659.451 120.425 658.943C120.425 658.461 120.818 658.15 121.51 658.099L122.945 658.01V658.505C122.945 659.242 122.278 659.769 121.466 659.769ZM128.785 661.133C129.458 661.133 129.845 660.841 130.08 660.188L131.851 655.401C131.908 655.243 131.952 655.052 131.952 654.881C131.952 654.411 131.565 654.056 131.051 654.056C130.619 654.056 130.308 654.291 130.181 654.779L128.804 659.362H128.766L127.388 654.798C127.249 654.297 126.95 654.056 126.5 654.056C125.973 654.056 125.573 654.386 125.573 654.887C125.573 655.078 125.617 655.274 125.674 655.439L127.445 660.188C127.693 660.848 128.074 661.133 128.785 661.133ZM135.735 661.146C137.049 661.146 138.103 660.651 138.554 659.813C138.636 659.661 138.681 659.508 138.681 659.362C138.681 658.937 138.357 658.683 137.957 658.683C137.716 658.683 137.551 658.753 137.354 658.956C136.853 659.546 136.408 659.775 135.729 659.775C134.79 659.775 134.18 659.115 134.18 658.105V658.023H138.065C138.579 658.023 138.871 657.731 138.871 657.217C138.871 655.37 137.576 654.049 135.646 654.049C133.634 654.049 132.358 655.439 132.358 657.629C132.358 659.832 133.609 661.146 135.735 661.146ZM134.199 656.887C134.263 656.017 134.853 655.42 135.666 655.42C136.478 655.42 137.049 655.998 137.087 656.887H134.199ZM144.419 661.108C145.27 661.108 146.12 660.683 146.501 659.959H146.539V660.308C146.577 660.854 146.926 661.133 147.428 661.133C147.955 661.133 148.329 660.816 148.329 660.2V656.322C148.329 654.951 147.193 654.049 145.447 654.049C144.038 654.049 142.946 654.551 142.629 655.363C142.565 655.503 142.534 655.636 142.534 655.782C142.534 656.201 142.857 656.493 143.308 656.493C143.606 656.493 143.841 656.379 144.044 656.15C144.457 655.617 144.8 655.433 145.365 655.433C146.063 655.433 146.507 655.801 146.507 656.436V656.887L144.793 656.988C143.092 657.09 142.14 657.807 142.14 659.045C142.14 660.27 143.124 661.108 144.419 661.108ZM145.028 659.769C144.406 659.769 143.987 659.451 143.987 658.943C143.987 658.461 144.381 658.15 145.073 658.099L146.507 658.01V658.505C146.507 659.242 145.841 659.769 145.028 659.769ZM150.456 661.133C151.001 661.133 151.382 660.803 151.382 660.168V657.096C151.382 656.214 151.909 655.604 152.741 655.604C153.572 655.604 153.991 656.112 153.991 657.001V660.168C153.991 660.803 154.372 661.133 154.918 661.133C155.458 661.133 155.845 660.803 155.845 660.168V656.614C155.845 655.021 154.994 654.068 153.483 654.068C152.436 654.068 151.75 654.532 151.389 655.376H151.351V654.995C151.351 654.411 150.982 654.056 150.424 654.056C149.865 654.056 149.529 654.411 149.529 654.989V660.168C149.529 660.803 149.916 661.133 150.456 661.133ZM160.364 661.121C160.872 661.121 161.158 660.867 161.335 660.257L161.818 658.829H165.125L165.607 660.276C165.779 660.873 166.064 661.121 166.604 661.121C167.163 661.121 167.562 660.746 167.562 660.219C167.562 660.029 167.531 659.857 167.442 659.61L164.928 652.792C164.655 652.043 164.211 651.713 163.462 651.713C162.738 651.713 162.288 652.056 162.021 652.799L159.52 659.61C159.438 659.845 159.393 660.061 159.393 660.219C159.393 660.771 159.768 661.121 160.364 661.121ZM162.237 657.344L163.424 653.592H163.468L164.681 657.344H162.237ZM171.422 661.146C172.723 661.146 173.885 660.499 174.291 659.572C174.374 659.388 174.412 659.235 174.412 659.089C174.412 658.632 174.062 658.347 173.631 658.347C173.237 658.347 173.034 658.505 172.787 658.893C172.501 659.375 172.101 659.692 171.454 659.692C170.527 659.692 169.949 658.931 169.949 657.591C169.949 656.277 170.527 655.503 171.466 655.503C172.057 655.503 172.469 655.776 172.806 656.373C172.996 656.709 173.218 656.855 173.586 656.855C174.024 656.855 174.38 656.588 174.38 656.131C174.38 655.998 174.342 655.833 174.278 655.674C173.91 654.709 172.774 654.049 171.409 654.049C169.365 654.049 168.07 655.42 168.07 657.598C168.07 659.8 169.372 661.146 171.422 661.146ZM178.506 661.146C179.807 661.146 180.969 660.499 181.375 659.572C181.458 659.388 181.496 659.235 181.496 659.089C181.496 658.632 181.146 658.347 180.715 658.347C180.321 658.347 180.118 658.505 179.871 658.893C179.585 659.375 179.185 659.692 178.538 659.692C177.611 659.692 177.033 658.931 177.033 657.591C177.033 656.277 177.611 655.503 178.55 655.503C179.141 655.503 179.553 655.776 179.89 656.373C180.08 656.709 180.302 656.855 180.67 656.855C181.108 656.855 181.464 656.588 181.464 656.131C181.464 655.998 181.426 655.833 181.362 655.674C180.994 654.709 179.858 654.049 178.493 654.049C176.449 654.049 175.154 655.42 175.154 657.598C175.154 659.8 176.456 661.146 178.506 661.146ZM185.609 661.146C187.666 661.146 188.979 659.832 188.979 657.591C188.979 655.382 187.646 654.049 185.609 654.049C183.571 654.049 182.238 655.389 182.238 657.591C182.238 659.826 183.552 661.146 185.609 661.146ZM185.609 659.73C184.695 659.73 184.117 658.962 184.117 657.598C184.117 656.246 184.708 655.465 185.609 655.465C186.51 655.465 187.094 656.246 187.094 657.598C187.094 658.962 186.517 659.73 185.609 659.73ZM192.356 661.127C193.385 661.127 194.058 660.632 194.394 659.775H194.432V660.194C194.432 660.81 194.794 661.133 195.327 661.133C195.86 661.133 196.222 660.81 196.222 660.194V655.027C196.222 654.392 195.841 654.056 195.295 654.056C194.756 654.056 194.369 654.392 194.369 655.027V658.093C194.369 658.994 193.854 659.584 193.029 659.584C192.21 659.584 191.76 659.102 191.76 658.194V655.027C191.76 654.392 191.379 654.056 190.833 654.056C190.293 654.056 189.906 654.392 189.906 655.027V658.582C189.906 660.168 190.884 661.127 192.356 661.127ZM198.355 661.133C198.901 661.133 199.282 660.803 199.282 660.168V657.096C199.282 656.214 199.809 655.604 200.64 655.604C201.472 655.604 201.891 656.112 201.891 657.001V660.168C201.891 660.803 202.271 661.133 202.817 661.133C203.357 661.133 203.744 660.803 203.744 660.168V656.614C203.744 655.021 202.894 654.068 201.383 654.068C200.335 654.068 199.65 654.532 199.288 655.376H199.25V654.995C199.25 654.411 198.882 654.056 198.323 654.056C197.765 654.056 197.428 654.411 197.428 654.989V660.168C197.428 660.803 197.815 661.133 198.355 661.133ZM205.414 659.261C205.414 660.46 206.042 661.076 207.28 661.076H207.343C208.124 661.076 208.657 660.797 208.657 660.251C208.657 659.819 208.41 659.629 207.953 659.578L207.832 659.565C207.432 659.534 207.267 659.331 207.267 658.848V655.592H207.921C208.359 655.592 208.632 655.319 208.632 654.894C208.632 654.468 208.359 654.195 207.921 654.195H207.267V653.44C207.267 652.843 206.918 652.475 206.34 652.475C205.763 652.475 205.414 652.843 205.414 653.44V654.195H205.058C204.62 654.195 204.341 654.462 204.341 654.894C204.341 655.325 204.62 655.592 205.058 655.592H205.414V659.261ZM214.688 658.334C215.138 658.334 215.386 658.086 215.481 657.661C215.563 657.128 215.754 656.855 216.598 656.366C217.493 655.839 217.957 655.186 217.957 654.227C217.957 652.748 216.744 651.758 214.941 651.758C213.577 651.758 212.561 652.297 212.155 653.135C212.028 653.376 211.964 653.618 211.964 653.891C211.964 654.373 212.275 654.684 212.777 654.684C213.164 654.684 213.45 654.506 213.608 654.1C213.812 653.535 214.23 653.23 214.853 653.23C215.551 653.23 216.033 653.662 216.033 654.284C216.033 654.868 215.786 655.186 214.967 655.674C214.218 656.112 213.831 656.607 213.831 657.356V657.445C213.831 657.966 214.148 658.334 214.688 658.334ZM214.7 661.159C215.278 661.159 215.741 660.721 215.741 660.162C215.741 659.604 215.278 659.166 214.7 659.166C214.129 659.166 213.666 659.604 213.666 660.162C213.666 660.721 214.129 661.159 214.7 661.159Z"
            fill="black" />
        <path
            d="M228.456 661.152C230.188 661.152 231.553 660.372 232.125 659.102C232.22 658.88 232.271 658.677 232.271 658.461C232.271 657.953 231.915 657.61 231.375 657.61C230.969 657.61 230.728 657.782 230.531 658.213C230.119 659.134 229.395 659.572 228.43 659.572C226.964 659.572 226.043 658.366 226.043 656.411C226.043 654.481 226.977 653.269 228.424 653.269C229.338 653.269 230.087 653.738 230.506 654.671C230.715 655.116 230.988 655.306 231.42 655.306C231.928 655.306 232.264 654.982 232.264 654.481C232.264 654.252 232.201 654.005 232.074 653.764C231.445 652.443 230.119 651.682 228.405 651.682C225.771 651.682 224.088 653.465 224.088 656.417C224.088 659.375 225.739 661.152 228.456 661.152ZM234.41 661.133C234.975 661.133 235.336 660.784 235.336 660.168V657.147C235.336 656.341 235.635 655.865 236.479 655.852C236.841 655.846 237.107 655.763 237.285 655.611C237.463 655.458 237.552 655.236 237.552 654.944C237.552 654.627 237.463 654.398 237.285 654.259C237.152 654.145 236.955 654.087 236.708 654.087C236.028 654.087 235.47 654.589 235.292 655.433H235.254V654.989C235.254 654.398 234.898 654.056 234.378 654.056C233.845 654.056 233.483 654.398 233.483 654.989V660.168C233.483 660.784 233.851 661.133 234.41 661.133ZM241.119 661.146C242.433 661.146 243.487 660.651 243.938 659.813C244.02 659.661 244.064 659.508 244.064 659.362C244.064 658.937 243.741 658.683 243.341 658.683C243.1 658.683 242.935 658.753 242.738 658.956C242.236 659.546 241.792 659.775 241.113 659.775C240.173 659.775 239.564 659.115 239.564 658.105V658.023H243.449C243.963 658.023 244.255 657.731 244.255 657.217C244.255 655.37 242.96 654.049 241.03 654.049C239.018 654.049 237.742 655.439 237.742 657.629C237.742 659.832 238.993 661.146 241.119 661.146ZM239.583 656.887C239.646 656.017 240.237 655.42 241.049 655.42C241.862 655.42 242.433 655.998 242.471 656.887H239.583ZM247.226 661.108C248.076 661.108 248.927 660.683 249.308 659.959H249.346V660.308C249.384 660.854 249.733 661.133 250.234 661.133C250.761 661.133 251.136 660.816 251.136 660.2V656.322C251.136 654.951 250 654.049 248.254 654.049C246.845 654.049 245.753 654.551 245.436 655.363C245.372 655.503 245.34 655.636 245.34 655.782C245.34 656.201 245.664 656.493 246.115 656.493C246.413 656.493 246.648 656.379 246.851 656.15C247.264 655.617 247.606 655.433 248.171 655.433C248.87 655.433 249.314 655.801 249.314 656.436V656.887L247.6 656.988C245.899 657.09 244.947 657.807 244.947 659.045C244.947 660.27 245.931 661.108 247.226 661.108ZM247.835 659.769C247.213 659.769 246.794 659.451 246.794 658.943C246.794 658.461 247.188 658.15 247.879 658.099L249.314 658.01V658.505C249.314 659.242 248.647 659.769 247.835 659.769ZM252.831 659.261C252.831 660.46 253.459 661.076 254.697 661.076H254.76C255.541 661.076 256.074 660.797 256.074 660.251C256.074 659.819 255.827 659.629 255.37 659.578L255.249 659.565C254.849 659.534 254.684 659.331 254.684 658.848V655.592H255.338C255.776 655.592 256.049 655.319 256.049 654.894C256.049 654.468 255.776 654.195 255.338 654.195H254.684V653.44C254.684 652.843 254.335 652.475 253.757 652.475C253.18 652.475 252.831 652.843 252.831 653.44V654.195H252.475C252.037 654.195 251.758 654.462 251.758 654.894C251.758 655.325 252.037 655.592 252.475 655.592H252.831V659.261ZM259.984 661.146C261.298 661.146 262.352 660.651 262.803 659.813C262.885 659.661 262.93 659.508 262.93 659.362C262.93 658.937 262.606 658.683 262.206 658.683C261.965 658.683 261.8 658.753 261.603 658.956C261.102 659.546 260.657 659.775 259.978 659.775C259.039 659.775 258.429 659.115 258.429 658.105V658.023H262.314C262.828 658.023 263.12 657.731 263.12 657.217C263.12 655.37 261.825 654.049 259.896 654.049C257.883 654.049 256.607 655.439 256.607 657.629C256.607 659.832 257.858 661.146 259.984 661.146ZM258.448 656.887C258.512 656.017 259.102 655.42 259.915 655.42C260.727 655.42 261.298 655.998 261.336 656.887H258.448ZM267.424 661.121C267.932 661.121 268.217 660.867 268.395 660.257L268.877 658.829H272.185L272.667 660.276C272.838 660.873 273.124 661.121 273.664 661.121C274.222 661.121 274.622 660.746 274.622 660.219C274.622 660.029 274.59 659.857 274.501 659.61L271.988 652.792C271.715 652.043 271.271 651.713 270.521 651.713C269.798 651.713 269.347 652.056 269.081 652.799L266.58 659.61C266.497 659.845 266.453 660.061 266.453 660.219C266.453 660.771 266.827 661.121 267.424 661.121ZM269.296 657.344L270.483 653.592H270.528L271.74 657.344H269.296ZM278.481 661.146C279.783 661.146 280.944 660.499 281.351 659.572C281.433 659.388 281.471 659.235 281.471 659.089C281.471 658.632 281.122 658.347 280.69 658.347C280.297 658.347 280.094 658.505 279.846 658.893C279.561 659.375 279.161 659.692 278.513 659.692C277.586 659.692 277.009 658.931 277.009 657.591C277.009 656.277 277.586 655.503 278.526 655.503C279.116 655.503 279.529 655.776 279.865 656.373C280.056 656.709 280.278 656.855 280.646 656.855C281.084 656.855 281.439 656.588 281.439 656.131C281.439 655.998 281.401 655.833 281.338 655.674C280.97 654.709 279.833 654.049 278.469 654.049C276.425 654.049 275.13 655.42 275.13 657.598C275.13 659.8 276.431 661.146 278.481 661.146ZM285.565 661.146C286.867 661.146 288.028 660.499 288.435 659.572C288.517 659.388 288.555 659.235 288.555 659.089C288.555 658.632 288.206 658.347 287.774 658.347C287.381 658.347 287.178 658.505 286.93 658.893C286.645 659.375 286.245 659.692 285.597 659.692C284.67 659.692 284.093 658.931 284.093 657.591C284.093 656.277 284.67 655.503 285.61 655.503C286.2 655.503 286.613 655.776 286.949 656.373C287.14 656.709 287.362 656.855 287.73 656.855C288.168 656.855 288.523 656.588 288.523 656.131C288.523 655.998 288.485 655.833 288.422 655.674C288.054 654.709 286.917 654.049 285.553 654.049C283.509 654.049 282.214 655.42 282.214 657.598C282.214 659.8 283.515 661.146 285.565 661.146ZM292.668 661.146C294.725 661.146 296.039 659.832 296.039 657.591C296.039 655.382 294.706 654.049 292.668 654.049C290.631 654.049 289.298 655.389 289.298 657.591C289.298 659.826 290.612 661.146 292.668 661.146ZM292.668 659.73C291.754 659.73 291.177 658.962 291.177 657.598C291.177 656.246 291.767 655.465 292.668 655.465C293.57 655.465 294.154 656.246 294.154 657.598C294.154 658.962 293.576 659.73 292.668 659.73ZM299.416 661.127C300.444 661.127 301.117 660.632 301.454 659.775H301.492V660.194C301.492 660.81 301.854 661.133 302.387 661.133C302.92 661.133 303.282 660.81 303.282 660.194V655.027C303.282 654.392 302.901 654.056 302.355 654.056C301.815 654.056 301.428 654.392 301.428 655.027V658.093C301.428 658.994 300.914 659.584 300.089 659.584C299.27 659.584 298.819 659.102 298.819 658.194V655.027C298.819 654.392 298.438 654.056 297.893 654.056C297.353 654.056 296.966 654.392 296.966 655.027V658.582C296.966 660.168 297.943 661.127 299.416 661.127ZM305.415 661.133C305.96 661.133 306.341 660.803 306.341 660.168V657.096C306.341 656.214 306.868 655.604 307.7 655.604C308.531 655.604 308.95 656.112 308.95 657.001V660.168C308.95 660.803 309.331 661.133 309.877 661.133C310.417 661.133 310.804 660.803 310.804 660.168V656.614C310.804 655.021 309.953 654.068 308.442 654.068C307.395 654.068 306.709 654.532 306.348 655.376H306.31V654.995C306.31 654.411 305.941 654.056 305.383 654.056C304.824 654.056 304.488 654.411 304.488 654.989V660.168C304.488 660.803 304.875 661.133 305.415 661.133ZM312.473 659.261C312.473 660.46 313.102 661.076 314.339 661.076H314.403C315.184 661.076 315.717 660.797 315.717 660.251C315.717 659.819 315.469 659.629 315.012 659.578L314.892 659.565C314.492 659.534 314.327 659.331 314.327 658.848V655.592H314.98C315.418 655.592 315.691 655.319 315.691 654.894C315.691 654.468 315.418 654.195 314.98 654.195H314.327V653.44C314.327 652.843 313.978 652.475 313.4 652.475C312.822 652.475 312.473 652.843 312.473 653.44V654.195H312.118C311.68 654.195 311.4 654.462 311.4 654.894C311.4 655.325 311.68 655.592 312.118 655.592H312.473V659.261Z"
            fill="#4285F4" />
        <path
            d="M98.6201 486H104.447C105.177 486 105.651 485.587 105.651 484.901C105.651 484.216 105.168 483.803 104.447 483.803H99.9473V474.53C99.9473 473.651 99.4551 473.142 98.6201 473.142C97.7852 473.142 97.293 473.651 97.293 474.53V484.611C97.293 485.49 97.7852 486 98.6201 486ZM111.03 486.202C113.878 486.202 115.697 484.383 115.697 481.28C115.697 478.222 113.852 476.376 111.03 476.376C108.209 476.376 106.363 478.23 106.363 481.28C106.363 484.374 108.183 486.202 111.03 486.202ZM111.03 484.242C109.765 484.242 108.965 483.179 108.965 481.289C108.965 479.417 109.782 478.336 111.03 478.336C112.278 478.336 113.087 479.417 113.087 481.289C113.087 483.179 112.287 484.242 111.03 484.242ZM121.234 489.542C124.267 489.56 126.042 488.083 126.042 485.631V477.686C126.042 476.815 125.506 476.385 124.768 476.385C124.029 476.385 123.476 476.815 123.476 477.686V478.204H123.423C122.931 477.141 121.902 476.429 120.549 476.429C118.123 476.429 116.682 478.178 116.682 481.131C116.682 484.005 118.158 485.798 120.505 485.798C121.867 485.798 122.966 485.121 123.405 484.11H123.458V485.613C123.458 486.791 122.632 487.564 121.226 487.556C120.373 487.547 119.705 487.187 119.011 486.527C118.721 486.264 118.457 486.158 118.123 486.158C117.481 486.158 117.077 486.562 117.077 487.099C117.077 487.336 117.13 487.573 117.271 487.811C117.877 488.804 119.31 489.533 121.234 489.542ZM121.375 483.891C120.101 483.891 119.31 482.88 119.31 481.157C119.31 479.452 120.109 478.38 121.375 478.38C122.658 478.38 123.484 479.47 123.484 481.166C123.484 482.871 122.658 483.891 121.375 483.891ZM129.039 475.409C129.812 475.409 130.41 474.82 130.41 474.082C130.41 473.335 129.812 472.755 129.039 472.755C128.266 472.755 127.668 473.335 127.668 474.082C127.668 474.82 128.266 475.409 129.039 475.409ZM129.039 486.185C129.83 486.185 130.322 485.684 130.322 484.849V477.729C130.322 476.895 129.83 476.385 129.039 476.385C128.239 476.385 127.756 476.895 127.756 477.729V484.849C127.756 485.684 128.239 486.185 129.039 486.185ZM133.319 486.185C134.075 486.185 134.603 485.728 134.603 484.849V480.595C134.603 479.373 135.332 478.529 136.483 478.529C137.635 478.529 138.215 479.232 138.215 480.463V484.849C138.215 485.728 138.742 486.185 139.498 486.185C140.245 486.185 140.781 485.728 140.781 484.849V479.927C140.781 477.721 139.604 476.402 137.512 476.402C136.062 476.402 135.112 477.044 134.611 478.213H134.559V477.686C134.559 476.877 134.049 476.385 133.275 476.385C132.502 476.385 132.036 476.877 132.036 477.677V484.849C132.036 485.728 132.572 486.185 133.319 486.185ZM146.661 483.592C146.661 485.253 147.531 486.105 149.245 486.105H149.333C150.414 486.105 151.152 485.719 151.152 484.963C151.152 484.365 150.81 484.102 150.177 484.031L150.01 484.014C149.456 483.97 149.228 483.688 149.228 483.021V478.512H150.133C150.739 478.512 151.117 478.134 151.117 477.545C151.117 476.956 150.739 476.578 150.133 476.578H149.228V475.532C149.228 474.706 148.744 474.196 147.944 474.196C147.145 474.196 146.661 474.706 146.661 475.532V476.578H146.169C145.562 476.578 145.176 476.947 145.176 477.545C145.176 478.143 145.562 478.512 146.169 478.512H146.661V483.592ZM156.558 486.202C159.405 486.202 161.225 484.383 161.225 481.28C161.225 478.222 159.379 476.376 156.558 476.376C153.736 476.376 151.891 478.23 151.891 481.28C151.891 484.374 153.71 486.202 156.558 486.202ZM156.558 484.242C155.292 484.242 154.492 483.179 154.492 481.289C154.492 479.417 155.31 478.336 156.558 478.336C157.806 478.336 158.614 479.417 158.614 481.289C158.614 483.179 157.814 484.242 156.558 484.242ZM167.72 489.489C169.785 489.489 170.875 488.593 171.754 486.158L174.646 478.301C174.733 478.055 174.786 477.756 174.786 477.545C174.786 476.868 174.276 476.385 173.538 476.385C172.879 476.385 172.51 476.692 172.299 477.404L170.251 483.943H170.207L168.159 477.422C167.948 476.675 167.597 476.385 166.92 476.385C166.164 476.385 165.593 476.886 165.593 477.58C165.593 477.791 165.646 478.072 165.742 478.336L168.748 486.264L168.616 486.598C168.309 487.257 167.825 487.45 167.377 487.45C167.201 487.45 167.104 487.441 166.929 487.441C166.349 487.441 165.988 487.767 165.988 488.285C165.988 489.059 166.595 489.489 167.72 489.489ZM179.954 486.202C182.802 486.202 184.621 484.383 184.621 481.28C184.621 478.222 182.775 476.376 179.954 476.376C177.133 476.376 175.287 478.23 175.287 481.28C175.287 484.374 177.106 486.202 179.954 486.202ZM179.954 484.242C178.688 484.242 177.889 483.179 177.889 481.289C177.889 479.417 178.706 478.336 179.954 478.336C181.202 478.336 182.011 479.417 182.011 481.289C182.011 483.179 181.211 484.242 179.954 484.242ZM189.297 486.176C190.721 486.176 191.652 485.49 192.118 484.304H192.171V484.884C192.171 485.736 192.672 486.185 193.41 486.185C194.148 486.185 194.649 485.736 194.649 484.884V477.729C194.649 476.851 194.122 476.385 193.366 476.385C192.619 476.385 192.083 476.851 192.083 477.729V481.975C192.083 483.223 191.371 484.04 190.229 484.04C189.095 484.04 188.471 483.372 188.471 482.115V477.729C188.471 476.851 187.943 476.385 187.188 476.385C186.44 476.385 185.904 476.851 185.904 477.729V482.651C185.904 484.849 187.258 486.176 189.297 486.176ZM197.603 486.185C198.385 486.185 198.886 485.701 198.886 484.849V480.665C198.886 479.549 199.299 478.89 200.468 478.872C200.969 478.863 201.338 478.749 201.584 478.538C201.83 478.327 201.953 478.02 201.953 477.615C201.953 477.176 201.83 476.859 201.584 476.666C201.399 476.508 201.127 476.429 200.784 476.429C199.844 476.429 199.07 477.123 198.824 478.292H198.771V477.677C198.771 476.859 198.279 476.385 197.559 476.385C196.82 476.385 196.319 476.859 196.319 477.677V484.849C196.319 485.701 196.829 486.185 197.603 486.185ZM207.508 486.167C208.211 486.167 208.606 485.815 208.853 484.972L209.521 482.994H214.1L214.768 484.998C215.005 485.824 215.4 486.167 216.147 486.167C216.921 486.167 217.475 485.648 217.475 484.919C217.475 484.655 217.431 484.418 217.308 484.075L213.827 474.636C213.449 473.599 212.834 473.142 211.797 473.142C210.795 473.142 210.171 473.616 209.802 474.645L206.339 484.075C206.225 484.4 206.163 484.699 206.163 484.919C206.163 485.684 206.682 486.167 207.508 486.167ZM210.101 480.938L211.744 475.743H211.806L213.484 480.938H210.101ZM222.818 486.202C224.62 486.202 226.229 485.306 226.791 484.022C226.905 483.768 226.958 483.557 226.958 483.354C226.958 482.722 226.475 482.326 225.877 482.326C225.332 482.326 225.051 482.546 224.708 483.082C224.312 483.75 223.759 484.189 222.862 484.189C221.579 484.189 220.779 483.135 220.779 481.28C220.779 479.461 221.579 478.389 222.88 478.389C223.697 478.389 224.269 478.767 224.734 479.593C224.998 480.059 225.306 480.261 225.815 480.261C226.422 480.261 226.914 479.892 226.914 479.259C226.914 479.074 226.861 478.846 226.773 478.626C226.264 477.29 224.69 476.376 222.801 476.376C219.971 476.376 218.178 478.274 218.178 481.289C218.178 484.339 219.979 486.202 222.818 486.202ZM232.627 486.202C234.429 486.202 236.037 485.306 236.6 484.022C236.714 483.768 236.767 483.557 236.767 483.354C236.767 482.722 236.283 482.326 235.686 482.326C235.141 482.326 234.859 482.546 234.517 483.082C234.121 483.75 233.567 484.189 232.671 484.189C231.388 484.189 230.588 483.135 230.588 481.28C230.588 479.461 231.388 478.389 232.688 478.389C233.506 478.389 234.077 478.767 234.543 479.593C234.807 480.059 235.114 480.261 235.624 480.261C236.23 480.261 236.723 479.892 236.723 479.259C236.723 479.074 236.67 478.846 236.582 478.626C236.072 477.29 234.499 476.376 232.609 476.376C229.779 476.376 227.986 478.274 227.986 481.289C227.986 484.339 229.788 486.202 232.627 486.202ZM242.462 486.202C245.31 486.202 247.129 484.383 247.129 481.28C247.129 478.222 245.283 476.376 242.462 476.376C239.641 476.376 237.795 478.23 237.795 481.28C237.795 484.374 239.614 486.202 242.462 486.202ZM242.462 484.242C241.196 484.242 240.396 483.179 240.396 481.289C240.396 479.417 241.214 478.336 242.462 478.336C243.71 478.336 244.519 479.417 244.519 481.289C244.519 483.179 243.719 484.242 242.462 484.242ZM251.805 486.176C253.229 486.176 254.16 485.49 254.626 484.304H254.679V484.884C254.679 485.736 255.18 486.185 255.918 486.185C256.656 486.185 257.157 485.736 257.157 484.884V477.729C257.157 476.851 256.63 476.385 255.874 476.385C255.127 476.385 254.591 476.851 254.591 477.729V481.975C254.591 483.223 253.879 484.04 252.736 484.04C251.603 484.04 250.979 483.372 250.979 482.115V477.729C250.979 476.851 250.451 476.385 249.695 476.385C248.948 476.385 248.412 476.851 248.412 477.729V482.651C248.412 484.849 249.766 486.176 251.805 486.176ZM260.11 486.185C260.866 486.185 261.394 485.728 261.394 484.849V480.595C261.394 479.373 262.123 478.529 263.274 478.529C264.426 478.529 265.006 479.232 265.006 480.463V484.849C265.006 485.728 265.533 486.185 266.289 486.185C267.036 486.185 267.572 485.728 267.572 484.849V479.927C267.572 477.721 266.395 476.402 264.303 476.402C262.853 476.402 261.903 477.044 261.402 478.213H261.35V477.686C261.35 476.877 260.84 476.385 260.066 476.385C259.293 476.385 258.827 476.877 258.827 477.677V484.849C258.827 485.728 259.363 486.185 260.11 486.185ZM269.884 483.592C269.884 485.253 270.754 486.105 272.468 486.105H272.556C273.637 486.105 274.375 485.719 274.375 484.963C274.375 484.365 274.032 484.102 273.399 484.031L273.232 484.014C272.679 483.97 272.45 483.688 272.45 483.021V478.512H273.355C273.962 478.512 274.34 478.134 274.34 477.545C274.34 476.956 273.962 476.578 273.355 476.578H272.45V475.532C272.45 474.706 271.967 474.196 271.167 474.196C270.367 474.196 269.884 474.706 269.884 475.532V476.578H269.392C268.785 476.578 268.398 476.947 268.398 477.545C268.398 478.143 268.785 478.512 269.392 478.512H269.884V483.592Z"
            fill="black" />
    </g>
    <g id="dark">


        <rect width="375" height="812" fill="#35363A" />
        <path
            d="M244.593 274.947C245.698 274.947 246.597 274.051 246.56 272.947C246.057 258.04 239.951 243.848 229.432 233.265C218.443 222.211 203.54 216 188 216C172.46 216 157.557 222.211 146.568 233.265C136.049 243.848 129.943 258.04 129.44 272.947C129.403 274.051 130.302 274.947 131.407 274.947L156.308 274.947C157.413 274.947 158.301 274.051 158.375 272.949C158.854 265.756 161.907 258.954 167.005 253.825C172.573 248.223 180.125 245.076 188 245.076C195.875 245.076 203.427 248.223 208.995 253.825C214.093 258.954 217.146 265.756 217.625 272.949C217.699 274.051 218.587 274.947 219.692 274.947H244.593Z"
            fill="white" />
        <path
            d="M244.593 297.053C245.698 297.053 246.597 297.948 246.56 299.052C246.321 306.111 244.824 313.075 242.133 319.611C239.189 326.763 234.873 333.261 229.432 338.735C223.991 344.208 217.532 348.55 210.423 351.513C203.314 354.475 195.695 356 188 356C180.305 356 172.686 354.475 165.577 351.513C158.468 348.55 152.009 344.208 146.568 338.735C141.127 333.261 136.811 326.763 133.867 319.611C131.176 313.075 129.678 306.111 129.44 299.052C129.403 297.948 130.302 297.053 131.407 297.053H156.308C157.413 297.053 158.301 297.949 158.375 299.051C158.591 302.29 159.33 305.476 160.568 308.484C162.061 312.108 164.248 315.401 167.005 318.175C169.762 320.948 173.035 323.149 176.637 324.65C180.24 326.151 184.101 326.924 188 326.924C191.899 326.924 195.76 326.151 199.363 324.65C202.965 323.149 206.238 320.948 208.995 318.175C211.752 315.401 213.939 312.108 215.432 308.484C216.67 305.476 217.409 302.29 217.625 299.051C217.699 297.949 218.587 297.053 219.692 297.053H244.593Z"
            fill="white" />
        <path
            d="M113.412 408.422C118.211 408.422 121.99 406.26 123.572 402.744C123.836 402.129 123.977 401.566 123.977 400.969C123.977 399.562 122.992 398.613 121.498 398.613C120.373 398.613 119.705 399.088 119.16 400.283C118.018 402.832 116.014 404.045 113.342 404.045C109.281 404.045 106.732 400.705 106.732 395.291C106.732 389.947 109.316 386.59 113.324 386.59C115.855 386.59 117.93 387.891 119.09 390.475C119.67 391.705 120.426 392.232 121.621 392.232C123.027 392.232 123.959 391.336 123.959 389.947C123.959 389.314 123.783 388.629 123.432 387.961C121.691 384.305 118.018 382.195 113.271 382.195C105.977 382.195 101.318 387.135 101.318 395.309C101.318 403.5 105.889 408.422 113.412 408.422ZM130.023 408.369C131.535 408.369 132.59 407.455 132.59 405.697V397.242C132.59 394.764 134.014 393.059 136.439 393.059C138.777 393.059 139.973 394.535 139.973 396.961V405.697C139.973 407.455 141.045 408.369 142.539 408.369C144.051 408.369 145.105 407.455 145.105 405.697V395.871C145.105 391.512 142.715 388.805 138.531 388.805C135.666 388.805 133.609 390.141 132.607 392.514H132.502V384.885C132.502 383.232 131.57 382.248 129.988 382.248C128.406 382.248 127.457 383.232 127.457 384.885V405.697C127.457 407.455 128.529 408.369 130.023 408.369ZM153.965 408.299C156.32 408.299 158.676 407.121 159.73 405.117H159.836V406.084C159.941 407.596 160.908 408.369 162.297 408.369C163.756 408.369 164.793 407.49 164.793 405.785V395.045C164.793 391.248 161.646 388.752 156.812 388.752C152.91 388.752 149.887 390.141 149.008 392.391C148.832 392.777 148.744 393.146 148.744 393.551C148.744 394.711 149.641 395.52 150.889 395.52C151.715 395.52 152.365 395.203 152.928 394.57C154.07 393.094 155.02 392.584 156.584 392.584C158.518 392.584 159.748 393.604 159.748 395.361V396.609L155.002 396.891C150.291 397.172 147.654 399.158 147.654 402.586C147.654 405.979 150.379 408.299 153.965 408.299ZM155.652 404.59C153.93 404.59 152.77 403.711 152.77 402.305C152.77 400.969 153.859 400.107 155.775 399.967L159.748 399.721V401.092C159.748 403.131 157.902 404.59 155.652 404.59ZM170.682 414.715C172.193 414.715 173.248 413.801 173.248 412.043V404.836H173.354C174.355 406.963 176.465 408.299 179.207 408.299C183.918 408.299 186.836 404.643 186.836 398.578C186.836 392.496 183.9 388.857 179.119 388.857C176.395 388.857 174.303 390.229 173.283 392.443H173.178V391.424C173.178 389.684 172.123 388.77 170.646 388.77C169.17 388.77 168.115 389.684 168.115 391.406V412.043C168.115 413.801 169.188 414.715 170.682 414.715ZM177.396 404.168C174.883 404.168 173.23 401.988 173.23 398.578C173.23 395.203 174.883 392.971 177.396 392.971C179.963 392.971 181.58 395.168 181.58 398.578C181.58 402.006 179.963 404.168 177.396 404.168ZM201.232 408.422C206.031 408.422 209.811 406.26 211.393 402.744C211.656 402.129 211.797 401.566 211.797 400.969C211.797 399.562 210.812 398.613 209.318 398.613C208.193 398.613 207.525 399.088 206.98 400.283C205.838 402.832 203.834 404.045 201.162 404.045C197.102 404.045 194.553 400.705 194.553 395.291C194.553 389.947 197.137 386.59 201.145 386.59C203.676 386.59 205.75 387.891 206.91 390.475C207.49 391.705 208.246 392.232 209.441 392.232C210.848 392.232 211.779 391.336 211.779 389.947C211.779 389.314 211.604 388.629 211.252 387.961C209.512 384.305 205.838 382.195 201.092 382.195C193.797 382.195 189.139 387.135 189.139 395.309C189.139 403.5 193.709 408.422 201.232 408.422ZM217.844 408.369C219.355 408.369 220.41 407.455 220.41 405.697V397.242C220.41 394.764 221.834 393.059 224.26 393.059C226.598 393.059 227.793 394.535 227.793 396.961V405.697C227.793 407.455 228.865 408.369 230.359 408.369C231.871 408.369 232.926 407.455 232.926 405.697V395.871C232.926 391.512 230.535 388.805 226.352 388.805C223.486 388.805 221.43 390.141 220.428 392.514H220.322V384.885C220.322 383.232 219.391 382.248 217.809 382.248C216.227 382.248 215.277 383.232 215.277 384.885V405.697C215.277 407.455 216.35 408.369 217.844 408.369ZM241.785 408.299C244.141 408.299 246.496 407.121 247.551 405.117H247.656V406.084C247.762 407.596 248.729 408.369 250.117 408.369C251.576 408.369 252.613 407.49 252.613 405.785V395.045C252.613 391.248 249.467 388.752 244.633 388.752C240.73 388.752 237.707 390.141 236.828 392.391C236.652 392.777 236.564 393.146 236.564 393.551C236.564 394.711 237.461 395.52 238.709 395.52C239.535 395.52 240.186 395.203 240.748 394.57C241.891 393.094 242.84 392.584 244.404 392.584C246.338 392.584 247.568 393.604 247.568 395.361V396.609L242.822 396.891C238.111 397.172 235.475 399.158 235.475 402.586C235.475 405.979 238.199 408.299 241.785 408.299ZM243.473 404.59C241.75 404.59 240.59 403.711 240.59 402.305C240.59 400.969 241.68 400.107 243.596 399.967L247.568 399.721V401.092C247.568 403.131 245.723 404.59 243.473 404.59ZM258.502 414.715C260.014 414.715 261.068 413.801 261.068 412.043V404.836H261.174C262.176 406.963 264.285 408.299 267.027 408.299C271.738 408.299 274.656 404.643 274.656 398.578C274.656 392.496 271.721 388.857 266.939 388.857C264.215 388.857 262.123 390.229 261.104 392.443H260.998V391.424C260.998 389.684 259.943 388.77 258.467 388.77C256.99 388.77 255.936 389.684 255.936 391.406V412.043C255.936 413.801 257.008 414.715 258.502 414.715ZM265.217 404.168C262.703 404.168 261.051 401.988 261.051 398.578C261.051 395.203 262.703 392.971 265.217 392.971C267.783 392.971 269.4 395.168 269.4 398.578C269.4 402.006 267.783 404.168 265.217 404.168Z"
            fill="white" />
        <rect x="64" y="529" width="68" height="66" rx="9" fill="black" />
        <path
            d="M114.983 562.337C114.983 560.862 114.864 559.786 114.607 558.669H97.8486V565.326H107.685C107.487 566.981 106.416 569.472 104.036 571.146L104.003 571.369L109.301 575.494L109.668 575.531C113.04 572.402 114.983 567.798 114.983 562.337Z"
            fill="#4285F4" />
        <path
            d="M97.8486 579.876C102.668 579.876 106.713 578.282 109.668 575.531L104.036 571.146C102.529 572.203 100.506 572.94 97.8486 572.94C93.1287 572.94 89.1227 569.811 87.6947 565.486L87.4854 565.504L81.9759 569.789L81.9038 569.99C84.8389 575.85 90.8678 579.876 97.8486 579.876Z"
            fill="#34A853" />
        <path
            d="M87.6947 565.486C87.3179 564.37 87.0998 563.174 87.0998 561.938C87.0998 560.702 87.3179 559.507 87.6748 558.39L87.6649 558.153L82.0863 553.799L81.9038 553.886C80.6941 556.317 80 559.048 80 561.938C80 564.828 80.6941 567.559 81.9038 569.99L87.6947 565.486Z"
            fill="#FBBC05" />
        <path
            d="M97.8486 550.936C101.2 550.936 103.461 552.391 104.75 553.607L109.787 548.664C106.694 545.774 102.668 544 97.8486 544C90.8678 544 84.8389 548.026 81.9038 553.886L87.6748 558.39C89.1227 554.065 93.1287 550.936 97.8486 550.936Z"
            fill="#EB4335" />
        <rect x="152" y="529" width="68" height="66" rx="9" fill="black" />
        <path fill-rule="evenodd" clip-rule="evenodd"
            d="M170 563.101C170 572.05 176.5 579.491 185 581V568H180.5V563H185V559C185 554.5 187.899 552 192 552C193.299 552 194.701 552.2 196 552.399V557H193.7C191.5 557 191 558.099 191 559.5V563H195.8L195 568H191V581C199.5 579.491 206 572.051 206 563.101C206 553.145 197.9 545 188 545C178.1 545 170 553.145 170 563.101Z"
            fill="#4285F4" />
        <rect x="240" y="529.333" width="71.6667" height="65.3333" rx="16" fill="black" />
        <path
            d="M291.667 556.629V569.521C291.667 570.835 291.164 572.1 290.261 573.055C289.359 574.011 288.124 574.584 286.812 574.659L286.521 574.667H265.146C263.831 574.667 262.567 574.164 261.611 573.261C260.656 572.359 260.082 571.124 260.008 569.812L260 569.521V556.629L275.282 564.635C275.452 564.724 275.641 564.77 275.833 564.77C276.025 564.77 276.214 564.724 276.384 564.635L291.667 556.629ZM265.146 549.333H286.521C287.796 549.333 289.026 549.807 289.973 550.662C290.919 551.518 291.513 552.694 291.641 553.963L275.833 562.244L260.025 553.963C260.148 552.744 260.701 551.609 261.586 550.762C262.471 549.915 263.628 549.411 264.851 549.341L265.146 549.333H286.521H265.146Z"
            fill="white" />
        <line x1="84.9868" y1="633.5" x2="307.013" y2="633.5" stroke="white" stroke-linecap="round" />
        <path
            d="M77.7241 661H80.2632C83.0117 661 84.6304 659.292 84.6304 656.385C84.6304 653.478 83.0117 651.84 80.2632 651.84H77.7241C77.1211 651.84 76.7656 652.208 76.7656 652.837V659.997C76.7656 660.632 77.1211 661 77.7241 661ZM78.6826 659.413V653.421H80.0347C81.7231 653.421 82.6753 654.475 82.6753 656.392C82.6753 658.372 81.7485 659.413 80.0347 659.413H78.6826ZM88.8325 661.146C90.8892 661.146 92.2031 659.832 92.2031 657.591C92.2031 655.382 90.8701 654.049 88.8325 654.049C86.7949 654.049 85.4619 655.389 85.4619 657.591C85.4619 659.826 86.7759 661.146 88.8325 661.146ZM88.8325 659.73C87.9185 659.73 87.3408 658.962 87.3408 657.598C87.3408 656.246 87.9312 655.465 88.8325 655.465C89.7339 655.465 90.3179 656.246 90.3179 657.598C90.3179 658.962 89.7402 659.73 88.8325 659.73ZM94.0884 661.133C94.6343 661.133 95.0151 660.803 95.0151 660.168V657.096C95.0151 656.214 95.542 655.604 96.3735 655.604C97.2051 655.604 97.624 656.112 97.624 657.001V660.168C97.624 660.803 98.0049 661.133 98.5508 661.133C99.0903 661.133 99.4775 660.803 99.4775 660.168V656.614C99.4775 655.021 98.627 654.068 97.1162 654.068C96.0688 654.068 95.3833 654.532 95.0215 655.376H94.9834V654.995C94.9834 654.411 94.6152 654.056 94.0566 654.056C93.498 654.056 93.1616 654.411 93.1616 654.989V660.168C93.1616 660.803 93.5488 661.133 94.0884 661.133ZM101.179 655.573C101.61 655.573 101.839 655.376 101.934 654.944L102.448 652.799C102.474 652.678 102.493 652.558 102.493 652.437C102.493 651.98 102.182 651.701 101.693 651.701C101.217 651.701 100.906 651.929 100.836 652.462L100.512 654.786C100.512 654.805 100.506 654.836 100.506 654.887C100.48 655.274 100.734 655.573 101.179 655.573ZM104.537 659.261C104.537 660.46 105.165 661.076 106.403 661.076H106.466C107.247 661.076 107.78 660.797 107.78 660.251C107.78 659.819 107.533 659.629 107.076 659.578L106.955 659.565C106.555 659.534 106.39 659.331 106.39 658.848V655.592H107.044C107.482 655.592 107.755 655.319 107.755 654.894C107.755 654.468 107.482 654.195 107.044 654.195H106.39V653.44C106.39 652.843 106.041 652.475 105.463 652.475C104.886 652.475 104.537 652.843 104.537 653.44V654.195H104.181C103.743 654.195 103.464 654.462 103.464 654.894C103.464 655.325 103.743 655.592 104.181 655.592H104.537V659.261ZM112.211 661.133C112.757 661.133 113.138 660.803 113.138 660.168V657.115C113.138 656.22 113.652 655.604 114.528 655.604C115.372 655.604 115.804 656.138 115.804 657.014V660.168C115.804 660.803 116.191 661.133 116.73 661.133C117.276 661.133 117.657 660.803 117.657 660.168V656.62C117.657 655.046 116.794 654.068 115.283 654.068C114.249 654.068 113.506 654.551 113.144 655.408H113.106V652.653C113.106 652.056 112.77 651.701 112.198 651.701C111.627 651.701 111.284 652.056 111.284 652.653V660.168C111.284 660.803 111.671 661.133 112.211 661.133ZM120.856 661.108C121.707 661.108 122.558 660.683 122.938 659.959H122.977V660.308C123.015 660.854 123.364 661.133 123.865 661.133C124.392 661.133 124.767 660.816 124.767 660.2V656.322C124.767 654.951 123.63 654.049 121.885 654.049C120.476 654.049 119.384 654.551 119.066 655.363C119.003 655.503 118.971 655.636 118.971 655.782C118.971 656.201 119.295 656.493 119.746 656.493C120.044 656.493 120.279 656.379 120.482 656.15C120.895 655.617 121.237 655.433 121.802 655.433C122.5 655.433 122.945 655.801 122.945 656.436V656.887L121.231 656.988C119.53 657.09 118.578 657.807 118.578 659.045C118.578 660.27 119.562 661.108 120.856 661.108ZM121.466 659.769C120.844 659.769 120.425 659.451 120.425 658.943C120.425 658.461 120.818 658.15 121.51 658.099L122.945 658.01V658.505C122.945 659.242 122.278 659.769 121.466 659.769ZM128.785 661.133C129.458 661.133 129.845 660.841 130.08 660.188L131.851 655.401C131.908 655.243 131.952 655.052 131.952 654.881C131.952 654.411 131.565 654.056 131.051 654.056C130.619 654.056 130.308 654.291 130.181 654.779L128.804 659.362H128.766L127.388 654.798C127.249 654.297 126.95 654.056 126.5 654.056C125.973 654.056 125.573 654.386 125.573 654.887C125.573 655.078 125.617 655.274 125.674 655.439L127.445 660.188C127.693 660.848 128.074 661.133 128.785 661.133ZM135.735 661.146C137.049 661.146 138.103 660.651 138.554 659.813C138.636 659.661 138.681 659.508 138.681 659.362C138.681 658.937 138.357 658.683 137.957 658.683C137.716 658.683 137.551 658.753 137.354 658.956C136.853 659.546 136.408 659.775 135.729 659.775C134.79 659.775 134.18 659.115 134.18 658.105V658.023H138.065C138.579 658.023 138.871 657.731 138.871 657.217C138.871 655.37 137.576 654.049 135.646 654.049C133.634 654.049 132.358 655.439 132.358 657.629C132.358 659.832 133.609 661.146 135.735 661.146ZM134.199 656.887C134.263 656.017 134.853 655.42 135.666 655.42C136.478 655.42 137.049 655.998 137.087 656.887H134.199ZM144.419 661.108C145.27 661.108 146.12 660.683 146.501 659.959H146.539V660.308C146.577 660.854 146.926 661.133 147.428 661.133C147.955 661.133 148.329 660.816 148.329 660.2V656.322C148.329 654.951 147.193 654.049 145.447 654.049C144.038 654.049 142.946 654.551 142.629 655.363C142.565 655.503 142.534 655.636 142.534 655.782C142.534 656.201 142.857 656.493 143.308 656.493C143.606 656.493 143.841 656.379 144.044 656.15C144.457 655.617 144.8 655.433 145.365 655.433C146.063 655.433 146.507 655.801 146.507 656.436V656.887L144.793 656.988C143.092 657.09 142.14 657.807 142.14 659.045C142.14 660.27 143.124 661.108 144.419 661.108ZM145.028 659.769C144.406 659.769 143.987 659.451 143.987 658.943C143.987 658.461 144.381 658.15 145.073 658.099L146.507 658.01V658.505C146.507 659.242 145.841 659.769 145.028 659.769ZM150.456 661.133C151.001 661.133 151.382 660.803 151.382 660.168V657.096C151.382 656.214 151.909 655.604 152.741 655.604C153.572 655.604 153.991 656.112 153.991 657.001V660.168C153.991 660.803 154.372 661.133 154.918 661.133C155.458 661.133 155.845 660.803 155.845 660.168V656.614C155.845 655.021 154.994 654.068 153.483 654.068C152.436 654.068 151.75 654.532 151.389 655.376H151.351V654.995C151.351 654.411 150.982 654.056 150.424 654.056C149.865 654.056 149.529 654.411 149.529 654.989V660.168C149.529 660.803 149.916 661.133 150.456 661.133ZM160.364 661.121C160.872 661.121 161.158 660.867 161.335 660.257L161.818 658.829H165.125L165.607 660.276C165.779 660.873 166.064 661.121 166.604 661.121C167.163 661.121 167.562 660.746 167.562 660.219C167.562 660.029 167.531 659.857 167.442 659.61L164.928 652.792C164.655 652.043 164.211 651.713 163.462 651.713C162.738 651.713 162.288 652.056 162.021 652.799L159.52 659.61C159.438 659.845 159.393 660.061 159.393 660.219C159.393 660.771 159.768 661.121 160.364 661.121ZM162.237 657.344L163.424 653.592H163.468L164.681 657.344H162.237ZM171.422 661.146C172.723 661.146 173.885 660.499 174.291 659.572C174.374 659.388 174.412 659.235 174.412 659.089C174.412 658.632 174.062 658.347 173.631 658.347C173.237 658.347 173.034 658.505 172.787 658.893C172.501 659.375 172.101 659.692 171.454 659.692C170.527 659.692 169.949 658.931 169.949 657.591C169.949 656.277 170.527 655.503 171.466 655.503C172.057 655.503 172.469 655.776 172.806 656.373C172.996 656.709 173.218 656.855 173.586 656.855C174.024 656.855 174.38 656.588 174.38 656.131C174.38 655.998 174.342 655.833 174.278 655.674C173.91 654.709 172.774 654.049 171.409 654.049C169.365 654.049 168.07 655.42 168.07 657.598C168.07 659.8 169.372 661.146 171.422 661.146ZM178.506 661.146C179.807 661.146 180.969 660.499 181.375 659.572C181.458 659.388 181.496 659.235 181.496 659.089C181.496 658.632 181.146 658.347 180.715 658.347C180.321 658.347 180.118 658.505 179.871 658.893C179.585 659.375 179.185 659.692 178.538 659.692C177.611 659.692 177.033 658.931 177.033 657.591C177.033 656.277 177.611 655.503 178.55 655.503C179.141 655.503 179.553 655.776 179.89 656.373C180.08 656.709 180.302 656.855 180.67 656.855C181.108 656.855 181.464 656.588 181.464 656.131C181.464 655.998 181.426 655.833 181.362 655.674C180.994 654.709 179.858 654.049 178.493 654.049C176.449 654.049 175.154 655.42 175.154 657.598C175.154 659.8 176.456 661.146 178.506 661.146ZM185.609 661.146C187.666 661.146 188.979 659.832 188.979 657.591C188.979 655.382 187.646 654.049 185.609 654.049C183.571 654.049 182.238 655.389 182.238 657.591C182.238 659.826 183.552 661.146 185.609 661.146ZM185.609 659.73C184.695 659.73 184.117 658.962 184.117 657.598C184.117 656.246 184.708 655.465 185.609 655.465C186.51 655.465 187.094 656.246 187.094 657.598C187.094 658.962 186.517 659.73 185.609 659.73ZM192.356 661.127C193.385 661.127 194.058 660.632 194.394 659.775H194.432V660.194C194.432 660.81 194.794 661.133 195.327 661.133C195.86 661.133 196.222 660.81 196.222 660.194V655.027C196.222 654.392 195.841 654.056 195.295 654.056C194.756 654.056 194.369 654.392 194.369 655.027V658.093C194.369 658.994 193.854 659.584 193.029 659.584C192.21 659.584 191.76 659.102 191.76 658.194V655.027C191.76 654.392 191.379 654.056 190.833 654.056C190.293 654.056 189.906 654.392 189.906 655.027V658.582C189.906 660.168 190.884 661.127 192.356 661.127ZM198.355 661.133C198.901 661.133 199.282 660.803 199.282 660.168V657.096C199.282 656.214 199.809 655.604 200.64 655.604C201.472 655.604 201.891 656.112 201.891 657.001V660.168C201.891 660.803 202.271 661.133 202.817 661.133C203.357 661.133 203.744 660.803 203.744 660.168V656.614C203.744 655.021 202.894 654.068 201.383 654.068C200.335 654.068 199.65 654.532 199.288 655.376H199.25V654.995C199.25 654.411 198.882 654.056 198.323 654.056C197.765 654.056 197.428 654.411 197.428 654.989V660.168C197.428 660.803 197.815 661.133 198.355 661.133ZM205.414 659.261C205.414 660.46 206.042 661.076 207.28 661.076H207.343C208.124 661.076 208.657 660.797 208.657 660.251C208.657 659.819 208.41 659.629 207.953 659.578L207.832 659.565C207.432 659.534 207.267 659.331 207.267 658.848V655.592H207.921C208.359 655.592 208.632 655.319 208.632 654.894C208.632 654.468 208.359 654.195 207.921 654.195H207.267V653.44C207.267 652.843 206.918 652.475 206.34 652.475C205.763 652.475 205.414 652.843 205.414 653.44V654.195H205.058C204.62 654.195 204.341 654.462 204.341 654.894C204.341 655.325 204.62 655.592 205.058 655.592H205.414V659.261ZM214.688 658.334C215.138 658.334 215.386 658.086 215.481 657.661C215.563 657.128 215.754 656.855 216.598 656.366C217.493 655.839 217.957 655.186 217.957 654.227C217.957 652.748 216.744 651.758 214.941 651.758C213.577 651.758 212.561 652.297 212.155 653.135C212.028 653.376 211.964 653.618 211.964 653.891C211.964 654.373 212.275 654.684 212.777 654.684C213.164 654.684 213.45 654.506 213.608 654.1C213.812 653.535 214.23 653.23 214.853 653.23C215.551 653.23 216.033 653.662 216.033 654.284C216.033 654.868 215.786 655.186 214.967 655.674C214.218 656.112 213.831 656.607 213.831 657.356V657.445C213.831 657.966 214.148 658.334 214.688 658.334ZM214.7 661.159C215.278 661.159 215.741 660.721 215.741 660.162C215.741 659.604 215.278 659.166 214.7 659.166C214.129 659.166 213.666 659.604 213.666 660.162C213.666 660.721 214.129 661.159 214.7 661.159Z"
            fill="white" />
        <path
            d="M228.456 661.152C230.188 661.152 231.553 660.372 232.125 659.102C232.22 658.88 232.271 658.677 232.271 658.461C232.271 657.953 231.915 657.61 231.375 657.61C230.969 657.61 230.728 657.782 230.531 658.213C230.119 659.134 229.395 659.572 228.43 659.572C226.964 659.572 226.043 658.366 226.043 656.411C226.043 654.481 226.977 653.269 228.424 653.269C229.338 653.269 230.087 653.738 230.506 654.671C230.715 655.116 230.988 655.306 231.42 655.306C231.928 655.306 232.264 654.982 232.264 654.481C232.264 654.252 232.201 654.005 232.074 653.764C231.445 652.443 230.119 651.682 228.405 651.682C225.771 651.682 224.088 653.465 224.088 656.417C224.088 659.375 225.739 661.152 228.456 661.152ZM234.41 661.133C234.975 661.133 235.336 660.784 235.336 660.168V657.147C235.336 656.341 235.635 655.865 236.479 655.852C236.841 655.846 237.107 655.763 237.285 655.611C237.463 655.458 237.552 655.236 237.552 654.944C237.552 654.627 237.463 654.398 237.285 654.259C237.152 654.145 236.955 654.087 236.708 654.087C236.028 654.087 235.47 654.589 235.292 655.433H235.254V654.989C235.254 654.398 234.898 654.056 234.378 654.056C233.845 654.056 233.483 654.398 233.483 654.989V660.168C233.483 660.784 233.851 661.133 234.41 661.133ZM241.119 661.146C242.433 661.146 243.487 660.651 243.938 659.813C244.02 659.661 244.064 659.508 244.064 659.362C244.064 658.937 243.741 658.683 243.341 658.683C243.1 658.683 242.935 658.753 242.738 658.956C242.236 659.546 241.792 659.775 241.113 659.775C240.173 659.775 239.564 659.115 239.564 658.105V658.023H243.449C243.963 658.023 244.255 657.731 244.255 657.217C244.255 655.37 242.96 654.049 241.03 654.049C239.018 654.049 237.742 655.439 237.742 657.629C237.742 659.832 238.993 661.146 241.119 661.146ZM239.583 656.887C239.646 656.017 240.237 655.42 241.049 655.42C241.862 655.42 242.433 655.998 242.471 656.887H239.583ZM247.226 661.108C248.076 661.108 248.927 660.683 249.308 659.959H249.346V660.308C249.384 660.854 249.733 661.133 250.234 661.133C250.761 661.133 251.136 660.816 251.136 660.2V656.322C251.136 654.951 250 654.049 248.254 654.049C246.845 654.049 245.753 654.551 245.436 655.363C245.372 655.503 245.34 655.636 245.34 655.782C245.34 656.201 245.664 656.493 246.115 656.493C246.413 656.493 246.648 656.379 246.851 656.15C247.264 655.617 247.606 655.433 248.171 655.433C248.87 655.433 249.314 655.801 249.314 656.436V656.887L247.6 656.988C245.899 657.09 244.947 657.807 244.947 659.045C244.947 660.27 245.931 661.108 247.226 661.108ZM247.835 659.769C247.213 659.769 246.794 659.451 246.794 658.943C246.794 658.461 247.188 658.15 247.879 658.099L249.314 658.01V658.505C249.314 659.242 248.647 659.769 247.835 659.769ZM252.831 659.261C252.831 660.46 253.459 661.076 254.697 661.076H254.76C255.541 661.076 256.074 660.797 256.074 660.251C256.074 659.819 255.827 659.629 255.37 659.578L255.249 659.565C254.849 659.534 254.684 659.331 254.684 658.848V655.592H255.338C255.776 655.592 256.049 655.319 256.049 654.894C256.049 654.468 255.776 654.195 255.338 654.195H254.684V653.44C254.684 652.843 254.335 652.475 253.757 652.475C253.18 652.475 252.831 652.843 252.831 653.44V654.195H252.475C252.037 654.195 251.758 654.462 251.758 654.894C251.758 655.325 252.037 655.592 252.475 655.592H252.831V659.261ZM259.984 661.146C261.298 661.146 262.352 660.651 262.803 659.813C262.885 659.661 262.93 659.508 262.93 659.362C262.93 658.937 262.606 658.683 262.206 658.683C261.965 658.683 261.8 658.753 261.603 658.956C261.102 659.546 260.657 659.775 259.978 659.775C259.039 659.775 258.429 659.115 258.429 658.105V658.023H262.314C262.828 658.023 263.12 657.731 263.12 657.217C263.12 655.37 261.825 654.049 259.896 654.049C257.883 654.049 256.607 655.439 256.607 657.629C256.607 659.832 257.858 661.146 259.984 661.146ZM258.448 656.887C258.512 656.017 259.102 655.42 259.915 655.42C260.727 655.42 261.298 655.998 261.336 656.887H258.448ZM267.424 661.121C267.932 661.121 268.217 660.867 268.395 660.257L268.877 658.829H272.185L272.667 660.276C272.838 660.873 273.124 661.121 273.664 661.121C274.222 661.121 274.622 660.746 274.622 660.219C274.622 660.029 274.59 659.857 274.501 659.61L271.988 652.792C271.715 652.043 271.271 651.713 270.521 651.713C269.798 651.713 269.347 652.056 269.081 652.799L266.58 659.61C266.497 659.845 266.453 660.061 266.453 660.219C266.453 660.771 266.827 661.121 267.424 661.121ZM269.296 657.344L270.483 653.592H270.528L271.74 657.344H269.296ZM278.481 661.146C279.783 661.146 280.944 660.499 281.351 659.572C281.433 659.388 281.471 659.235 281.471 659.089C281.471 658.632 281.122 658.347 280.69 658.347C280.297 658.347 280.094 658.505 279.846 658.893C279.561 659.375 279.161 659.692 278.513 659.692C277.586 659.692 277.009 658.931 277.009 657.591C277.009 656.277 277.586 655.503 278.526 655.503C279.116 655.503 279.529 655.776 279.865 656.373C280.056 656.709 280.278 656.855 280.646 656.855C281.084 656.855 281.439 656.588 281.439 656.131C281.439 655.998 281.401 655.833 281.338 655.674C280.97 654.709 279.833 654.049 278.469 654.049C276.425 654.049 275.13 655.42 275.13 657.598C275.13 659.8 276.431 661.146 278.481 661.146ZM285.565 661.146C286.867 661.146 288.028 660.499 288.435 659.572C288.517 659.388 288.555 659.235 288.555 659.089C288.555 658.632 288.206 658.347 287.774 658.347C287.381 658.347 287.178 658.505 286.93 658.893C286.645 659.375 286.245 659.692 285.597 659.692C284.67 659.692 284.093 658.931 284.093 657.591C284.093 656.277 284.67 655.503 285.61 655.503C286.2 655.503 286.613 655.776 286.949 656.373C287.14 656.709 287.362 656.855 287.73 656.855C288.168 656.855 288.523 656.588 288.523 656.131C288.523 655.998 288.485 655.833 288.422 655.674C288.054 654.709 286.917 654.049 285.553 654.049C283.509 654.049 282.214 655.42 282.214 657.598C282.214 659.8 283.515 661.146 285.565 661.146ZM292.668 661.146C294.725 661.146 296.039 659.832 296.039 657.591C296.039 655.382 294.706 654.049 292.668 654.049C290.631 654.049 289.298 655.389 289.298 657.591C289.298 659.826 290.612 661.146 292.668 661.146ZM292.668 659.73C291.754 659.73 291.177 658.962 291.177 657.598C291.177 656.246 291.767 655.465 292.668 655.465C293.57 655.465 294.154 656.246 294.154 657.598C294.154 658.962 293.576 659.73 292.668 659.73ZM299.416 661.127C300.444 661.127 301.117 660.632 301.454 659.775H301.492V660.194C301.492 660.81 301.854 661.133 302.387 661.133C302.92 661.133 303.282 660.81 303.282 660.194V655.027C303.282 654.392 302.901 654.056 302.355 654.056C301.815 654.056 301.428 654.392 301.428 655.027V658.093C301.428 658.994 300.914 659.584 300.089 659.584C299.27 659.584 298.819 659.102 298.819 658.194V655.027C298.819 654.392 298.438 654.056 297.893 654.056C297.353 654.056 296.966 654.392 296.966 655.027V658.582C296.966 660.168 297.943 661.127 299.416 661.127ZM305.415 661.133C305.96 661.133 306.341 660.803 306.341 660.168V657.096C306.341 656.214 306.868 655.604 307.7 655.604C308.531 655.604 308.95 656.112 308.95 657.001V660.168C308.95 660.803 309.331 661.133 309.877 661.133C310.417 661.133 310.804 660.803 310.804 660.168V656.614C310.804 655.021 309.953 654.068 308.442 654.068C307.395 654.068 306.709 654.532 306.348 655.376H306.31V654.995C306.31 654.411 305.941 654.056 305.383 654.056C304.824 654.056 304.488 654.411 304.488 654.989V660.168C304.488 660.803 304.875 661.133 305.415 661.133ZM312.473 659.261C312.473 660.46 313.102 661.076 314.339 661.076H314.403C315.184 661.076 315.717 660.797 315.717 660.251C315.717 659.819 315.469 659.629 315.012 659.578L314.892 659.565C314.492 659.534 314.327 659.331 314.327 658.848V655.592H314.98C315.418 655.592 315.691 655.319 315.691 654.894C315.691 654.468 315.418 654.195 314.98 654.195H314.327V653.44C314.327 652.843 313.978 652.475 313.4 652.475C312.822 652.475 312.473 652.843 312.473 653.44V654.195H312.118C311.68 654.195 311.4 654.462 311.4 654.894C311.4 655.325 311.68 655.592 312.118 655.592H312.473V659.261Z"
            fill="#4285F4" />
        <path
            d="M98.6201 486H104.447C105.177 486 105.651 485.587 105.651 484.901C105.651 484.216 105.168 483.803 104.447 483.803H99.9473V474.53C99.9473 473.651 99.4551 473.142 98.6201 473.142C97.7852 473.142 97.293 473.651 97.293 474.53V484.611C97.293 485.49 97.7852 486 98.6201 486ZM111.03 486.202C113.878 486.202 115.697 484.383 115.697 481.28C115.697 478.222 113.852 476.376 111.03 476.376C108.209 476.376 106.363 478.23 106.363 481.28C106.363 484.374 108.183 486.202 111.03 486.202ZM111.03 484.242C109.765 484.242 108.965 483.179 108.965 481.289C108.965 479.417 109.782 478.336 111.03 478.336C112.278 478.336 113.087 479.417 113.087 481.289C113.087 483.179 112.287 484.242 111.03 484.242ZM121.234 489.542C124.267 489.56 126.042 488.083 126.042 485.631V477.686C126.042 476.815 125.506 476.385 124.768 476.385C124.029 476.385 123.476 476.815 123.476 477.686V478.204H123.423C122.931 477.141 121.902 476.429 120.549 476.429C118.123 476.429 116.682 478.178 116.682 481.131C116.682 484.005 118.158 485.798 120.505 485.798C121.867 485.798 122.966 485.121 123.405 484.11H123.458V485.613C123.458 486.791 122.632 487.564 121.226 487.556C120.373 487.547 119.705 487.187 119.011 486.527C118.721 486.264 118.457 486.158 118.123 486.158C117.481 486.158 117.077 486.562 117.077 487.099C117.077 487.336 117.13 487.573 117.271 487.811C117.877 488.804 119.31 489.533 121.234 489.542ZM121.375 483.891C120.101 483.891 119.31 482.88 119.31 481.157C119.31 479.452 120.109 478.38 121.375 478.38C122.658 478.38 123.484 479.47 123.484 481.166C123.484 482.871 122.658 483.891 121.375 483.891ZM129.039 475.409C129.812 475.409 130.41 474.82 130.41 474.082C130.41 473.335 129.812 472.755 129.039 472.755C128.266 472.755 127.668 473.335 127.668 474.082C127.668 474.82 128.266 475.409 129.039 475.409ZM129.039 486.185C129.83 486.185 130.322 485.684 130.322 484.849V477.729C130.322 476.895 129.83 476.385 129.039 476.385C128.239 476.385 127.756 476.895 127.756 477.729V484.849C127.756 485.684 128.239 486.185 129.039 486.185ZM133.319 486.185C134.075 486.185 134.603 485.728 134.603 484.849V480.595C134.603 479.373 135.332 478.529 136.483 478.529C137.635 478.529 138.215 479.232 138.215 480.463V484.849C138.215 485.728 138.742 486.185 139.498 486.185C140.245 486.185 140.781 485.728 140.781 484.849V479.927C140.781 477.721 139.604 476.402 137.512 476.402C136.062 476.402 135.112 477.044 134.611 478.213H134.559V477.686C134.559 476.877 134.049 476.385 133.275 476.385C132.502 476.385 132.036 476.877 132.036 477.677V484.849C132.036 485.728 132.572 486.185 133.319 486.185ZM146.661 483.592C146.661 485.253 147.531 486.105 149.245 486.105H149.333C150.414 486.105 151.152 485.719 151.152 484.963C151.152 484.365 150.81 484.102 150.177 484.031L150.01 484.014C149.456 483.97 149.228 483.688 149.228 483.021V478.512H150.133C150.739 478.512 151.117 478.134 151.117 477.545C151.117 476.956 150.739 476.578 150.133 476.578H149.228V475.532C149.228 474.706 148.744 474.196 147.944 474.196C147.145 474.196 146.661 474.706 146.661 475.532V476.578H146.169C145.562 476.578 145.176 476.947 145.176 477.545C145.176 478.143 145.562 478.512 146.169 478.512H146.661V483.592ZM156.558 486.202C159.405 486.202 161.225 484.383 161.225 481.28C161.225 478.222 159.379 476.376 156.558 476.376C153.736 476.376 151.891 478.23 151.891 481.28C151.891 484.374 153.71 486.202 156.558 486.202ZM156.558 484.242C155.292 484.242 154.492 483.179 154.492 481.289C154.492 479.417 155.31 478.336 156.558 478.336C157.806 478.336 158.614 479.417 158.614 481.289C158.614 483.179 157.814 484.242 156.558 484.242ZM167.72 489.489C169.785 489.489 170.875 488.593 171.754 486.158L174.646 478.301C174.733 478.055 174.786 477.756 174.786 477.545C174.786 476.868 174.276 476.385 173.538 476.385C172.879 476.385 172.51 476.692 172.299 477.404L170.251 483.943H170.207L168.159 477.422C167.948 476.675 167.597 476.385 166.92 476.385C166.164 476.385 165.593 476.886 165.593 477.58C165.593 477.791 165.646 478.072 165.742 478.336L168.748 486.264L168.616 486.598C168.309 487.257 167.825 487.45 167.377 487.45C167.201 487.45 167.104 487.441 166.929 487.441C166.349 487.441 165.988 487.767 165.988 488.285C165.988 489.059 166.595 489.489 167.72 489.489ZM179.954 486.202C182.802 486.202 184.621 484.383 184.621 481.28C184.621 478.222 182.775 476.376 179.954 476.376C177.133 476.376 175.287 478.23 175.287 481.28C175.287 484.374 177.106 486.202 179.954 486.202ZM179.954 484.242C178.688 484.242 177.889 483.179 177.889 481.289C177.889 479.417 178.706 478.336 179.954 478.336C181.202 478.336 182.011 479.417 182.011 481.289C182.011 483.179 181.211 484.242 179.954 484.242ZM189.297 486.176C190.721 486.176 191.652 485.49 192.118 484.304H192.171V484.884C192.171 485.736 192.672 486.185 193.41 486.185C194.148 486.185 194.649 485.736 194.649 484.884V477.729C194.649 476.851 194.122 476.385 193.366 476.385C192.619 476.385 192.083 476.851 192.083 477.729V481.975C192.083 483.223 191.371 484.04 190.229 484.04C189.095 484.04 188.471 483.372 188.471 482.115V477.729C188.471 476.851 187.943 476.385 187.188 476.385C186.44 476.385 185.904 476.851 185.904 477.729V482.651C185.904 484.849 187.258 486.176 189.297 486.176ZM197.603 486.185C198.385 486.185 198.886 485.701 198.886 484.849V480.665C198.886 479.549 199.299 478.89 200.468 478.872C200.969 478.863 201.338 478.749 201.584 478.538C201.83 478.327 201.953 478.02 201.953 477.615C201.953 477.176 201.83 476.859 201.584 476.666C201.399 476.508 201.127 476.429 200.784 476.429C199.844 476.429 199.07 477.123 198.824 478.292H198.771V477.677C198.771 476.859 198.279 476.385 197.559 476.385C196.82 476.385 196.319 476.859 196.319 477.677V484.849C196.319 485.701 196.829 486.185 197.603 486.185ZM207.508 486.167C208.211 486.167 208.606 485.815 208.853 484.972L209.521 482.994H214.1L214.768 484.998C215.005 485.824 215.4 486.167 216.147 486.167C216.921 486.167 217.475 485.648 217.475 484.919C217.475 484.655 217.431 484.418 217.308 484.075L213.827 474.636C213.449 473.599 212.834 473.142 211.797 473.142C210.795 473.142 210.171 473.616 209.802 474.645L206.339 484.075C206.225 484.4 206.163 484.699 206.163 484.919C206.163 485.684 206.682 486.167 207.508 486.167ZM210.101 480.938L211.744 475.743H211.806L213.484 480.938H210.101ZM222.818 486.202C224.62 486.202 226.229 485.306 226.791 484.022C226.905 483.768 226.958 483.557 226.958 483.354C226.958 482.722 226.475 482.326 225.877 482.326C225.332 482.326 225.051 482.546 224.708 483.082C224.312 483.75 223.759 484.189 222.862 484.189C221.579 484.189 220.779 483.135 220.779 481.28C220.779 479.461 221.579 478.389 222.88 478.389C223.697 478.389 224.269 478.767 224.734 479.593C224.998 480.059 225.306 480.261 225.815 480.261C226.422 480.261 226.914 479.892 226.914 479.259C226.914 479.074 226.861 478.846 226.773 478.626C226.264 477.29 224.69 476.376 222.801 476.376C219.971 476.376 218.178 478.274 218.178 481.289C218.178 484.339 219.979 486.202 222.818 486.202ZM232.627 486.202C234.429 486.202 236.037 485.306 236.6 484.022C236.714 483.768 236.767 483.557 236.767 483.354C236.767 482.722 236.283 482.326 235.686 482.326C235.141 482.326 234.859 482.546 234.517 483.082C234.121 483.75 233.567 484.189 232.671 484.189C231.388 484.189 230.588 483.135 230.588 481.28C230.588 479.461 231.388 478.389 232.688 478.389C233.506 478.389 234.077 478.767 234.543 479.593C234.807 480.059 235.114 480.261 235.624 480.261C236.23 480.261 236.723 479.892 236.723 479.259C236.723 479.074 236.67 478.846 236.582 478.626C236.072 477.29 234.499 476.376 232.609 476.376C229.779 476.376 227.986 478.274 227.986 481.289C227.986 484.339 229.788 486.202 232.627 486.202ZM242.462 486.202C245.31 486.202 247.129 484.383 247.129 481.28C247.129 478.222 245.283 476.376 242.462 476.376C239.641 476.376 237.795 478.23 237.795 481.28C237.795 484.374 239.614 486.202 242.462 486.202ZM242.462 484.242C241.196 484.242 240.396 483.179 240.396 481.289C240.396 479.417 241.214 478.336 242.462 478.336C243.71 478.336 244.519 479.417 244.519 481.289C244.519 483.179 243.719 484.242 242.462 484.242ZM251.805 486.176C253.229 486.176 254.16 485.49 254.626 484.304H254.679V484.884C254.679 485.736 255.18 486.185 255.918 486.185C256.656 486.185 257.157 485.736 257.157 484.884V477.729C257.157 476.851 256.63 476.385 255.874 476.385C255.127 476.385 254.591 476.851 254.591 477.729V481.975C254.591 483.223 253.879 484.04 252.736 484.04C251.603 484.04 250.979 483.372 250.979 482.115V477.729C250.979 476.851 250.451 476.385 249.695 476.385C248.948 476.385 248.412 476.851 248.412 477.729V482.651C248.412 484.849 249.766 486.176 251.805 486.176ZM260.11 486.185C260.866 486.185 261.394 485.728 261.394 484.849V480.595C261.394 479.373 262.123 478.529 263.274 478.529C264.426 478.529 265.006 479.232 265.006 480.463V484.849C265.006 485.728 265.533 486.185 266.289 486.185C267.036 486.185 267.572 485.728 267.572 484.849V479.927C267.572 477.721 266.395 476.402 264.303 476.402C262.853 476.402 261.903 477.044 261.402 478.213H261.35V477.686C261.35 476.877 260.84 476.385 260.066 476.385C259.293 476.385 258.827 476.877 258.827 477.677V484.849C258.827 485.728 259.363 486.185 260.11 486.185ZM269.884 483.592C269.884 485.253 270.754 486.105 272.468 486.105H272.556C273.637 486.105 274.375 485.719 274.375 484.963C274.375 484.365 274.032 484.102 273.399 484.031L273.232 484.014C272.679 483.97 272.45 483.688 272.45 483.021V478.512H273.355C273.962 478.512 274.34 478.134 274.34 477.545C274.34 476.956 273.962 476.578 273.355 476.578H272.45V475.532C272.45 474.706 271.967 474.196 271.167 474.196C270.367 474.196 269.884 474.706 269.884 475.532V476.578H269.392C268.785 476.578 268.398 476.947 268.398 477.545C268.398 478.143 268.785 478.512 269.392 478.512H269.884V483.592Z"
            fill="white" />

    </g>
</svg>