<svg width="375" height="812" fill="none" xmlns="http://www.w3.org/2000/svg"><style>@media (prefers-color-scheme:dark){#prefix__light{display:none}}@media (prefers-color-scheme:light){#prefix__dark{display:none}}</style><g id="prefix__light"><rect width="375" height="812" rx="10" fill="#fff"/><path d="M239.096 224.947c3.784 0 6.892-3.078 6.454-6.836a58.95 58.95 0 00-100.232-34.846 58.948 58.948 0 00-16.868 34.846c-.439 3.758 2.67 6.836 6.454 6.836h15.373c3.784 0 6.774-3.107 7.634-6.792A29.875 29.875 0 01187 195.076a29.871 29.871 0 0129.089 23.079c.86 3.685 3.85 6.792 7.634 6.792h15.373zM239.096 247.053c3.784 0 6.892 3.077 6.454 6.836a58.94 58.94 0 01-16.868 34.846A58.954 58.954 0 01187 306a58.954 58.954 0 01-41.682-17.265 58.938 58.938 0 01-16.868-34.846c-.439-3.759 2.67-6.836 6.454-6.836h15.373c3.784 0 6.774 3.106 7.634 6.791a29.869 29.869 0 0050.211 14.331 29.869 29.869 0 007.967-14.331c.86-3.685 3.85-6.791 7.634-6.791h15.373zM112.412 350.422c4.799 0 8.578-2.162 10.16-5.678.264-.615.405-1.178.405-1.775 0-1.407-.985-2.356-2.479-2.356-1.125 0-1.793.475-2.338 1.67-1.142 2.549-3.146 3.762-5.818 3.762-4.061 0-6.61-3.34-6.61-8.754 0-5.344 2.584-8.701 6.592-8.701 2.531 0 4.606 1.301 5.766 3.885.58 1.23 1.336 1.757 2.531 1.757 1.406 0 2.338-.896 2.338-2.285 0-.633-.176-1.318-.527-1.986-1.741-3.656-5.414-5.766-10.161-5.766-7.294 0-11.953 4.94-11.953 13.114 0 8.191 4.571 13.113 12.094 13.113zm16.611-.053c1.512 0 2.567-.914 2.567-2.672v-8.455c0-2.478 1.424-4.183 3.849-4.183 2.338 0 3.534 1.476 3.534 3.902v8.736c0 1.758 1.072 2.672 2.566 2.672 1.512 0 2.566-.914 2.566-2.672v-9.826c0-4.359-2.39-7.066-6.574-7.066-2.865 0-4.922 1.336-5.924 3.709h-.105v-7.629c0-1.653-.932-2.637-2.514-2.637-1.582 0-2.531.984-2.531 2.637v20.812c0 1.758 1.072 2.672 2.566 2.672zm23.942-.07c2.355 0 4.711-1.178 5.765-3.182h.106v.967c.105 1.512 1.072 2.285 2.461 2.285 1.459 0 2.496-.879 2.496-2.584v-10.74c0-3.797-3.147-6.293-7.981-6.293-3.902 0-6.925 1.389-7.804 3.639a2.716 2.716 0 00-.264 1.16c0 1.16.897 1.969 2.145 1.969.826 0 1.476-.317 2.039-.95 1.142-1.476 2.092-1.986 3.656-1.986 1.934 0 3.164 1.02 3.164 2.777v1.248l-4.746.282c-4.711.281-7.348 2.267-7.348 5.695 0 3.393 2.725 5.713 6.311 5.713zm1.687-3.709c-1.722 0-2.882-.879-2.882-2.285 0-1.336 1.089-2.198 3.005-2.338l3.973-.246v1.371c0 2.039-1.846 3.498-4.096 3.498zm15.03 10.125c1.511 0 2.566-.914 2.566-2.672v-7.207h.106c1.001 2.127 3.111 3.463 5.853 3.463 4.711 0 7.629-3.656 7.629-9.721 0-6.082-2.936-9.721-7.717-9.721-2.724 0-4.816 1.372-5.836 3.586h-.105v-1.019c0-1.74-1.055-2.654-2.532-2.654-1.476 0-2.531.914-2.531 2.636v20.637c0 1.758 1.073 2.672 2.567 2.672zm6.714-10.547c-2.513 0-4.166-2.18-4.166-5.59 0-3.375 1.653-5.607 4.166-5.607 2.567 0 4.184 2.197 4.184 5.607 0 3.428-1.617 5.59-4.184 5.59zm23.836 4.254c4.799 0 8.579-2.162 10.161-5.678.263-.615.404-1.178.404-1.775 0-1.407-.985-2.356-2.479-2.356-1.125 0-1.793.475-2.338 1.67-1.142 2.549-3.146 3.762-5.818 3.762-4.06 0-6.609-3.34-6.609-8.754 0-5.344 2.584-8.701 6.592-8.701 2.531 0 4.605 1.301 5.765 3.885.58 1.23 1.336 1.757 2.531 1.757 1.407 0 2.338-.896 2.338-2.285 0-.633-.175-1.318-.527-1.986-1.74-3.656-5.414-5.766-10.16-5.766-7.295 0-11.953 4.94-11.953 13.114 0 8.191 4.57 13.113 12.093 13.113zm16.612-.053c1.511 0 2.566-.914 2.566-2.672v-8.455c0-2.478 1.424-4.183 3.85-4.183 2.338 0 3.533 1.476 3.533 3.902v8.736c0 1.758 1.072 2.672 2.566 2.672 1.512 0 2.567-.914 2.567-2.672v-9.826c0-4.359-2.391-7.066-6.574-7.066-2.866 0-4.922 1.336-5.924 3.709h-.106v-7.629c0-1.653-.931-2.637-2.513-2.637-1.582 0-2.532.984-2.532 2.637v20.812c0 1.758 1.073 2.672 2.567 2.672zm23.941-.07c2.356 0 4.711-1.178 5.766-3.182h.105v.967c.106 1.512 1.073 2.285 2.461 2.285 1.459 0 2.496-.879 2.496-2.584v-10.74c0-3.797-3.146-6.293-7.98-6.293-3.903 0-6.926 1.389-7.805 3.639a2.716 2.716 0 00-.264 1.16c0 1.16.897 1.969 2.145 1.969.826 0 1.477-.317 2.039-.95 1.143-1.476 2.092-1.986 3.656-1.986 1.934 0 3.164 1.02 3.164 2.777v1.248l-4.746.282c-4.711.281-7.347 2.267-7.347 5.695 0 3.393 2.724 5.713 6.31 5.713zm1.688-3.709c-1.723 0-2.883-.879-2.883-2.285 0-1.336 1.09-2.198 3.006-2.338l3.972-.246v1.371c0 2.039-1.845 3.498-4.095 3.498zm15.029 10.125c1.512 0 2.566-.914 2.566-2.672v-7.207h.106c1.002 2.127 3.111 3.463 5.853 3.463 4.711 0 7.629-3.656 7.629-9.721 0-6.082-2.935-9.721-7.717-9.721-2.724 0-4.816 1.372-5.835 3.586h-.106v-1.019c0-1.74-1.055-2.654-2.531-2.654-1.477 0-2.531.914-2.531 2.636v20.637c0 1.758 1.072 2.672 2.566 2.672zm6.715-10.547c-2.514 0-4.166-2.18-4.166-5.59 0-3.375 1.652-5.607 4.166-5.607 2.566 0 4.183 2.197 4.183 5.607 0 3.428-1.617 5.59-4.183 5.59z" fill="#000"/><rect x="52" y="390" width="270" height="52" rx="16" fill="#F1F3F4"/><path d="M83.875 421h5.149c.52 0 .864-.308.864-.798 0-.491-.344-.799-.864-.799H84.82v-3.017h3.984c.49 0 .813-.293.813-.755 0-.461-.33-.747-.813-.747H84.82v-2.856h4.204c.52 0 .864-.308.864-.799 0-.49-.344-.798-.864-.798h-5.149c-.586 0-.945.366-.945.982v8.606c0 .615.36.981.945.981zm9.162.146c.534 0 .915-.344.915-.959v-3.684c0-1.113.667-1.868 1.714-1.868 1.04 0 1.553.615 1.553 1.714v3.838c0 .615.38.959.915.959s.909-.344.909-.959v-4.204c0-1.795-.975-2.893-2.688-2.893-1.194 0-2 .535-2.417 1.457H93.9v-.542c0-.564-.366-.922-.9-.922-.543 0-.873.358-.873.922v6.182c0 .615.374.959.909.959zm8.876-2.065c0 1.326.688 2 2.043 2h.073c.835 0 1.304-.286 1.304-.821 0-.425-.249-.63-.732-.674l-.132-.014c-.527-.044-.732-.301-.732-.886v-4.043h.842c.454 0 .732-.271.732-.711 0-.432-.278-.696-.732-.696h-.842v-1.032c0-.586-.352-.953-.909-.953-.564 0-.915.367-.915.953v1.032h-.491c-.454 0-.732.264-.732.696 0 .44.278.711.732.711h.491v4.438zm8.737 2.073c1.479 0 2.636-.579 3.149-1.568a1.06 1.06 0 00.125-.461c0-.439-.323-.703-.733-.703-.256 0-.425.08-.615.293-.586.747-1.121 1.033-1.941 1.033-1.186 0-1.941-.835-1.941-2.132v-.058h4.578c.542 0 .849-.323.849-.865 0-2.109-1.45-3.618-3.574-3.618-2.241 0-3.669 1.597-3.669 4.072 0 2.52 1.399 4.007 3.772 4.007zm-1.941-4.798c.073-1.113.82-1.867 1.845-1.867 1.026 0 1.744.74 1.78 1.867h-3.625zm8.4 4.79c.549 0 .915-.358.915-.959v-3.735c0-.945.396-1.597 1.436-1.604.359-.008.63-.088.806-.242.183-.147.271-.359.271-.645 0-.3-.088-.52-.257-.659-.139-.124-.359-.198-.644-.198-.777 0-1.451.586-1.663 1.495h-.037v-.594c0-.571-.358-.922-.864-.922-.52 0-.871.351-.871.922v6.182c0 .601.358.959.908.959zm10.164 2.74c1.553 0 2.358-.674 3.062-2.608l2.556-6.84c.066-.176.102-.381.102-.528 0-.483-.366-.827-.886-.827-.461 0-.725.212-.879.71l-1.853 5.654h-.029l-1.853-5.647c-.154-.512-.41-.717-.872-.717-.534 0-.937.351-.937.849 0 .147.036.337.102.52l2.542 6.687-.132.381c-.271.681-.696.894-1.106.894-.169 0-.242-.008-.396-.008-.424 0-.688.242-.688.615 0 .557.447.865 1.267.865zm10.839-2.732c2.278 0 3.757-1.516 3.757-4.036 0-2.512-1.494-4.043-3.757-4.043s-3.757 1.538-3.757 4.043c0 2.52 1.479 4.036 3.757 4.036zm0-1.443c-1.157 0-1.904-.938-1.904-2.593 0-1.648.754-2.593 1.904-2.593 1.157 0 1.904.945 1.904 2.593 0 1.655-.747 2.593-1.904 2.593zm8.546 1.428c1.18 0 1.963-.542 2.374-1.487h.036v.572c0 .586.359.922.886.922.52 0 .872-.336.872-.922v-6.175c0-.615-.381-.966-.908-.966-.535 0-.916.351-.916.959v3.684c0 1.128-.652 1.875-1.706 1.875-1.026 0-1.568-.601-1.568-1.714v-3.838c0-.615-.381-.966-.915-.966-.535 0-.908.351-.908.959v4.211c0 1.795 1.069 2.886 2.753 2.886zm7.47.007c.55 0 .916-.358.916-.959v-3.735c0-.945.395-1.597 1.435-1.604.359-.008.63-.088.806-.242.183-.147.271-.359.271-.645 0-.3-.088-.52-.256-.659-.139-.124-.359-.198-.645-.198-.776 0-1.45.586-1.662 1.495h-.037v-.594c0-.571-.359-.922-.864-.922-.52 0-.872.351-.872.922v6.182c0 .601.359.959.908.959zm10.179-.146h5.149c.52 0 .864-.308.864-.798 0-.491-.344-.799-.864-.799h-4.204v-3.017h3.984c.491 0 .813-.293.813-.755 0-.461-.329-.747-.813-.747h-3.984v-2.856h4.204c.52 0 .864-.308.864-.799 0-.49-.344-.798-.864-.798h-5.149c-.586 0-.945.366-.945.982v8.606c0 .615.359.981.945.981zm9.162.146c.542 0 .915-.351.915-.959v-3.94c0-.938.616-1.619 1.495-1.619.849 0 1.377.535 1.377 1.399v4.16c0 .608.336.959.886.959.542 0 .886-.351.886-.959v-3.984c0-.931.601-1.575 1.48-1.575.893 0 1.391.542 1.391 1.494v4.065c0 .608.366.959.916.959.542 0 .908-.351.908-.959v-4.512c0-1.552-1.004-2.585-2.534-2.585-1.121 0-2.044.6-2.417 1.56h-.044c-.286-.996-1.07-1.56-2.168-1.56-1.055 0-1.875.593-2.212 1.494h-.037v-.571c0-.594-.366-.93-.879-.93-.512 0-.871.336-.871.93v6.174c0 .608.359.959.908.959zm14.897-.021c1.003 0 1.977-.521 2.424-1.363h.036v.542c.03.542.374.842.872.842.513 0 .886-.329.886-.915v-4.578c0-1.56-1.252-2.578-3.178-2.578-1.487 0-2.688.571-3.084 1.472-.08.169-.124.33-.124.498 0 .44.322.733.769.733a.876.876 0 00.739-.366c.454-.667.916-.909 1.626-.909.901 0 1.451.469 1.451 1.282v.557l-2.059.117c-1.889.117-2.951.945-2.951 2.322 0 1.399 1.091 2.344 2.593 2.344zm.556-1.377c-.791 0-1.326-.403-1.326-1.04 0-.616.506-1.011 1.385-1.07l1.802-.11v.594c0 .937-.835 1.626-1.861 1.626zm6.987-7.603c.571 0 1.018-.439 1.018-.989 0-.556-.447-.989-1.018-.989a.99.99 0 00-1.011.989c0 .55.447.989 1.011.989zm0 9.001c.556 0 .915-.366.915-.959v-6.138c0-.593-.359-.966-.915-.966-.557 0-.909.373-.909.959v6.145c0 .593.352.959.909.959zm4.313 0c.534 0 .908-.344.908-.959v-8.943c0-.615-.374-.959-.908-.959-.535 0-.916.344-.916.959v8.943c0 .615.381.959.916.959z" fill="#6A6A6A"/><rect x="52" y="465" width="270" height="52" rx="16" fill="#F1F3F4"/><path d="M83.875 496h5.149c.52 0 .864-.308.864-.798 0-.491-.344-.799-.864-.799H84.82v-3.017h3.984c.49 0 .813-.293.813-.755 0-.461-.33-.747-.813-.747H84.82v-2.856h4.204c.52 0 .864-.308.864-.799 0-.49-.344-.798-.864-.798h-5.149c-.586 0-.945.366-.945.982v8.606c0 .615.36.981.945.981zm9.162.146c.534 0 .915-.344.915-.959v-3.684c0-1.113.667-1.868 1.714-1.868 1.04 0 1.553.615 1.553 1.714v3.838c0 .615.38.959.915.959s.909-.344.909-.959v-4.204c0-1.795-.975-2.893-2.688-2.893-1.194 0-2 .535-2.417 1.457H93.9v-.542c0-.564-.366-.922-.9-.922-.543 0-.873.358-.873.922v6.182c0 .615.374.959.909.959zm8.876-2.065c0 1.326.688 2 2.043 2h.073c.835 0 1.304-.286 1.304-.821 0-.425-.249-.63-.732-.674l-.132-.014c-.527-.044-.732-.301-.732-.886v-4.043h.842c.454 0 .732-.271.732-.711 0-.432-.278-.696-.732-.696h-.842v-1.032c0-.586-.352-.953-.909-.953-.564 0-.915.367-.915.953v1.032h-.491c-.454 0-.732.264-.732.696 0 .44.278.711.732.711h.491v4.438zm8.737 2.073c1.479 0 2.636-.579 3.149-1.568a1.06 1.06 0 00.125-.461c0-.439-.323-.703-.733-.703-.256 0-.425.08-.615.293-.586.747-1.121 1.033-1.941 1.033-1.186 0-1.941-.835-1.941-2.132v-.058h4.578c.542 0 .849-.323.849-.865 0-2.109-1.45-3.618-3.574-3.618-2.241 0-3.669 1.597-3.669 4.072 0 2.52 1.399 4.007 3.772 4.007zm-1.941-4.798c.073-1.113.82-1.867 1.845-1.867 1.026 0 1.744.74 1.78 1.867h-3.625zm8.4 4.79c.549 0 .915-.358.915-.959v-3.735c0-.945.396-1.597 1.436-1.604.359-.008.63-.088.806-.242.183-.147.271-.359.271-.645 0-.3-.088-.52-.257-.659-.139-.124-.359-.198-.644-.198-.777 0-1.451.586-1.663 1.495h-.037v-.594c0-.571-.358-.922-.864-.922-.52 0-.871.351-.871.922v6.182c0 .601.358.959.908.959zm10.164 2.74c1.553 0 2.358-.674 3.062-2.608l2.556-6.84c.066-.176.102-.381.102-.528 0-.483-.366-.827-.886-.827-.461 0-.725.212-.879.71l-1.853 5.654h-.029l-1.853-5.647c-.154-.512-.41-.717-.872-.717-.534 0-.937.351-.937.849 0 .147.036.337.102.52l2.542 6.687-.132.381c-.271.681-.696.894-1.106.894-.169 0-.242-.008-.396-.008-.424 0-.688.242-.688.615 0 .557.447.865 1.267.865zm10.839-2.732c2.278 0 3.757-1.516 3.757-4.036 0-2.512-1.494-4.043-3.757-4.043s-3.757 1.538-3.757 4.043c0 2.52 1.479 4.036 3.757 4.036zm0-1.443c-1.157 0-1.904-.938-1.904-2.593 0-1.648.754-2.593 1.904-2.593 1.157 0 1.904.945 1.904 2.593 0 1.655-.747 2.593-1.904 2.593zm8.546 1.428c1.18 0 1.963-.542 2.374-1.487h.036v.572c0 .586.359.922.886.922.52 0 .872-.336.872-.922v-6.175c0-.615-.381-.966-.908-.966-.535 0-.916.351-.916.959v3.684c0 1.128-.652 1.875-1.706 1.875-1.026 0-1.568-.601-1.568-1.714v-3.838c0-.615-.381-.966-.915-.966-.535 0-.908.351-.908.959v4.211c0 1.795 1.069 2.886 2.753 2.886zm7.47.007c.55 0 .916-.358.916-.959v-3.735c0-.945.395-1.597 1.435-1.604.359-.008.63-.088.806-.242.183-.147.271-.359.271-.645 0-.3-.088-.52-.256-.659-.139-.124-.359-.198-.645-.198-.776 0-1.45.586-1.662 1.495h-.037v-.594c0-.571-.359-.922-.864-.922-.52 0-.872.351-.872.922v6.182c0 .601.359.959.908.959zm10.179-.021c.593 0 .945-.359.945-.982v-2.637h2.139c2.138 0 3.64-1.428 3.64-3.537 0-2.11-1.458-3.538-3.56-3.538h-3.164c-.586 0-.945.366-.945.982v8.73c0 .623.359.982.945.982zm.945-5.142v-4.006h1.721c1.355 0 2.139.725 2.139 1.992 0 1.281-.791 2.014-2.146 2.014h-1.714zm9.587 5.142c1.003 0 1.977-.521 2.424-1.363h.037v.542c.029.542.373.842.871.842.513 0 .886-.329.886-.915v-4.578c0-1.56-1.252-2.578-3.178-2.578-1.487 0-2.688.571-3.084 1.472-.08.169-.124.33-.124.498 0 .44.322.733.769.733a.876.876 0 00.739-.366c.454-.667.916-.909 1.626-.909.901 0 1.451.469 1.451 1.282v.557l-2.059.117c-1.889.117-2.951.945-2.951 2.322 0 1.399 1.091 2.344 2.593 2.344zm.556-1.377c-.791 0-1.325-.403-1.325-1.04 0-.616.505-1.011 1.384-1.07l1.802-.11v.594c0 .937-.835 1.626-1.861 1.626zm9.03 1.406c1.978 0 3.311-.974 3.311-2.461 0-1.15-.652-1.743-2.293-2.117l-1.238-.271c-.805-.183-1.142-.491-1.142-.945 0-.556.549-.944 1.347-.944.769 0 1.216.336 1.575.871.169.242.432.337.696.337.461 0 .703-.271.703-.652 0-.088-.015-.176-.037-.271-.241-.893-1.398-1.626-2.893-1.626-1.919 0-3.164.945-3.164 2.388 0 1.128.747 1.875 2.264 2.219l1.259.286c.799.183 1.092.439 1.092.908 0 .586-.564.945-1.414.945-.872 0-1.34-.264-1.75-.857-.235-.308-.491-.447-.791-.447-.44 0-.762.278-.762.718 0 .11.022.227.073.359.374.93 1.523 1.56 3.164 1.56zm8.356 0c1.978 0 3.311-.974 3.311-2.461 0-1.15-.652-1.743-2.293-2.117l-1.238-.271c-.805-.183-1.142-.491-1.142-.945 0-.556.549-.944 1.348-.944.769 0 1.215.336 1.574.871.169.242.432.337.696.337.461 0 .703-.271.703-.652 0-.088-.015-.176-.036-.271-.242-.893-1.399-1.626-2.894-1.626-1.918 0-3.164.945-3.164 2.388 0 1.128.747 1.875 2.264 2.219l1.259.286c.799.183 1.092.439 1.092.908 0 .586-.564.945-1.414.945-.872 0-1.34-.264-1.75-.857-.235-.308-.491-.447-.791-.447-.44 0-.762.278-.762.718 0 .11.022.227.073.359.374.93 1.524 1.56 3.164 1.56zm7.785-.008c.63 0 1.003-.3 1.157-.937l1.333-4.885h.037l1.333 4.878c.168.666.52.944 1.172.944.615 0 .974-.3 1.157-.937l1.677-5.815c.066-.22.095-.374.095-.535 0-.462-.351-.776-.871-.776-.447 0-.725.256-.835.761l-1.289 5.354h-.044l-1.363-5.281c-.124-.549-.476-.834-1.025-.834-.557 0-.915.292-1.04.834l-1.355 5.281h-.037l-1.289-5.346c-.109-.506-.395-.769-.849-.769-.52 0-.879.322-.879.783 0 .161.029.315.088.542l1.684 5.801c.191.652.528.937 1.143.937zm13.249.008c2.277 0 3.757-1.516 3.757-4.036 0-2.512-1.494-4.043-3.757-4.043-2.264 0-3.758 1.538-3.758 4.043 0 2.52 1.48 4.036 3.758 4.036zm0-1.443c-1.158 0-1.905-.938-1.905-2.593 0-1.648.755-2.593 1.905-2.593 1.157 0 1.904.945 1.904 2.593 0 1.655-.747 2.593-1.904 2.593zm6.737 1.435c.549 0 .915-.358.915-.959v-3.735c0-.945.396-1.597 1.436-1.604.359-.008.63-.088.806-.242.183-.147.271-.359.271-.645 0-.3-.088-.52-.257-.659-.139-.124-.359-.198-.644-.198-.777 0-1.45.586-1.663 1.495h-.036v-.594c0-.571-.359-.922-.865-.922-.52 0-.871.351-.871.922v6.182c0 .601.359.959.908.959zm7.755-.021c1.202 0 2.037-.608 2.41-1.502h.037v.608c0 .593.395.915.923.915.527 0 .9-.329.9-.915v-8.987c0-.615-.38-.959-.915-.959s-.908.344-.908.959v3.296h-.044c-.41-.857-1.289-1.436-2.403-1.436-1.955 0-3.222 1.553-3.222 4.007 0 2.468 1.267 4.014 3.222 4.014zm.55-1.495c-1.179 0-1.905-.966-1.905-2.512 0-1.538.733-2.512 1.905-2.512 1.15 0 1.904.989 1.904 2.512 0 1.538-.754 2.512-1.904 2.512z" fill="#6A6A6A"/><rect x="52" y="537" width="270" height="55" rx="16" fill="#000"/><path d="M166.382 571h5.827c.729 0 1.204-.413 1.204-1.099 0-.685-.483-1.098-1.204-1.098h-4.5v-9.273c0-.879-.492-1.388-1.327-1.388s-1.327.509-1.327 1.388v10.081c0 .879.492 1.389 1.327 1.389zm12.41.202c2.848 0 4.667-1.819 4.667-4.922 0-3.058-1.846-4.904-4.667-4.904-2.821 0-4.667 1.854-4.667 4.904 0 3.094 1.819 4.922 4.667 4.922zm0-1.96c-1.266 0-2.065-1.063-2.065-2.953 0-1.872.817-2.953 2.065-2.953s2.057 1.081 2.057 2.953c0 1.89-.8 2.953-2.057 2.953zm10.204 5.3c3.032.018 4.808-1.459 4.808-3.911v-7.945c0-.871-.536-1.301-1.275-1.301-.738 0-1.292.43-1.292 1.301v.518h-.052c-.493-1.063-1.521-1.775-2.874-1.775-2.426 0-3.868 1.749-3.868 4.702 0 2.874 1.477 4.667 3.824 4.667 1.362 0 2.461-.677 2.9-1.688h.053v1.503c0 1.178-.826 1.951-2.233 1.943-.852-.009-1.52-.369-2.215-1.029-.29-.263-.553-.369-.887-.369-.642 0-1.046.404-1.046.941 0 .237.053.474.193.712.607.993 2.039 1.722 3.964 1.731zm.141-5.651c-1.275 0-2.066-1.011-2.066-2.734 0-1.705.8-2.777 2.066-2.777 1.283 0 2.109 1.09 2.109 2.786 0 1.705-.826 2.725-2.109 2.725zm7.664-8.482c.773 0 1.371-.589 1.371-1.327 0-.747-.598-1.327-1.371-1.327-.774 0-1.371.58-1.371 1.327 0 .738.597 1.327 1.371 1.327zm0 10.776c.791 0 1.283-.501 1.283-1.336v-7.12c0-.834-.492-1.344-1.283-1.344-.8 0-1.283.51-1.283 1.344v7.12c0 .835.483 1.336 1.283 1.336zm4.28 0c.756 0 1.283-.457 1.283-1.336v-4.254c0-1.222.73-2.066 1.881-2.066s1.732.703 1.732 1.934v4.386c0 .879.527 1.336 1.283 1.336.747 0 1.283-.457 1.283-1.336v-4.922c0-2.206-1.178-3.525-3.27-3.525-1.45 0-2.399.642-2.9 1.811h-.053v-.527c0-.809-.509-1.301-1.283-1.301-.773 0-1.239.492-1.239 1.292v7.172c0 .879.536 1.336 1.283 1.336z" fill="#fff"/><path d="M214.972 625.121c.603 0 .959-.369.959-.997v-2.729h3.015c.501 0 .819-.286.819-.762 0-.47-.324-.756-.819-.756h-3.015v-2.45h3.326c.52 0 .869-.298.869-.793 0-.495-.342-.794-.869-.794h-4.285c-.603 0-.958.368-.958.997v7.287c0 .628.355.997.958.997zm8.95.025c2.057 0 3.371-1.314 3.371-3.555 0-2.209-1.333-3.542-3.371-3.542-2.037 0-3.37 1.34-3.37 3.542 0 2.235 1.314 3.555 3.37 3.555zm0-1.416c-.914 0-1.491-.768-1.491-2.132 0-1.352.59-2.133 1.491-2.133.902 0 1.486.781 1.486 2.133 0 1.364-.578 2.132-1.486 2.132zm5.256 1.403c.565 0 .927-.349.927-.965v-3.021c0-.806.298-1.282 1.143-1.295.361-.006.628-.089.806-.241.177-.153.266-.375.266-.667 0-.317-.089-.546-.266-.685-.134-.114-.33-.172-.578-.172-.679 0-1.238.502-1.415 1.346h-.039v-.444c0-.591-.355-.933-.876-.933-.533 0-.895.342-.895.933v5.179c0 .616.369.965.927.965zm6.621 2.425c2.19.013 3.472-1.054 3.472-2.825v-5.738c0-.628-.387-.939-.92-.939-.534 0-.934.311-.934.939v.375h-.038c-.355-.768-1.098-1.283-2.075-1.283-1.752 0-2.793 1.264-2.793 3.396 0 2.076 1.066 3.371 2.761 3.371.984 0 1.777-.489 2.095-1.219h.038v1.086c0 .85-.597 1.409-1.613 1.403-.615-.007-1.098-.267-1.599-.743-.21-.191-.4-.267-.641-.267-.464 0-.756.292-.756.679 0 .172.038.343.14.515.438.717 1.473 1.244 2.863 1.25zm.101-4.081c-.92 0-1.491-.73-1.491-1.975 0-1.231.577-2.005 1.491-2.005.927 0 1.524.787 1.524 2.012 0 1.231-.597 1.968-1.524 1.968zm7.7 1.669c2.057 0 3.371-1.314 3.371-3.555 0-2.209-1.333-3.542-3.371-3.542-2.038 0-3.371 1.34-3.371 3.542 0 2.235 1.314 3.555 3.371 3.555zm0-1.416c-.914 0-1.492-.768-1.492-2.132 0-1.352.591-2.133 1.492-2.133s1.485.781 1.485 2.133c0 1.364-.577 2.132-1.485 2.132zm4.824-.469c0 1.199.629 1.815 1.867 1.815h.063c.781 0 1.314-.279 1.314-.825 0-.432-.248-.622-.705-.673l-.12-.013c-.4-.031-.565-.234-.565-.717v-3.256h.654c.438 0 .711-.273.711-.698 0-.426-.273-.699-.711-.699h-.654v-.755c0-.597-.349-.965-.927-.965-.578 0-.927.368-.927.965v.755h-.355c-.438 0-.717.267-.717.699 0 .431.279.698.717.698h.355v3.669zm7.821 1.86c.603 0 .958-.369.958-.997v-2.012h1.714c1.93 0 3.269-1.257 3.269-3.136 0-1.885-1.295-3.136-3.174-3.136h-2.767c-.603 0-.959.368-.959.997v7.287c0 .628.356.997.959.997zm.958-4.507v-3.257h1.301c1.099 0 1.733.584 1.733 1.625 0 1.048-.641 1.632-1.739 1.632h-1.295zm7.528 4.494c.851 0 1.702-.425 2.082-1.149h.039v.349c.038.546.387.825.888.825.527 0 .902-.317.902-.933v-3.878c0-1.371-1.137-2.273-2.882-2.273-1.409 0-2.501.502-2.819 1.314a.992.992 0 00-.095.419c0 .419.324.711.775.711a.934.934 0 00.736-.343c.413-.533.755-.717 1.32-.717.698 0 1.143.368 1.143 1.003v.451l-1.714.101c-1.701.102-2.653.819-2.653 2.057 0 1.225.984 2.063 2.278 2.063zm.61-1.339c-.622 0-1.041-.318-1.041-.826 0-.482.393-.793 1.085-.844l1.435-.089v.495c0 .737-.667 1.264-1.479 1.264zm7.274 1.377c1.797 0 3.009-.876 3.009-2.228 0-1.016-.597-1.549-2.044-1.854l-1.123-.241c-.68-.146-.946-.381-.946-.736 0-.438.438-.736 1.066-.736.667 0 1.035.317 1.359.73.165.196.431.285.672.285.476 0 .711-.26.711-.635 0-.088-.019-.177-.044-.273-.222-.768-1.257-1.409-2.666-1.409-1.765 0-2.888.838-2.888 2.139 0 1.01.673 1.689 2.006 1.975l1.142.241c.667.146.902.343.902.711 0 .45-.438.73-1.111.73-.705 0-1.124-.216-1.486-.692-.254-.286-.507-.419-.806-.419-.431 0-.749.286-.749.711 0 .101.026.222.07.343.324.799 1.365 1.358 2.926 1.358zm6.703 0c1.797 0 3.009-.876 3.009-2.228 0-1.016-.597-1.549-2.044-1.854l-1.123-.241c-.68-.146-.946-.381-.946-.736 0-.438.438-.736 1.066-.736.667 0 1.035.317 1.359.73.165.196.431.285.673.285.476 0 .71-.26.71-.635 0-.088-.019-.177-.044-.273-.222-.768-1.257-1.409-2.666-1.409-1.765 0-2.888.838-2.888 2.139 0 1.01.673 1.689 2.006 1.975l1.142.241c.667.146.902.343.902.711 0 .45-.438.73-1.111.73-.705 0-1.124-.216-1.486-.692-.253-.286-.507-.419-.806-.419-.431 0-.749.286-.749.711 0 .101.026.222.07.343.324.799 1.365 1.358 2.926 1.358zm6.177-.013c.66 0 1.028-.298 1.187-.971l1.028-3.974h.038l1.035 3.961c.158.692.52.984 1.199.984.642 0 .997-.304 1.187-.977l1.372-4.748c.069-.241.101-.394.101-.565 0-.464-.362-.787-.876-.787-.457 0-.755.279-.857.774l-1.015 4.412h-.039l-1.06-4.336c-.12-.552-.482-.85-1.034-.85-.565 0-.927.298-1.048.85l-1.053 4.336h-.038l-1.01-4.399c-.108-.508-.406-.787-.869-.787-.521 0-.895.33-.895.793 0 .178.031.33.101.571l1.371 4.742c.197.673.534.971 1.175.971zm11.006.013c2.057 0 3.371-1.314 3.371-3.555 0-2.209-1.333-3.542-3.371-3.542-2.037 0-3.37 1.34-3.37 3.542 0 2.235 1.314 3.555 3.37 3.555zm0-1.416c-.914 0-1.491-.768-1.491-2.132 0-1.352.59-2.133 1.491-2.133.902 0 1.486.781 1.486 2.133 0 1.364-.578 2.132-1.486 2.132zm5.256 1.403c.565 0 .927-.349.927-.965v-3.021c0-.806.298-1.282 1.143-1.295.361-.006.628-.089.806-.241.178-.153.266-.375.266-.667 0-.317-.088-.546-.266-.685-.133-.114-.33-.172-.578-.172-.679 0-1.238.502-1.415 1.346h-.038v-.444c0-.591-.356-.933-.876-.933-.534 0-.895.342-.895.933v5.179c0 .616.368.965.926.965zm6.107-.025c1.047 0 1.796-.546 2.094-1.308h.032v.394c0 .622.4.939.933.939.54 0 .921-.323.921-.939v-7.522c0-.635-.381-.971-.927-.971-.54 0-.927.336-.927.971v2.691h-.038c-.33-.755-1.092-1.276-2.076-1.276-1.707 0-2.786 1.34-2.786 3.498 0 2.177 1.073 3.523 2.774 3.523zm.628-1.492c-.933 0-1.504-.768-1.504-2.018 0-1.244.571-2.025 1.504-2.025.921 0 1.511.787 1.511 2.025 0 1.244-.59 2.018-1.511 2.018zm9.737-1.282c.451 0 .699-.248.794-.673.082-.533.273-.806 1.117-1.295.895-.527 1.359-1.18 1.359-2.139 0-1.479-1.213-2.469-3.016-2.469-1.364 0-2.38.539-2.786 1.377a1.572 1.572 0 00-.191.756c0 .482.311.793.813.793.387 0 .673-.178.831-.584.204-.565.622-.87 1.245-.87.698 0 1.18.432 1.18 1.054 0 .584-.247.902-1.066 1.39-.749.438-1.136.933-1.136 1.682v.089c0 .521.317.889.856.889zm.013 2.825c.578 0 1.041-.438 1.041-.997 0-.558-.463-.996-1.041-.996-.571 0-1.034.438-1.034.996 0 .559.463.997 1.034.997z" fill="#4285F4"/><path d="M65.993 676h2.54c2.748 0 4.366-1.708 4.366-4.615s-1.618-4.545-4.367-4.545h-2.539c-.603 0-.958.368-.958.997v7.16c0 .635.355 1.003.958 1.003zm.959-1.587v-5.992h1.352c1.688 0 2.64 1.054 2.64 2.971 0 1.98-.926 3.021-2.64 3.021h-1.352zm10.15 1.733c2.056 0 3.37-1.314 3.37-3.555 0-2.209-1.333-3.542-3.37-3.542-2.038 0-3.371 1.34-3.371 3.542 0 2.235 1.314 3.555 3.37 3.555zm0-1.416c-.915 0-1.492-.768-1.492-2.132 0-1.352.59-2.133 1.492-2.133.9 0 1.485.781 1.485 2.133 0 1.364-.578 2.132-1.485 2.132zm5.255 1.403c.546 0 .927-.33.927-.965v-3.072c0-.882.527-1.492 1.359-1.492.831 0 1.25.508 1.25 1.397v3.167c0 .635.38.965.927.965.54 0 .927-.33.927-.965v-3.554c0-1.593-.851-2.546-2.362-2.546-1.047 0-1.733.464-2.095 1.308h-.038v-.381c0-.584-.368-.939-.926-.939-.559 0-.895.355-.895.933v5.179c0 .635.387.965.926.965zm7.09-5.56c.432 0 .66-.197.756-.629l.514-2.145c.026-.121.045-.241.045-.362 0-.457-.311-.736-.8-.736-.476 0-.787.228-.857.761l-.324 2.324c0 .019-.006.05-.006.101-.026.387.228.686.673.686zm3.359 3.688c0 1.199.628 1.815 1.866 1.815h.063c.781 0 1.314-.279 1.314-.825 0-.432-.247-.622-.704-.673l-.12-.013c-.4-.031-.566-.234-.566-.717v-3.256h.654c.438 0 .71-.273.71-.698 0-.426-.272-.699-.71-.699h-.654v-.755c0-.597-.349-.965-.927-.965-.577 0-.926.368-.926.965v.755h-.356c-.438 0-.717.267-.717.699 0 .431.28.698.717.698h.356v3.669zm7.674 1.872c.546 0 .927-.33.927-.965v-3.053c0-.895.514-1.511 1.39-1.511.844 0 1.276.534 1.276 1.41v3.154c0 .635.387.965.927.965.545 0 .926-.33.926-.965v-3.548c0-1.574-.863-2.552-2.374-2.552-1.034 0-1.777.483-2.139 1.34h-.038v-2.755c0-.597-.336-.952-.908-.952-.571 0-.914.355-.914.952v7.515c0 .635.387.965.927.965zm8.645-.025c.851 0 1.702-.425 2.083-1.149h.038v.349c.038.546.387.825.888.825.527 0 .902-.317.902-.933v-3.878c0-1.371-1.137-2.273-2.882-2.273-1.409 0-2.501.502-2.819 1.314a.992.992 0 00-.095.419c0 .419.324.711.775.711a.934.934 0 00.736-.343c.413-.533.755-.717 1.32-.717.699 0 1.143.368 1.143 1.003v.451l-1.714.101c-1.701.102-2.653.819-2.653 2.057 0 1.225.984 2.063 2.278 2.063zm.61-1.339c-.622 0-1.041-.318-1.041-.826 0-.482.393-.793 1.085-.844l1.435-.089v.495c0 .737-.667 1.264-1.479 1.264zm7.319 1.364c.673 0 1.06-.292 1.295-.945l1.771-4.787c.057-.158.101-.349.101-.52 0-.47-.387-.825-.901-.825-.432 0-.743.235-.87.723l-1.377 4.583h-.038l-1.378-4.564c-.139-.501-.438-.742-.888-.742-.527 0-.927.33-.927.831 0 .191.044.387.101.552l1.771 4.749c.248.66.629.945 1.34.945zm6.95.013c1.314 0 2.368-.495 2.819-1.333a.96.96 0 00.127-.451c0-.425-.324-.679-.724-.679-.241 0-.406.07-.603.273-.501.59-.946.819-1.625.819-.939 0-1.549-.66-1.549-1.67v-.082h3.885c.514 0 .806-.292.806-.806 0-1.847-1.295-3.168-3.224-3.168-2.013 0-3.289 1.39-3.289 3.58 0 2.203 1.251 3.517 3.377 3.517zm-1.536-4.259c.064-.87.654-1.467 1.467-1.467.812 0 1.383.578 1.421 1.467h-2.888zm10.22 4.221c.851 0 1.701-.425 2.082-1.149h.038v.349c.038.546.387.825.889.825.527 0 .901-.317.901-.933v-3.878c0-1.371-1.136-2.273-2.882-2.273-1.409 0-2.501.502-2.818 1.314a.977.977 0 00-.095.419c0 .419.323.711.774.711a.934.934 0 00.736-.343c.413-.533.756-.717 1.321-.717.698 0 1.142.368 1.142 1.003v.451l-1.714.101c-1.701.102-2.653.819-2.653 2.057 0 1.225.984 2.063 2.279 2.063zm.609-1.339c-.622 0-1.041-.318-1.041-.826 0-.482.394-.793 1.086-.844l1.434-.089v.495c0 .737-.666 1.264-1.479 1.264zm5.428 1.364c.546 0 .926-.33.926-.965v-3.072c0-.882.527-1.492 1.359-1.492.831 0 1.25.508 1.25 1.397v3.167c0 .635.381.965.927.965.54 0 .927-.33.927-.965v-3.554c0-1.593-.851-2.546-2.362-2.546-1.047 0-1.732.464-2.094 1.308h-.038v-.381c0-.584-.369-.939-.927-.939-.559 0-.895.355-.895.933v5.179c0 .635.387.965.927.965zm9.908-.012c.508 0 .794-.254.971-.864l.483-1.428h3.307l.482 1.447c.172.597.457.845.997.845.559 0 .959-.375.959-.902 0-.19-.032-.362-.121-.609l-2.514-6.818c-.273-.749-.717-1.079-1.466-1.079-.724 0-1.174.343-1.441 1.086l-2.501 6.811a1.986 1.986 0 00-.127.609c0 .552.375.902.971.902zm1.873-3.777l1.187-3.752h.044l1.213 3.752h-2.444zm9.185 3.802c1.301 0 2.463-.647 2.869-1.574.083-.184.121-.337.121-.483 0-.457-.349-.742-.781-.742-.394 0-.597.158-.844.546-.286.482-.686.799-1.333.799-.927 0-1.505-.761-1.505-2.101 0-1.314.578-2.088 1.517-2.088.591 0 1.003.273 1.34.87.19.336.412.482.78.482.438 0 .794-.267.794-.724 0-.133-.038-.298-.102-.457-.368-.965-1.504-1.625-2.869-1.625-2.044 0-3.339 1.371-3.339 3.549 0 2.202 1.302 3.548 3.352 3.548zm7.084 0c1.301 0 2.463-.647 2.869-1.574.083-.184.121-.337.121-.483 0-.457-.349-.742-.781-.742-.394 0-.597.158-.844.546-.286.482-.686.799-1.333.799-.927 0-1.505-.761-1.505-2.101 0-1.314.578-2.088 1.517-2.088.591 0 1.003.273 1.34.87.19.336.412.482.78.482.438 0 .794-.267.794-.724 0-.133-.038-.298-.102-.457-.368-.965-1.504-1.625-2.869-1.625-2.044 0-3.339 1.371-3.339 3.549 0 2.202 1.302 3.548 3.352 3.548zm7.103 0c2.057 0 3.371-1.314 3.371-3.555 0-2.209-1.333-3.542-3.371-3.542-2.038 0-3.371 1.34-3.371 3.542 0 2.235 1.314 3.555 3.371 3.555zm0-1.416c-.914 0-1.492-.768-1.492-2.132 0-1.352.591-2.133 1.492-2.133s1.485.781 1.485 2.133c0 1.364-.577 2.132-1.485 2.132zm6.747 1.397c1.029 0 1.702-.495 2.038-1.352h.038v.419c0 .616.362.939.895.939s.895-.323.895-.939v-5.167c0-.635-.381-.971-.927-.971-.539 0-.926.336-.926.971v3.066c0 .901-.514 1.491-1.34 1.491-.819 0-1.269-.482-1.269-1.39v-3.167c0-.635-.381-.971-.927-.971-.54 0-.927.336-.927.971v3.555c0 1.586.978 2.545 2.45 2.545zm5.999.006c.546 0 .927-.33.927-.965v-3.072c0-.882.527-1.492 1.358-1.492.832 0 1.251.508 1.251 1.397v3.167c0 .635.381.965.926.965.54 0 .927-.33.927-.965v-3.554c0-1.593-.85-2.546-2.361-2.546-1.048 0-1.733.464-2.095 1.308h-.038v-.381c0-.584-.368-.939-.927-.939-.558 0-.895.355-.895.933v5.179c0 .635.387.965.927.965zm7.059-1.872c0 1.199.628 1.815 1.866 1.815h.063c.781 0 1.314-.279 1.314-.825 0-.432-.247-.622-.704-.673l-.121-.013c-.4-.031-.565-.234-.565-.717v-3.256h.654c.438 0 .711-.273.711-.698 0-.426-.273-.699-.711-.699h-.654v-.755c0-.597-.349-.965-.927-.965-.577 0-.926.368-.926.965v.755h-.356c-.438 0-.717.267-.717.699 0 .431.279.698.717.698h.356v3.669zm9.274-.927c.45 0 .698-.248.793-.673.083-.533.273-.806 1.117-1.295.895-.527 1.359-1.18 1.359-2.139 0-1.479-1.213-2.469-3.016-2.469-1.364 0-2.38.539-2.786 1.377a1.572 1.572 0 00-.191.756c0 .482.311.793.813.793.387 0 .673-.178.831-.584.204-.565.623-.87 1.245-.87.698 0 1.18.432 1.18 1.054 0 .584-.247.902-1.066 1.39-.749.438-1.136.933-1.136 1.682v.089c0 .521.317.889.857.889zm.012 2.825c.578 0 1.041-.438 1.041-.997 0-.558-.463-.996-1.041-.996-.571 0-1.034.438-1.034.996 0 .559.463.997 1.034.997z" fill="#000"/><path d="M222.151 676.152c1.733 0 3.098-.78 3.669-2.05.096-.222.146-.425.146-.641 0-.508-.355-.851-.895-.851-.406 0-.647.172-.844.603-.413.921-1.136 1.359-2.101 1.359-1.466 0-2.387-1.206-2.387-3.161 0-1.93.933-3.142 2.381-3.142.914 0 1.663.469 2.082 1.402.209.445.482.635.914.635.508 0 .844-.324.844-.825 0-.229-.064-.476-.19-.717-.629-1.321-1.956-2.082-3.669-2.082-2.635 0-4.317 1.783-4.317 4.735 0 2.958 1.651 4.735 4.367 4.735zm5.954-.019c.565 0 .927-.349.927-.965v-3.021c0-.806.299-1.282 1.143-1.295.362-.006.628-.089.806-.241.178-.153.267-.375.267-.667 0-.317-.089-.546-.267-.685-.133-.114-.33-.172-.578-.172-.679 0-1.237.502-1.415 1.346h-.038v-.444c0-.591-.356-.933-.876-.933-.533 0-.895.342-.895.933v5.179c0 .616.368.965.926.965zm6.71.013c1.314 0 2.368-.495 2.818-1.333a.948.948 0 00.127-.451c0-.425-.323-.679-.723-.679-.242 0-.407.07-.603.273-.502.59-.946.819-1.625.819-.94 0-1.549-.66-1.549-1.67v-.082h3.885c.514 0 .806-.292.806-.806 0-1.847-1.295-3.168-3.225-3.168-2.012 0-3.288 1.39-3.288 3.58 0 2.203 1.25 3.517 3.377 3.517zm-1.536-4.259c.063-.87.654-1.467 1.466-1.467.813 0 1.384.578 1.422 1.467h-2.888zm7.642 4.221c.851 0 1.702-.425 2.082-1.149h.039v.349c.038.546.387.825.888.825.527 0 .902-.317.902-.933v-3.878c0-1.371-1.137-2.273-2.882-2.273-1.409 0-2.501.502-2.819 1.314a.992.992 0 00-.095.419c0 .419.324.711.775.711a.934.934 0 00.736-.343c.412-.533.755-.717 1.32-.717.698 0 1.143.368 1.143 1.003v.451l-1.714.101c-1.701.102-2.653.819-2.653 2.057 0 1.225.983 2.063 2.278 2.063zm.61-1.339c-.622 0-1.041-.318-1.041-.826 0-.482.393-.793 1.085-.844l1.435-.089v.495c0 .737-.667 1.264-1.479 1.264zm4.995-.508c0 1.199.629 1.815 1.867 1.815h.063c.781 0 1.314-.279 1.314-.825 0-.432-.248-.622-.705-.673l-.12-.013c-.4-.031-.565-.234-.565-.717v-3.256h.654c.438 0 .711-.273.711-.698 0-.426-.273-.699-.711-.699h-.654v-.755c0-.597-.349-.965-.927-.965-.578 0-.927.368-.927.965v.755h-.355c-.438 0-.717.267-.717.699 0 .431.279.698.717.698h.355v3.669zm7.154 1.885c1.314 0 2.368-.495 2.819-1.333a.958.958 0 00.126-.451c0-.425-.323-.679-.723-.679-.241 0-.406.07-.603.273-.502.59-.946.819-1.625.819-.94 0-1.549-.66-1.549-1.67v-.082h3.885c.514 0 .806-.292.806-.806 0-1.847-1.295-3.168-3.225-3.168-2.012 0-3.288 1.39-3.288 3.58 0 2.203 1.251 3.517 3.377 3.517zm-1.536-4.259c.064-.87.654-1.467 1.466-1.467.813 0 1.384.578 1.422 1.467h-2.888zm8.976 4.234c.507 0 .793-.254.971-.864l.482-1.428h3.307l.483 1.447c.171.597.457.845.996.845.559 0 .959-.375.959-.902 0-.19-.032-.362-.121-.609l-2.513-6.818c-.273-.749-.718-1.079-1.467-1.079-.723 0-1.174.343-1.441 1.086l-2.501 6.811a1.986 1.986 0 00-.127.609c0 .552.375.902.972.902zm1.872-3.777l1.187-3.752h.045l1.212 3.752h-2.444zm9.185 3.802c1.302 0 2.463-.647 2.869-1.574.083-.184.121-.337.121-.483 0-.457-.349-.742-.781-.742-.393 0-.596.158-.844.546-.286.482-.686.799-1.333.799-.927 0-1.504-.761-1.504-2.101 0-1.314.577-2.088 1.517-2.088.59 0 1.003.273 1.339.87.19.336.413.482.781.482.438 0 .793-.267.793-.724 0-.133-.038-.298-.101-.457-.368-.965-1.505-1.625-2.869-1.625-2.044 0-3.339 1.371-3.339 3.549 0 2.202 1.301 3.548 3.351 3.548zm7.084 0c1.301 0 2.463-.647 2.869-1.574.083-.184.121-.337.121-.483 0-.457-.349-.742-.781-.742-.393 0-.596.158-.844.546-.286.482-.686.799-1.333.799-.927 0-1.504-.761-1.504-2.101 0-1.314.577-2.088 1.517-2.088.59 0 1.003.273 1.339.87.19.336.413.482.781.482.438 0 .793-.267.793-.724 0-.133-.038-.298-.101-.457-.368-.965-1.505-1.625-2.869-1.625-2.044 0-3.339 1.371-3.339 3.549 0 2.202 1.301 3.548 3.351 3.548zm7.103 0c2.057 0 3.371-1.314 3.371-3.555 0-2.209-1.333-3.542-3.371-3.542-2.037 0-3.37 1.34-3.37 3.542 0 2.235 1.314 3.555 3.37 3.555zm0-1.416c-.914 0-1.491-.768-1.491-2.132 0-1.352.59-2.133 1.491-2.133.902 0 1.486.781 1.486 2.133 0 1.364-.578 2.132-1.486 2.132zm6.748 1.397c1.028 0 1.701-.495 2.037-1.352h.039v.419c0 .616.361.939.895.939.533 0 .895-.323.895-.939v-5.167c0-.635-.381-.971-.927-.971-.54 0-.927.336-.927.971v3.066c0 .901-.514 1.491-1.339 1.491-.819 0-1.27-.482-1.27-1.39v-3.167c0-.635-.381-.971-.927-.971-.539 0-.926.336-.926.971v3.555c0 1.586.977 2.545 2.45 2.545zm5.998.006c.546 0 .927-.33.927-.965v-3.072c0-.882.527-1.492 1.359-1.492.831 0 1.25.508 1.25 1.397v3.167c0 .635.381.965.927.965.539 0 .927-.33.927-.965v-3.554c0-1.593-.851-2.546-2.362-2.546-1.047 0-1.733.464-2.095 1.308h-.038v-.381c0-.584-.368-.939-.926-.939-.559 0-.895.355-.895.933v5.179c0 .635.387.965.926.965zm7.059-1.872c0 1.199.628 1.815 1.866 1.815h.064c.78 0 1.314-.279 1.314-.825 0-.432-.248-.622-.705-.673l-.121-.013c-.399-.031-.565-.234-.565-.717v-3.256h.654c.438 0 .711-.273.711-.698 0-.426-.273-.699-.711-.699h-.654v-.755c0-.597-.349-.965-.926-.965-.578 0-.927.368-.927.965v.755h-.356c-.438 0-.717.267-.717.699 0 .431.279.698.717.698h.356v3.669z" fill="#4285F4"/><path d="M52 650h270v-4H52v4z" fill="#000" mask="url(#prefix__path-11-inside-1_405_111)"/><path d="M37.125 62.1L28.7 53.7a.871.871 0 01-.212-.325 1.098 1.098 0 01-.063-.375 1.1 1.1 0 01.063-.375.872.872 0 01.212-.325l8.425-8.425c.233-.233.525-.35.875-.35s.65.125.9.375.375.542.375.875a1.2 1.2 0 01-.375.875L31.55 53l7.35 7.35c.233.233.35.52.35.862 0 .342-.125.638-.375.888a1.2 1.2 0 01-.875.375 1.2 1.2 0 01-.875-.375z" fill="#000"/></g><g id="prefix__dark"><rect width="375" height="812" rx="10" fill="#35363A"/><path d="M239.096 224.947c3.784 0 6.892-3.078 6.454-6.836a58.95 58.95 0 00-100.232-34.846 58.948 58.948 0 00-16.868 34.846c-.439 3.758 2.67 6.836 6.454 6.836h15.373c3.784 0 6.774-3.107 7.634-6.792A29.875 29.875 0 01187 195.076a29.871 29.871 0 0129.089 23.079c.86 3.685 3.85 6.792 7.634 6.792h15.373zM239.096 247.053c3.784 0 6.892 3.077 6.454 6.836a58.94 58.94 0 01-16.868 34.846A58.954 58.954 0 01187 306a58.954 58.954 0 01-41.682-17.265 58.938 58.938 0 01-16.868-34.846c-.439-3.759 2.67-6.836 6.454-6.836h15.373c3.784 0 6.774 3.106 7.634 6.791a29.869 29.869 0 0050.211 14.331 29.869 29.869 0 007.967-14.331c.86-3.685 3.85-6.791 7.634-6.791h15.373zM112.412 350.422c4.799 0 8.578-2.162 10.16-5.678.264-.615.405-1.178.405-1.775 0-1.407-.985-2.356-2.479-2.356-1.125 0-1.793.475-2.338 1.67-1.142 2.549-3.146 3.762-5.818 3.762-4.061 0-6.61-3.34-6.61-8.754 0-5.344 2.584-8.701 6.592-8.701 2.531 0 4.606 1.301 5.766 3.885.58 1.23 1.336 1.757 2.531 1.757 1.406 0 2.338-.896 2.338-2.285 0-.633-.176-1.318-.527-1.986-1.741-3.656-5.414-5.766-10.161-5.766-7.294 0-11.953 4.94-11.953 13.114 0 8.191 4.571 13.113 12.094 13.113zm16.611-.053c1.512 0 2.567-.914 2.567-2.672v-8.455c0-2.478 1.424-4.183 3.849-4.183 2.338 0 3.534 1.476 3.534 3.902v8.736c0 1.758 1.072 2.672 2.566 2.672 1.512 0 2.566-.914 2.566-2.672v-9.826c0-4.359-2.39-7.066-6.574-7.066-2.865 0-4.922 1.336-5.924 3.709h-.105v-7.629c0-1.653-.932-2.637-2.514-2.637-1.582 0-2.531.984-2.531 2.637v20.812c0 1.758 1.072 2.672 2.566 2.672zm23.942-.07c2.355 0 4.711-1.178 5.765-3.182h.106v.967c.105 1.512 1.072 2.285 2.461 2.285 1.459 0 2.496-.879 2.496-2.584v-10.74c0-3.797-3.147-6.293-7.981-6.293-3.902 0-6.925 1.389-7.804 3.639a2.716 2.716 0 00-.264 1.16c0 1.16.897 1.969 2.145 1.969.826 0 1.476-.317 2.039-.95 1.142-1.476 2.092-1.986 3.656-1.986 1.934 0 3.164 1.02 3.164 2.777v1.248l-4.746.282c-4.711.281-7.348 2.267-7.348 5.695 0 3.393 2.725 5.713 6.311 5.713zm1.687-3.709c-1.722 0-2.882-.879-2.882-2.285 0-1.336 1.089-2.198 3.005-2.338l3.973-.246v1.371c0 2.039-1.846 3.498-4.096 3.498zm15.03 10.125c1.511 0 2.566-.914 2.566-2.672v-7.207h.106c1.001 2.127 3.111 3.463 5.853 3.463 4.711 0 7.629-3.656 7.629-9.721 0-6.082-2.936-9.721-7.717-9.721-2.724 0-4.816 1.372-5.836 3.586h-.105v-1.019c0-1.74-1.055-2.654-2.532-2.654-1.476 0-2.531.914-2.531 2.636v20.637c0 1.758 1.073 2.672 2.567 2.672zm6.714-10.547c-2.513 0-4.166-2.18-4.166-5.59 0-3.375 1.653-5.607 4.166-5.607 2.567 0 4.184 2.197 4.184 5.607 0 3.428-1.617 5.59-4.184 5.59zm23.836 4.254c4.799 0 8.579-2.162 10.161-5.678.263-.615.404-1.178.404-1.775 0-1.407-.985-2.356-2.479-2.356-1.125 0-1.793.475-2.338 1.67-1.142 2.549-3.146 3.762-5.818 3.762-4.06 0-6.609-3.34-6.609-8.754 0-5.344 2.584-8.701 6.592-8.701 2.531 0 4.605 1.301 5.765 3.885.58 1.23 1.336 1.757 2.531 1.757 1.407 0 2.338-.896 2.338-2.285 0-.633-.175-1.318-.527-1.986-1.74-3.656-5.414-5.766-10.16-5.766-7.295 0-11.953 4.94-11.953 13.114 0 8.191 4.57 13.113 12.093 13.113zm16.612-.053c1.511 0 2.566-.914 2.566-2.672v-8.455c0-2.478 1.424-4.183 3.85-4.183 2.338 0 3.533 1.476 3.533 3.902v8.736c0 1.758 1.072 2.672 2.566 2.672 1.512 0 2.567-.914 2.567-2.672v-9.826c0-4.359-2.391-7.066-6.574-7.066-2.866 0-4.922 1.336-5.924 3.709h-.106v-7.629c0-1.653-.931-2.637-2.513-2.637-1.582 0-2.532.984-2.532 2.637v20.812c0 1.758 1.073 2.672 2.567 2.672zm23.941-.07c2.356 0 4.711-1.178 5.766-3.182h.105v.967c.106 1.512 1.073 2.285 2.461 2.285 1.459 0 2.496-.879 2.496-2.584v-10.74c0-3.797-3.146-6.293-7.98-6.293-3.903 0-6.926 1.389-7.805 3.639a2.716 2.716 0 00-.264 1.16c0 1.16.897 1.969 2.145 1.969.826 0 1.477-.317 2.039-.95 1.143-1.476 2.092-1.986 3.656-1.986 1.934 0 3.164 1.02 3.164 2.777v1.248l-4.746.282c-4.711.281-7.347 2.267-7.347 5.695 0 3.393 2.724 5.713 6.31 5.713zm1.688-3.709c-1.723 0-2.883-.879-2.883-2.285 0-1.336 1.09-2.198 3.006-2.338l3.972-.246v1.371c0 2.039-1.845 3.498-4.095 3.498zm15.029 10.125c1.512 0 2.566-.914 2.566-2.672v-7.207h.106c1.002 2.127 3.111 3.463 5.853 3.463 4.711 0 7.629-3.656 7.629-9.721 0-6.082-2.935-9.721-7.717-9.721-2.724 0-4.816 1.372-5.835 3.586h-.106v-1.019c0-1.74-1.055-2.654-2.531-2.654-1.477 0-2.531.914-2.531 2.636v20.637c0 1.758 1.072 2.672 2.566 2.672zm6.715-10.547c-2.514 0-4.166-2.18-4.166-5.59 0-3.375 1.652-5.607 4.166-5.607 2.566 0 4.183 2.197 4.183 5.607 0 3.428-1.617 5.59-4.183 5.59z" fill="#fff"/><rect x="52" y="390" width="270" height="52" rx="16" fill="#202124"/><path d="M83.875 421h5.149c.52 0 .864-.308.864-.798 0-.491-.344-.799-.864-.799H84.82v-3.017h3.984c.49 0 .813-.293.813-.755 0-.461-.33-.747-.813-.747H84.82v-2.856h4.204c.52 0 .864-.308.864-.799 0-.49-.344-.798-.864-.798h-5.149c-.586 0-.945.366-.945.982v8.606c0 .615.36.981.945.981zm9.162.146c.534 0 .915-.344.915-.959v-3.684c0-1.113.667-1.868 1.714-1.868 1.04 0 1.553.615 1.553 1.714v3.838c0 .615.38.959.915.959s.909-.344.909-.959v-4.204c0-1.795-.975-2.893-2.688-2.893-1.194 0-2 .535-2.417 1.457H93.9v-.542c0-.564-.366-.922-.9-.922-.543 0-.873.358-.873.922v6.182c0 .615.374.959.909.959zm8.876-2.065c0 1.326.688 2 2.043 2h.073c.835 0 1.304-.286 1.304-.821 0-.425-.249-.63-.732-.674l-.132-.014c-.527-.044-.732-.301-.732-.886v-4.043h.842c.454 0 .732-.271.732-.711 0-.432-.278-.696-.732-.696h-.842v-1.032c0-.586-.352-.953-.909-.953-.564 0-.915.367-.915.953v1.032h-.491c-.454 0-.732.264-.732.696 0 .44.278.711.732.711h.491v4.438zm8.737 2.073c1.479 0 2.636-.579 3.149-1.568a1.06 1.06 0 00.125-.461c0-.439-.323-.703-.733-.703-.256 0-.425.08-.615.293-.586.747-1.121 1.033-1.941 1.033-1.186 0-1.941-.835-1.941-2.132v-.058h4.578c.542 0 .849-.323.849-.865 0-2.109-1.45-3.618-3.574-3.618-2.241 0-3.669 1.597-3.669 4.072 0 2.52 1.399 4.007 3.772 4.007zm-1.941-4.798c.073-1.113.82-1.867 1.845-1.867 1.026 0 1.744.74 1.78 1.867h-3.625zm8.4 4.79c.549 0 .915-.358.915-.959v-3.735c0-.945.396-1.597 1.436-1.604.359-.008.63-.088.806-.242.183-.147.271-.359.271-.645 0-.3-.088-.52-.257-.659-.139-.124-.359-.198-.644-.198-.777 0-1.451.586-1.663 1.495h-.037v-.594c0-.571-.358-.922-.864-.922-.52 0-.871.351-.871.922v6.182c0 .601.358.959.908.959zm10.164 2.74c1.553 0 2.358-.674 3.062-2.608l2.556-6.84c.066-.176.102-.381.102-.528 0-.483-.366-.827-.886-.827-.461 0-.725.212-.879.71l-1.853 5.654h-.029l-1.853-5.647c-.154-.512-.41-.717-.872-.717-.534 0-.937.351-.937.849 0 .147.036.337.102.52l2.542 6.687-.132.381c-.271.681-.696.894-1.106.894-.169 0-.242-.008-.396-.008-.424 0-.688.242-.688.615 0 .557.447.865 1.267.865zm10.839-2.732c2.278 0 3.757-1.516 3.757-4.036 0-2.512-1.494-4.043-3.757-4.043s-3.757 1.538-3.757 4.043c0 2.52 1.479 4.036 3.757 4.036zm0-1.443c-1.157 0-1.904-.938-1.904-2.593 0-1.648.754-2.593 1.904-2.593 1.157 0 1.904.945 1.904 2.593 0 1.655-.747 2.593-1.904 2.593zm8.546 1.428c1.18 0 1.963-.542 2.374-1.487h.036v.572c0 .586.359.922.886.922.52 0 .872-.336.872-.922v-6.175c0-.615-.381-.966-.908-.966-.535 0-.916.351-.916.959v3.684c0 1.128-.652 1.875-1.706 1.875-1.026 0-1.568-.601-1.568-1.714v-3.838c0-.615-.381-.966-.915-.966-.535 0-.908.351-.908.959v4.211c0 1.795 1.069 2.886 2.753 2.886zm7.47.007c.55 0 .916-.358.916-.959v-3.735c0-.945.395-1.597 1.435-1.604.359-.008.63-.088.806-.242.183-.147.271-.359.271-.645 0-.3-.088-.52-.256-.659-.139-.124-.359-.198-.645-.198-.776 0-1.45.586-1.662 1.495h-.037v-.594c0-.571-.359-.922-.864-.922-.52 0-.872.351-.872.922v6.182c0 .601.359.959.908.959zm10.179-.146h5.149c.52 0 .864-.308.864-.798 0-.491-.344-.799-.864-.799h-4.204v-3.017h3.984c.491 0 .813-.293.813-.755 0-.461-.329-.747-.813-.747h-3.984v-2.856h4.204c.52 0 .864-.308.864-.799 0-.49-.344-.798-.864-.798h-5.149c-.586 0-.945.366-.945.982v8.606c0 .615.359.981.945.981zm9.162.146c.542 0 .915-.351.915-.959v-3.94c0-.938.616-1.619 1.495-1.619.849 0 1.377.535 1.377 1.399v4.16c0 .608.336.959.886.959.542 0 .886-.351.886-.959v-3.984c0-.931.601-1.575 1.48-1.575.893 0 1.391.542 1.391 1.494v4.065c0 .608.366.959.916.959.542 0 .908-.351.908-.959v-4.512c0-1.552-1.004-2.585-2.534-2.585-1.121 0-2.044.6-2.417 1.56h-.044c-.286-.996-1.07-1.56-2.168-1.56-1.055 0-1.875.593-2.212 1.494h-.037v-.571c0-.594-.366-.93-.879-.93-.512 0-.871.336-.871.93v6.174c0 .608.359.959.908.959zm14.897-.021c1.003 0 1.977-.521 2.424-1.363h.036v.542c.03.542.374.842.872.842.513 0 .886-.329.886-.915v-4.578c0-1.56-1.252-2.578-3.178-2.578-1.487 0-2.688.571-3.084 1.472-.08.169-.124.33-.124.498 0 .44.322.733.769.733a.876.876 0 00.739-.366c.454-.667.916-.909 1.626-.909.901 0 1.451.469 1.451 1.282v.557l-2.059.117c-1.889.117-2.951.945-2.951 2.322 0 1.399 1.091 2.344 2.593 2.344zm.556-1.377c-.791 0-1.326-.403-1.326-1.04 0-.616.506-1.011 1.385-1.07l1.802-.11v.594c0 .937-.835 1.626-1.861 1.626zm6.987-7.603c.571 0 1.018-.439 1.018-.989 0-.556-.447-.989-1.018-.989a.99.99 0 00-1.011.989c0 .55.447.989 1.011.989zm0 9.001c.556 0 .915-.366.915-.959v-6.138c0-.593-.359-.966-.915-.966-.557 0-.909.373-.909.959v6.145c0 .593.352.959.909.959zm4.313 0c.534 0 .908-.344.908-.959v-8.943c0-.615-.374-.959-.908-.959-.535 0-.916.344-.916.959v8.943c0 .615.381.959.916.959z" fill="#fff"/><rect x="52" y="465" width="270" height="52" rx="16" fill="#202124"/><path d="M83.875 496h5.149c.52 0 .864-.308.864-.798 0-.491-.344-.799-.864-.799H84.82v-3.017h3.984c.49 0 .813-.293.813-.755 0-.461-.33-.747-.813-.747H84.82v-2.856h4.204c.52 0 .864-.308.864-.799 0-.49-.344-.798-.864-.798h-5.149c-.586 0-.945.366-.945.982v8.606c0 .615.36.981.945.981zm9.162.146c.534 0 .915-.344.915-.959v-3.684c0-1.113.667-1.868 1.714-1.868 1.04 0 1.553.615 1.553 1.714v3.838c0 .615.38.959.915.959s.909-.344.909-.959v-4.204c0-1.795-.975-2.893-2.688-2.893-1.194 0-2 .535-2.417 1.457H93.9v-.542c0-.564-.366-.922-.9-.922-.543 0-.873.358-.873.922v6.182c0 .615.374.959.909.959zm8.876-2.065c0 1.326.688 2 2.043 2h.073c.835 0 1.304-.286 1.304-.821 0-.425-.249-.63-.732-.674l-.132-.014c-.527-.044-.732-.301-.732-.886v-4.043h.842c.454 0 .732-.271.732-.711 0-.432-.278-.696-.732-.696h-.842v-1.032c0-.586-.352-.953-.909-.953-.564 0-.915.367-.915.953v1.032h-.491c-.454 0-.732.264-.732.696 0 .44.278.711.732.711h.491v4.438zm8.737 2.073c1.479 0 2.636-.579 3.149-1.568a1.06 1.06 0 00.125-.461c0-.439-.323-.703-.733-.703-.256 0-.425.08-.615.293-.586.747-1.121 1.033-1.941 1.033-1.186 0-1.941-.835-1.941-2.132v-.058h4.578c.542 0 .849-.323.849-.865 0-2.109-1.45-3.618-3.574-3.618-2.241 0-3.669 1.597-3.669 4.072 0 2.52 1.399 4.007 3.772 4.007zm-1.941-4.798c.073-1.113.82-1.867 1.845-1.867 1.026 0 1.744.74 1.78 1.867h-3.625zm8.4 4.79c.549 0 .915-.358.915-.959v-3.735c0-.945.396-1.597 1.436-1.604.359-.008.63-.088.806-.242.183-.147.271-.359.271-.645 0-.3-.088-.52-.257-.659-.139-.124-.359-.198-.644-.198-.777 0-1.451.586-1.663 1.495h-.037v-.594c0-.571-.358-.922-.864-.922-.52 0-.871.351-.871.922v6.182c0 .601.358.959.908.959zm10.164 2.74c1.553 0 2.358-.674 3.062-2.608l2.556-6.84c.066-.176.102-.381.102-.528 0-.483-.366-.827-.886-.827-.461 0-.725.212-.879.71l-1.853 5.654h-.029l-1.853-5.647c-.154-.512-.41-.717-.872-.717-.534 0-.937.351-.937.849 0 .147.036.337.102.52l2.542 6.687-.132.381c-.271.681-.696.894-1.106.894-.169 0-.242-.008-.396-.008-.424 0-.688.242-.688.615 0 .557.447.865 1.267.865zm10.839-2.732c2.278 0 3.757-1.516 3.757-4.036 0-2.512-1.494-4.043-3.757-4.043s-3.757 1.538-3.757 4.043c0 2.52 1.479 4.036 3.757 4.036zm0-1.443c-1.157 0-1.904-.938-1.904-2.593 0-1.648.754-2.593 1.904-2.593 1.157 0 1.904.945 1.904 2.593 0 1.655-.747 2.593-1.904 2.593zm8.546 1.428c1.18 0 1.963-.542 2.374-1.487h.036v.572c0 .586.359.922.886.922.52 0 .872-.336.872-.922v-6.175c0-.615-.381-.966-.908-.966-.535 0-.916.351-.916.959v3.684c0 1.128-.652 1.875-1.706 1.875-1.026 0-1.568-.601-1.568-1.714v-3.838c0-.615-.381-.966-.915-.966-.535 0-.908.351-.908.959v4.211c0 1.795 1.069 2.886 2.753 2.886zm7.47.007c.55 0 .916-.358.916-.959v-3.735c0-.945.395-1.597 1.435-1.604.359-.008.63-.088.806-.242.183-.147.271-.359.271-.645 0-.3-.088-.52-.256-.659-.139-.124-.359-.198-.645-.198-.776 0-1.45.586-1.662 1.495h-.037v-.594c0-.571-.359-.922-.864-.922-.52 0-.872.351-.872.922v6.182c0 .601.359.959.908.959zm10.179-.021c.593 0 .945-.359.945-.982v-2.637h2.139c2.138 0 3.64-1.428 3.64-3.537 0-2.11-1.458-3.538-3.56-3.538h-3.164c-.586 0-.945.366-.945.982v8.73c0 .623.359.982.945.982zm.945-5.142v-4.006h1.721c1.355 0 2.139.725 2.139 1.992 0 1.281-.791 2.014-2.146 2.014h-1.714zm9.587 5.142c1.003 0 1.977-.521 2.424-1.363h.037v.542c.029.542.373.842.871.842.513 0 .886-.329.886-.915v-4.578c0-1.56-1.252-2.578-3.178-2.578-1.487 0-2.688.571-3.084 1.472-.08.169-.124.33-.124.498 0 .44.322.733.769.733a.876.876 0 00.739-.366c.454-.667.916-.909 1.626-.909.901 0 1.451.469 1.451 1.282v.557l-2.059.117c-1.889.117-2.951.945-2.951 2.322 0 1.399 1.091 2.344 2.593 2.344zm.556-1.377c-.791 0-1.325-.403-1.325-1.04 0-.616.505-1.011 1.384-1.07l1.802-.11v.594c0 .937-.835 1.626-1.861 1.626zm9.03 1.406c1.978 0 3.311-.974 3.311-2.461 0-1.15-.652-1.743-2.293-2.117l-1.238-.271c-.805-.183-1.142-.491-1.142-.945 0-.556.549-.944 1.347-.944.769 0 1.216.336 1.575.871.169.242.432.337.696.337.461 0 .703-.271.703-.652 0-.088-.015-.176-.037-.271-.241-.893-1.398-1.626-2.893-1.626-1.919 0-3.164.945-3.164 2.388 0 1.128.747 1.875 2.264 2.219l1.259.286c.799.183 1.092.439 1.092.908 0 .586-.564.945-1.414.945-.872 0-1.34-.264-1.75-.857-.235-.308-.491-.447-.791-.447-.44 0-.762.278-.762.718 0 .11.022.227.073.359.374.93 1.523 1.56 3.164 1.56zm8.356 0c1.978 0 3.311-.974 3.311-2.461 0-1.15-.652-1.743-2.293-2.117l-1.238-.271c-.805-.183-1.142-.491-1.142-.945 0-.556.549-.944 1.348-.944.769 0 1.215.336 1.574.871.169.242.432.337.696.337.461 0 .703-.271.703-.652 0-.088-.015-.176-.036-.271-.242-.893-1.399-1.626-2.894-1.626-1.918 0-3.164.945-3.164 2.388 0 1.128.747 1.875 2.264 2.219l1.259.286c.799.183 1.092.439 1.092.908 0 .586-.564.945-1.414.945-.872 0-1.34-.264-1.75-.857-.235-.308-.491-.447-.791-.447-.44 0-.762.278-.762.718 0 .11.022.227.073.359.374.93 1.524 1.56 3.164 1.56zm7.785-.008c.63 0 1.003-.3 1.157-.937l1.333-4.885h.037l1.333 4.878c.168.666.52.944 1.172.944.615 0 .974-.3 1.157-.937l1.677-5.815c.066-.22.095-.374.095-.535 0-.462-.351-.776-.871-.776-.447 0-.725.256-.835.761l-1.289 5.354h-.044l-1.363-5.281c-.124-.549-.476-.834-1.025-.834-.557 0-.915.292-1.04.834l-1.355 5.281h-.037l-1.289-5.346c-.109-.506-.395-.769-.849-.769-.52 0-.879.322-.879.783 0 .161.029.315.088.542l1.684 5.801c.191.652.528.937 1.143.937zm13.249.008c2.277 0 3.757-1.516 3.757-4.036 0-2.512-1.494-4.043-3.757-4.043-2.264 0-3.758 1.538-3.758 4.043 0 2.52 1.48 4.036 3.758 4.036zm0-1.443c-1.158 0-1.905-.938-1.905-2.593 0-1.648.755-2.593 1.905-2.593 1.157 0 1.904.945 1.904 2.593 0 1.655-.747 2.593-1.904 2.593zm6.737 1.435c.549 0 .915-.358.915-.959v-3.735c0-.945.396-1.597 1.436-1.604.359-.008.63-.088.806-.242.183-.147.271-.359.271-.645 0-.3-.088-.52-.257-.659-.139-.124-.359-.198-.644-.198-.777 0-1.45.586-1.663 1.495h-.036v-.594c0-.571-.359-.922-.865-.922-.52 0-.871.351-.871.922v6.182c0 .601.359.959.908.959zm7.755-.021c1.202 0 2.037-.608 2.41-1.502h.037v.608c0 .593.395.915.923.915.527 0 .9-.329.9-.915v-8.987c0-.615-.38-.959-.915-.959s-.908.344-.908.959v3.296h-.044c-.41-.857-1.289-1.436-2.403-1.436-1.955 0-3.222 1.553-3.222 4.007 0 2.468 1.267 4.014 3.222 4.014zm.55-1.495c-1.179 0-1.905-.966-1.905-2.512 0-1.538.733-2.512 1.905-2.512 1.15 0 1.904.989 1.904 2.512 0 1.538-.754 2.512-1.904 2.512z" fill="#fff"/><rect x="52" y="537" width="270" height="55" rx="16" fill="#000"/><path d="M166.382 571h5.827c.729 0 1.204-.413 1.204-1.099 0-.685-.483-1.098-1.204-1.098h-4.5v-9.273c0-.879-.492-1.388-1.327-1.388s-1.327.509-1.327 1.388v10.081c0 .879.492 1.389 1.327 1.389zm12.41.202c2.848 0 4.667-1.819 4.667-4.922 0-3.058-1.846-4.904-4.667-4.904-2.821 0-4.667 1.854-4.667 4.904 0 3.094 1.819 4.922 4.667 4.922zm0-1.96c-1.266 0-2.065-1.063-2.065-2.953 0-1.872.817-2.953 2.065-2.953s2.057 1.081 2.057 2.953c0 1.89-.8 2.953-2.057 2.953zm10.204 5.3c3.032.018 4.808-1.459 4.808-3.911v-7.945c0-.871-.536-1.301-1.275-1.301-.738 0-1.292.43-1.292 1.301v.518h-.052c-.493-1.063-1.521-1.775-2.874-1.775-2.426 0-3.868 1.749-3.868 4.702 0 2.874 1.477 4.667 3.824 4.667 1.362 0 2.461-.677 2.9-1.688h.053v1.503c0 1.178-.826 1.951-2.233 1.943-.852-.009-1.52-.369-2.215-1.029-.29-.263-.553-.369-.887-.369-.642 0-1.046.404-1.046.941 0 .237.053.474.193.712.607.993 2.039 1.722 3.964 1.731zm.141-5.651c-1.275 0-2.066-1.011-2.066-2.734 0-1.705.8-2.777 2.066-2.777 1.283 0 2.109 1.09 2.109 2.786 0 1.705-.826 2.725-2.109 2.725zm7.664-8.482c.773 0 1.371-.589 1.371-1.327 0-.747-.598-1.327-1.371-1.327-.774 0-1.371.58-1.371 1.327 0 .738.597 1.327 1.371 1.327zm0 10.776c.791 0 1.283-.501 1.283-1.336v-7.12c0-.834-.492-1.344-1.283-1.344-.8 0-1.283.51-1.283 1.344v7.12c0 .835.483 1.336 1.283 1.336zm4.28 0c.756 0 1.283-.457 1.283-1.336v-4.254c0-1.222.73-2.066 1.881-2.066s1.732.703 1.732 1.934v4.386c0 .879.527 1.336 1.283 1.336.747 0 1.283-.457 1.283-1.336v-4.922c0-2.206-1.178-3.525-3.27-3.525-1.45 0-2.399.642-2.9 1.811h-.053v-.527c0-.809-.509-1.301-1.283-1.301-.773 0-1.239.492-1.239 1.292v7.172c0 .879.536 1.336 1.283 1.336z" fill="#fff"/><path d="M214.972 625.121c.603 0 .959-.369.959-.997v-2.729h3.015c.501 0 .819-.286.819-.762 0-.47-.324-.756-.819-.756h-3.015v-2.45h3.326c.52 0 .869-.298.869-.793 0-.495-.342-.794-.869-.794h-4.285c-.603 0-.958.368-.958.997v7.287c0 .628.355.997.958.997zm8.95.025c2.057 0 3.371-1.314 3.371-3.555 0-2.209-1.333-3.542-3.371-3.542-2.037 0-3.37 1.34-3.37 3.542 0 2.235 1.314 3.555 3.37 3.555zm0-1.416c-.914 0-1.491-.768-1.491-2.132 0-1.352.59-2.133 1.491-2.133.902 0 1.486.781 1.486 2.133 0 1.364-.578 2.132-1.486 2.132zm5.256 1.403c.565 0 .927-.349.927-.965v-3.021c0-.806.298-1.282 1.143-1.295.361-.006.628-.089.806-.241.177-.153.266-.375.266-.667 0-.317-.089-.546-.266-.685-.134-.114-.33-.172-.578-.172-.679 0-1.238.502-1.415 1.346h-.039v-.444c0-.591-.355-.933-.876-.933-.533 0-.895.342-.895.933v5.179c0 .616.369.965.927.965zm6.621 2.425c2.19.013 3.472-1.054 3.472-2.825v-5.738c0-.628-.387-.939-.92-.939-.534 0-.934.311-.934.939v.375h-.038c-.355-.768-1.098-1.283-2.075-1.283-1.752 0-2.793 1.264-2.793 3.396 0 2.076 1.066 3.371 2.761 3.371.984 0 1.777-.489 2.095-1.219h.038v1.086c0 .85-.597 1.409-1.613 1.403-.615-.007-1.098-.267-1.599-.743-.21-.191-.4-.267-.641-.267-.464 0-.756.292-.756.679 0 .172.038.343.14.515.438.717 1.473 1.244 2.863 1.25zm.101-4.081c-.92 0-1.491-.73-1.491-1.975 0-1.231.577-2.005 1.491-2.005.927 0 1.524.787 1.524 2.012 0 1.231-.597 1.968-1.524 1.968zm7.7 1.669c2.057 0 3.371-1.314 3.371-3.555 0-2.209-1.333-3.542-3.371-3.542-2.038 0-3.371 1.34-3.371 3.542 0 2.235 1.314 3.555 3.371 3.555zm0-1.416c-.914 0-1.492-.768-1.492-2.132 0-1.352.591-2.133 1.492-2.133s1.485.781 1.485 2.133c0 1.364-.577 2.132-1.485 2.132zm4.824-.469c0 1.199.629 1.815 1.867 1.815h.063c.781 0 1.314-.279 1.314-.825 0-.432-.248-.622-.705-.673l-.12-.013c-.4-.031-.565-.234-.565-.717v-3.256h.654c.438 0 .711-.273.711-.698 0-.426-.273-.699-.711-.699h-.654v-.755c0-.597-.349-.965-.927-.965-.578 0-.927.368-.927.965v.755h-.355c-.438 0-.717.267-.717.699 0 .431.279.698.717.698h.355v3.669zm7.821 1.86c.603 0 .958-.369.958-.997v-2.012h1.714c1.93 0 3.269-1.257 3.269-3.136 0-1.885-1.295-3.136-3.174-3.136h-2.767c-.603 0-.959.368-.959.997v7.287c0 .628.356.997.959.997zm.958-4.507v-3.257h1.301c1.099 0 1.733.584 1.733 1.625 0 1.048-.641 1.632-1.739 1.632h-1.295zm7.528 4.494c.851 0 1.702-.425 2.082-1.149h.039v.349c.038.546.387.825.888.825.527 0 .902-.317.902-.933v-3.878c0-1.371-1.137-2.273-2.882-2.273-1.409 0-2.501.502-2.819 1.314a.992.992 0 00-.095.419c0 .419.324.711.775.711a.934.934 0 00.736-.343c.413-.533.755-.717 1.32-.717.698 0 1.143.368 1.143 1.003v.451l-1.714.101c-1.701.102-2.653.819-2.653 2.057 0 1.225.984 2.063 2.278 2.063zm.61-1.339c-.622 0-1.041-.318-1.041-.826 0-.482.393-.793 1.085-.844l1.435-.089v.495c0 .737-.667 1.264-1.479 1.264zm7.274 1.377c1.797 0 3.009-.876 3.009-2.228 0-1.016-.597-1.549-2.044-1.854l-1.123-.241c-.68-.146-.946-.381-.946-.736 0-.438.438-.736 1.066-.736.667 0 1.035.317 1.359.73.165.196.431.285.672.285.476 0 .711-.26.711-.635 0-.088-.019-.177-.044-.273-.222-.768-1.257-1.409-2.666-1.409-1.765 0-2.888.838-2.888 2.139 0 1.01.673 1.689 2.006 1.975l1.142.241c.667.146.902.343.902.711 0 .45-.438.73-1.111.73-.705 0-1.124-.216-1.486-.692-.254-.286-.507-.419-.806-.419-.431 0-.749.286-.749.711 0 .101.026.222.07.343.324.799 1.365 1.358 2.926 1.358zm6.703 0c1.797 0 3.009-.876 3.009-2.228 0-1.016-.597-1.549-2.044-1.854l-1.123-.241c-.68-.146-.946-.381-.946-.736 0-.438.438-.736 1.066-.736.667 0 1.035.317 1.359.73.165.196.431.285.673.285.476 0 .71-.26.71-.635 0-.088-.019-.177-.044-.273-.222-.768-1.257-1.409-2.666-1.409-1.765 0-2.888.838-2.888 2.139 0 1.01.673 1.689 2.006 1.975l1.142.241c.667.146.902.343.902.711 0 .45-.438.73-1.111.73-.705 0-1.124-.216-1.486-.692-.253-.286-.507-.419-.806-.419-.431 0-.749.286-.749.711 0 .101.026.222.07.343.324.799 1.365 1.358 2.926 1.358zm6.177-.013c.66 0 1.028-.298 1.187-.971l1.028-3.974h.038l1.035 3.961c.158.692.52.984 1.199.984.642 0 .997-.304 1.187-.977l1.372-4.748c.069-.241.101-.394.101-.565 0-.464-.362-.787-.876-.787-.457 0-.755.279-.857.774l-1.015 4.412h-.039l-1.06-4.336c-.12-.552-.482-.85-1.034-.85-.565 0-.927.298-1.048.85l-1.053 4.336h-.038l-1.01-4.399c-.108-.508-.406-.787-.869-.787-.521 0-.895.33-.895.793 0 .178.031.33.101.571l1.371 4.742c.197.673.534.971 1.175.971zm11.006.013c2.057 0 3.371-1.314 3.371-3.555 0-2.209-1.333-3.542-3.371-3.542-2.037 0-3.37 1.34-3.37 3.542 0 2.235 1.314 3.555 3.37 3.555zm0-1.416c-.914 0-1.491-.768-1.491-2.132 0-1.352.59-2.133 1.491-2.133.902 0 1.486.781 1.486 2.133 0 1.364-.578 2.132-1.486 2.132zm5.256 1.403c.565 0 .927-.349.927-.965v-3.021c0-.806.298-1.282 1.143-1.295.361-.006.628-.089.806-.241.178-.153.266-.375.266-.667 0-.317-.088-.546-.266-.685-.133-.114-.33-.172-.578-.172-.679 0-1.238.502-1.415 1.346h-.038v-.444c0-.591-.356-.933-.876-.933-.534 0-.895.342-.895.933v5.179c0 .616.368.965.926.965zm6.107-.025c1.047 0 1.796-.546 2.094-1.308h.032v.394c0 .622.4.939.933.939.54 0 .921-.323.921-.939v-7.522c0-.635-.381-.971-.927-.971-.54 0-.927.336-.927.971v2.691h-.038c-.33-.755-1.092-1.276-2.076-1.276-1.707 0-2.786 1.34-2.786 3.498 0 2.177 1.073 3.523 2.774 3.523zm.628-1.492c-.933 0-1.504-.768-1.504-2.018 0-1.244.571-2.025 1.504-2.025.921 0 1.511.787 1.511 2.025 0 1.244-.59 2.018-1.511 2.018zm9.737-1.282c.451 0 .699-.248.794-.673.082-.533.273-.806 1.117-1.295.895-.527 1.359-1.18 1.359-2.139 0-1.479-1.213-2.469-3.016-2.469-1.364 0-2.38.539-2.786 1.377a1.572 1.572 0 00-.191.756c0 .482.311.793.813.793.387 0 .673-.178.831-.584.204-.565.622-.87 1.245-.87.698 0 1.18.432 1.18 1.054 0 .584-.247.902-1.066 1.39-.749.438-1.136.933-1.136 1.682v.089c0 .521.317.889.856.889zm.013 2.825c.578 0 1.041-.438 1.041-.997 0-.558-.463-.996-1.041-.996-.571 0-1.034.438-1.034.996 0 .559.463.997 1.034.997z" fill="#4285F4"/><path d="M65.993 676h2.54c2.748 0 4.366-1.708 4.366-4.615s-1.618-4.545-4.367-4.545h-2.539c-.603 0-.958.368-.958.997v7.16c0 .635.355 1.003.958 1.003zm.959-1.587v-5.992h1.352c1.688 0 2.64 1.054 2.64 2.971 0 1.98-.926 3.021-2.64 3.021h-1.352zm10.15 1.733c2.056 0 3.37-1.314 3.37-3.555 0-2.209-1.333-3.542-3.37-3.542-2.038 0-3.371 1.34-3.371 3.542 0 2.235 1.314 3.555 3.37 3.555zm0-1.416c-.915 0-1.492-.768-1.492-2.132 0-1.352.59-2.133 1.492-2.133.9 0 1.485.781 1.485 2.133 0 1.364-.578 2.132-1.485 2.132zm5.255 1.403c.546 0 .927-.33.927-.965v-3.072c0-.882.527-1.492 1.359-1.492.831 0 1.25.508 1.25 1.397v3.167c0 .635.38.965.927.965.54 0 .927-.33.927-.965v-3.554c0-1.593-.851-2.546-2.362-2.546-1.047 0-1.733.464-2.095 1.308h-.038v-.381c0-.584-.368-.939-.926-.939-.559 0-.895.355-.895.933v5.179c0 .635.387.965.926.965zm7.09-5.56c.432 0 .66-.197.756-.629l.514-2.145c.026-.121.045-.241.045-.362 0-.457-.311-.736-.8-.736-.476 0-.787.228-.857.761l-.324 2.324c0 .019-.006.05-.006.101-.026.387.228.686.673.686zm3.359 3.688c0 1.199.628 1.815 1.866 1.815h.063c.781 0 1.314-.279 1.314-.825 0-.432-.247-.622-.704-.673l-.12-.013c-.4-.031-.566-.234-.566-.717v-3.256h.654c.438 0 .71-.273.71-.698 0-.426-.272-.699-.71-.699h-.654v-.755c0-.597-.349-.965-.927-.965-.577 0-.926.368-.926.965v.755h-.356c-.438 0-.717.267-.717.699 0 .431.28.698.717.698h.356v3.669zm7.674 1.872c.546 0 .927-.33.927-.965v-3.053c0-.895.514-1.511 1.39-1.511.844 0 1.276.534 1.276 1.41v3.154c0 .635.387.965.927.965.545 0 .926-.33.926-.965v-3.548c0-1.574-.863-2.552-2.374-2.552-1.034 0-1.777.483-2.139 1.34h-.038v-2.755c0-.597-.336-.952-.908-.952-.571 0-.914.355-.914.952v7.515c0 .635.387.965.927.965zm8.645-.025c.851 0 1.702-.425 2.083-1.149h.038v.349c.038.546.387.825.888.825.527 0 .902-.317.902-.933v-3.878c0-1.371-1.137-2.273-2.882-2.273-1.409 0-2.501.502-2.819 1.314a.992.992 0 00-.095.419c0 .419.324.711.775.711a.934.934 0 00.736-.343c.413-.533.755-.717 1.32-.717.699 0 1.143.368 1.143 1.003v.451l-1.714.101c-1.701.102-2.653.819-2.653 2.057 0 1.225.984 2.063 2.278 2.063zm.61-1.339c-.622 0-1.041-.318-1.041-.826 0-.482.393-.793 1.085-.844l1.435-.089v.495c0 .737-.667 1.264-1.479 1.264zm7.319 1.364c.673 0 1.06-.292 1.295-.945l1.771-4.787c.057-.158.101-.349.101-.52 0-.47-.387-.825-.901-.825-.432 0-.743.235-.87.723l-1.377 4.583h-.038l-1.378-4.564c-.139-.501-.438-.742-.888-.742-.527 0-.927.33-.927.831 0 .191.044.387.101.552l1.771 4.749c.248.66.629.945 1.34.945zm6.95.013c1.314 0 2.368-.495 2.819-1.333a.96.96 0 00.127-.451c0-.425-.324-.679-.724-.679-.241 0-.406.07-.603.273-.501.59-.946.819-1.625.819-.939 0-1.549-.66-1.549-1.67v-.082h3.885c.514 0 .806-.292.806-.806 0-1.847-1.295-3.168-3.224-3.168-2.013 0-3.289 1.39-3.289 3.58 0 2.203 1.251 3.517 3.377 3.517zm-1.536-4.259c.064-.87.654-1.467 1.467-1.467.812 0 1.383.578 1.421 1.467h-2.888zm10.22 4.221c.851 0 1.701-.425 2.082-1.149h.038v.349c.038.546.387.825.889.825.527 0 .901-.317.901-.933v-3.878c0-1.371-1.136-2.273-2.882-2.273-1.409 0-2.501.502-2.818 1.314a.977.977 0 00-.095.419c0 .419.323.711.774.711a.934.934 0 00.736-.343c.413-.533.756-.717 1.321-.717.698 0 1.142.368 1.142 1.003v.451l-1.714.101c-1.701.102-2.653.819-2.653 2.057 0 1.225.984 2.063 2.279 2.063zm.609-1.339c-.622 0-1.041-.318-1.041-.826 0-.482.394-.793 1.086-.844l1.434-.089v.495c0 .737-.666 1.264-1.479 1.264zm5.428 1.364c.546 0 .926-.33.926-.965v-3.072c0-.882.527-1.492 1.359-1.492.831 0 1.25.508 1.25 1.397v3.167c0 .635.381.965.927.965.54 0 .927-.33.927-.965v-3.554c0-1.593-.851-2.546-2.362-2.546-1.047 0-1.732.464-2.094 1.308h-.038v-.381c0-.584-.369-.939-.927-.939-.559 0-.895.355-.895.933v5.179c0 .635.387.965.927.965zm9.908-.012c.508 0 .794-.254.971-.864l.483-1.428h3.307l.482 1.447c.172.597.457.845.997.845.559 0 .959-.375.959-.902 0-.19-.032-.362-.121-.609l-2.514-6.818c-.273-.749-.717-1.079-1.466-1.079-.724 0-1.174.343-1.441 1.086l-2.501 6.811a1.986 1.986 0 00-.127.609c0 .552.375.902.971.902zm1.873-3.777l1.187-3.752h.044l1.213 3.752h-2.444zm9.185 3.802c1.301 0 2.463-.647 2.869-1.574.083-.184.121-.337.121-.483 0-.457-.349-.742-.781-.742-.394 0-.597.158-.844.546-.286.482-.686.799-1.333.799-.927 0-1.505-.761-1.505-2.101 0-1.314.578-2.088 1.517-2.088.591 0 1.003.273 1.34.87.19.336.412.482.78.482.438 0 .794-.267.794-.724 0-.133-.038-.298-.102-.457-.368-.965-1.504-1.625-2.869-1.625-2.044 0-3.339 1.371-3.339 3.549 0 2.202 1.302 3.548 3.352 3.548zm7.084 0c1.301 0 2.463-.647 2.869-1.574.083-.184.121-.337.121-.483 0-.457-.349-.742-.781-.742-.394 0-.597.158-.844.546-.286.482-.686.799-1.333.799-.927 0-1.505-.761-1.505-2.101 0-1.314.578-2.088 1.517-2.088.591 0 1.003.273 1.34.87.19.336.412.482.78.482.438 0 .794-.267.794-.724 0-.133-.038-.298-.102-.457-.368-.965-1.504-1.625-2.869-1.625-2.044 0-3.339 1.371-3.339 3.549 0 2.202 1.302 3.548 3.352 3.548zm7.103 0c2.057 0 3.371-1.314 3.371-3.555 0-2.209-1.333-3.542-3.371-3.542-2.038 0-3.371 1.34-3.371 3.542 0 2.235 1.314 3.555 3.371 3.555zm0-1.416c-.914 0-1.492-.768-1.492-2.132 0-1.352.591-2.133 1.492-2.133s1.485.781 1.485 2.133c0 1.364-.577 2.132-1.485 2.132zm6.747 1.397c1.029 0 1.702-.495 2.038-1.352h.038v.419c0 .616.362.939.895.939s.895-.323.895-.939v-5.167c0-.635-.381-.971-.927-.971-.539 0-.926.336-.926.971v3.066c0 .901-.514 1.491-1.34 1.491-.819 0-1.269-.482-1.269-1.39v-3.167c0-.635-.381-.971-.927-.971-.54 0-.927.336-.927.971v3.555c0 1.586.978 2.545 2.45 2.545zm5.999.006c.546 0 .927-.33.927-.965v-3.072c0-.882.527-1.492 1.358-1.492.832 0 1.251.508 1.251 1.397v3.167c0 .635.381.965.926.965.54 0 .927-.33.927-.965v-3.554c0-1.593-.85-2.546-2.361-2.546-1.048 0-1.733.464-2.095 1.308h-.038v-.381c0-.584-.368-.939-.927-.939-.558 0-.895.355-.895.933v5.179c0 .635.387.965.927.965zm7.059-1.872c0 1.199.628 1.815 1.866 1.815h.063c.781 0 1.314-.279 1.314-.825 0-.432-.247-.622-.704-.673l-.121-.013c-.4-.031-.565-.234-.565-.717v-3.256h.654c.438 0 .711-.273.711-.698 0-.426-.273-.699-.711-.699h-.654v-.755c0-.597-.349-.965-.927-.965-.577 0-.926.368-.926.965v.755h-.356c-.438 0-.717.267-.717.699 0 .431.279.698.717.698h.356v3.669zm9.274-.927c.45 0 .698-.248.793-.673.083-.533.273-.806 1.117-1.295.895-.527 1.359-1.18 1.359-2.139 0-1.479-1.213-2.469-3.016-2.469-1.364 0-2.38.539-2.786 1.377a1.572 1.572 0 00-.191.756c0 .482.311.793.813.793.387 0 .673-.178.831-.584.204-.565.623-.87 1.245-.87.698 0 1.18.432 1.18 1.054 0 .584-.247.902-1.066 1.39-.749.438-1.136.933-1.136 1.682v.089c0 .521.317.889.857.889zm.012 2.825c.578 0 1.041-.438 1.041-.997 0-.558-.463-.996-1.041-.996-.571 0-1.034.438-1.034.996 0 .559.463.997 1.034.997z" fill="#fff"/><path d="M222.151 676.152c1.733 0 3.098-.78 3.669-2.05.096-.222.146-.425.146-.641 0-.508-.355-.851-.895-.851-.406 0-.647.172-.844.603-.413.921-1.136 1.359-2.101 1.359-1.466 0-2.387-1.206-2.387-3.161 0-1.93.933-3.142 2.381-3.142.914 0 1.663.469 2.082 1.402.209.445.482.635.914.635.508 0 .844-.324.844-.825 0-.229-.064-.476-.19-.717-.629-1.321-1.956-2.082-3.669-2.082-2.635 0-4.317 1.783-4.317 4.735 0 2.958 1.651 4.735 4.367 4.735zm5.954-.019c.565 0 .927-.349.927-.965v-3.021c0-.806.299-1.282 1.143-1.295.362-.006.628-.089.806-.241.178-.153.267-.375.267-.667 0-.317-.089-.546-.267-.685-.133-.114-.33-.172-.578-.172-.679 0-1.237.502-1.415 1.346h-.038v-.444c0-.591-.356-.933-.876-.933-.533 0-.895.342-.895.933v5.179c0 .616.368.965.926.965zm6.71.013c1.314 0 2.368-.495 2.818-1.333a.948.948 0 00.127-.451c0-.425-.323-.679-.723-.679-.242 0-.407.07-.603.273-.502.59-.946.819-1.625.819-.94 0-1.549-.66-1.549-1.67v-.082h3.885c.514 0 .806-.292.806-.806 0-1.847-1.295-3.168-3.225-3.168-2.012 0-3.288 1.39-3.288 3.58 0 2.203 1.25 3.517 3.377 3.517zm-1.536-4.259c.063-.87.654-1.467 1.466-1.467.813 0 1.384.578 1.422 1.467h-2.888zm7.642 4.221c.851 0 1.702-.425 2.082-1.149h.039v.349c.038.546.387.825.888.825.527 0 .902-.317.902-.933v-3.878c0-1.371-1.137-2.273-2.882-2.273-1.409 0-2.501.502-2.819 1.314a.992.992 0 00-.095.419c0 .419.324.711.775.711a.934.934 0 00.736-.343c.412-.533.755-.717 1.32-.717.698 0 1.143.368 1.143 1.003v.451l-1.714.101c-1.701.102-2.653.819-2.653 2.057 0 1.225.983 2.063 2.278 2.063zm.61-1.339c-.622 0-1.041-.318-1.041-.826 0-.482.393-.793 1.085-.844l1.435-.089v.495c0 .737-.667 1.264-1.479 1.264zm4.995-.508c0 1.199.629 1.815 1.867 1.815h.063c.781 0 1.314-.279 1.314-.825 0-.432-.248-.622-.705-.673l-.12-.013c-.4-.031-.565-.234-.565-.717v-3.256h.654c.438 0 .711-.273.711-.698 0-.426-.273-.699-.711-.699h-.654v-.755c0-.597-.349-.965-.927-.965-.578 0-.927.368-.927.965v.755h-.355c-.438 0-.717.267-.717.699 0 .431.279.698.717.698h.355v3.669zm7.154 1.885c1.314 0 2.368-.495 2.819-1.333a.958.958 0 00.126-.451c0-.425-.323-.679-.723-.679-.241 0-.406.07-.603.273-.502.59-.946.819-1.625.819-.94 0-1.549-.66-1.549-1.67v-.082h3.885c.514 0 .806-.292.806-.806 0-1.847-1.295-3.168-3.225-3.168-2.012 0-3.288 1.39-3.288 3.58 0 2.203 1.251 3.517 3.377 3.517zm-1.536-4.259c.064-.87.654-1.467 1.466-1.467.813 0 1.384.578 1.422 1.467h-2.888zm8.976 4.234c.507 0 .793-.254.971-.864l.482-1.428h3.307l.483 1.447c.171.597.457.845.996.845.559 0 .959-.375.959-.902 0-.19-.032-.362-.121-.609l-2.513-6.818c-.273-.749-.718-1.079-1.467-1.079-.723 0-1.174.343-1.441 1.086l-2.501 6.811a1.986 1.986 0 00-.127.609c0 .552.375.902.972.902zm1.872-3.777l1.187-3.752h.045l1.212 3.752h-2.444zm9.185 3.802c1.302 0 2.463-.647 2.869-1.574.083-.184.121-.337.121-.483 0-.457-.349-.742-.781-.742-.393 0-.596.158-.844.546-.286.482-.686.799-1.333.799-.927 0-1.504-.761-1.504-2.101 0-1.314.577-2.088 1.517-2.088.59 0 1.003.273 1.339.87.19.336.413.482.781.482.438 0 .793-.267.793-.724 0-.133-.038-.298-.101-.457-.368-.965-1.505-1.625-2.869-1.625-2.044 0-3.339 1.371-3.339 3.549 0 2.202 1.301 3.548 3.351 3.548zm7.084 0c1.301 0 2.463-.647 2.869-1.574.083-.184.121-.337.121-.483 0-.457-.349-.742-.781-.742-.393 0-.596.158-.844.546-.286.482-.686.799-1.333.799-.927 0-1.504-.761-1.504-2.101 0-1.314.577-2.088 1.517-2.088.59 0 1.003.273 1.339.87.19.336.413.482.781.482.438 0 .793-.267.793-.724 0-.133-.038-.298-.101-.457-.368-.965-1.505-1.625-2.869-1.625-2.044 0-3.339 1.371-3.339 3.549 0 2.202 1.301 3.548 3.351 3.548zm7.103 0c2.057 0 3.371-1.314 3.371-3.555 0-2.209-1.333-3.542-3.371-3.542-2.037 0-3.37 1.34-3.37 3.542 0 2.235 1.314 3.555 3.37 3.555zm0-1.416c-.914 0-1.491-.768-1.491-2.132 0-1.352.59-2.133 1.491-2.133.902 0 1.486.781 1.486 2.133 0 1.364-.578 2.132-1.486 2.132zm6.748 1.397c1.028 0 1.701-.495 2.037-1.352h.039v.419c0 .616.361.939.895.939.533 0 .895-.323.895-.939v-5.167c0-.635-.381-.971-.927-.971-.54 0-.927.336-.927.971v3.066c0 .901-.514 1.491-1.339 1.491-.819 0-1.27-.482-1.27-1.39v-3.167c0-.635-.381-.971-.927-.971-.539 0-.926.336-.926.971v3.555c0 1.586.977 2.545 2.45 2.545zm5.998.006c.546 0 .927-.33.927-.965v-3.072c0-.882.527-1.492 1.359-1.492.831 0 1.25.508 1.25 1.397v3.167c0 .635.381.965.927.965.539 0 .927-.33.927-.965v-3.554c0-1.593-.851-2.546-2.362-2.546-1.047 0-1.733.464-2.095 1.308h-.038v-.381c0-.584-.368-.939-.926-.939-.559 0-.895.355-.895.933v5.179c0 .635.387.965.926.965zm7.059-1.872c0 1.199.628 1.815 1.866 1.815h.064c.78 0 1.314-.279 1.314-.825 0-.432-.248-.622-.705-.673l-.121-.013c-.399-.031-.565-.234-.565-.717v-3.256h.654c.438 0 .711-.273.711-.698 0-.426-.273-.699-.711-.699h-.654v-.755c0-.597-.349-.965-.926-.965-.578 0-.927.368-.927.965v.755h-.356c-.438 0-.717.267-.717.699 0 .431.279.698.717.698h.356v3.669z" fill="#4285F4"/><path d="M52 650h270v-4H52v4z" fill="#fff" mask="url(#prefix__path-11-inside-1_411_820)"/><path d="M37.125 62.1L28.7 53.7a.871.871 0 01-.212-.325 1.098 1.098 0 01-.063-.375 1.1 1.1 0 01.063-.375.872.872 0 01.212-.325l8.425-8.425c.233-.233.525-.35.875-.35s.65.125.9.375.375.542.375.875a1.2 1.2 0 01-.375.875L31.55 53l7.35 7.35c.233.233.35.52.35.862 0 .342-.125.638-.375.888a1.2 1.2 0 01-.875.375 1.2 1.2 0 01-.875-.375z" fill="#fff"/></g></svg>